<?xml version="1.0" encoding="UTF-8" standalone="no"?>
<svg
   width="375.40399"
   height="458.478"
   stroke-linecap="round"
   stroke-linejoin="round"
   viewBox="378.865 -105.857 375.404 458.478"
   version="1.1"
   id="svg31"
   xmlns="http://www.w3.org/2000/svg"
   xmlns:svg="http://www.w3.org/2000/svg">
  <defs
     id="defs5" />
  <path
     fill="#1d1d1d"
     stroke="#1d1d1d"
     d="m 441.074,139.582 q -2.573,1.684 -4.306,2.553 -1.733,0.869 -3.206,1.444 -1.473,0.575 -2.708,0.909 -1.235,0.334 -2.693,0.328 -1.458,-0.006 -2.733,-0.253 -1.275,-0.247 -2.481,-0.73 -1.206,-0.483 -2.33,-1.453 -1.124,-0.97 -2.017,-1.909 -0.893,-0.939 -1.743,-1.957 -0.85,-1.018 -1.622,-2.276 -0.772,-1.258 -1.313,-2.381 -0.541,-1.123 -1.028,-2.405 -0.487,-1.282 -0.966,-2.64 -0.479,-1.358 -0.849,-2.604 -0.37,-1.246 -0.636,-2.558 -0.266,-1.312 -0.466,-2.743 -0.2,-1.431 -0.294,-2.739 -0.094,-1.308 0.002,-2.816 0.096,-1.508 0.295,-2.977 0.199,-1.469 0.363,-2.893 0.164,-1.424 0.301,-2.912 0.137,-1.488 0.329,-3.153 0.192,-1.665 0.397,-3.064 0.205,-1.399 0.465,-2.82 0.26,-1.421 0.555,-2.619 0.295,-1.198 0.917,-2.657 0.622,-1.459 1.187,-2.515 0.565,-1.056 1.466,-2.494 0.901,-1.438 1.545,-2.405 0.644,-0.967 1.55,-2.32 0.906,-1.353 1.694,-2.544 0.788,-1.191 2.008,-2.908 1.22,-1.717 2.06,-2.805 0.84,-1.088 1.6,-1.972 0.76,-0.884 2.009,-2.122 1.249,-1.238 2.56,-2.297 1.311,-1.059 2.623,-1.873 1.312,-0.814 2.71,-1.448 1.398,-0.634 2.719,-1.107 1.321,-0.473 2.786,-0.974 1.465,-0.501 2.932,-1.139 1.467,-0.638 2.686,-1.187 1.219,-0.549 2.91,-1.051 1.691,-0.502 3.168,-0.555 1.477,-0.053 3.233,0 1.756,0.053 3.064,-0.012 1.308,-0.065 2.923,-0.14 1.615,-0.075 3.614,0.01 1.999,0.085 3.773,0.327 1.774,0.242 3.427,0.75 1.653,0.508 3.222,1.137 1.569,0.629 3.157,1.56 1.588,0.931 2.779,1.886 1.191,0.955 2.181,1.77 0.99,0.815 2.358,2.02 1.368,1.205 2.683,2.725 1.315,1.52 2.27,2.762 0.955,1.242 1.948,2.704 0.993,1.462 1.67,2.749 0.677,1.287 1.426,2.723 0.749,1.436 1.236,2.696 0.487,1.26 0.56,2.725 0.073,1.465 -0.171,2.87 -0.244,1.405 -0.467,2.597 -0.223,1.192 -0.417,2.377 -0.194,1.185 -0.48,2.366 -0.286,1.181 -0.802,2.555 -0.516,1.374 -1.105,2.758 -0.589,1.384 -1.311,2.578 -0.722,1.194 -1.593,2.304 -0.871,1.11 -1.875,2.224 -1.004,1.114 -2.259,1.987 -1.255,0.873 -2.362,1.333 -1.107,0.46 -2.74,0.63 -1.633,0.17 -2.911,-0.063 -1.278,-0.233 -2.472,-0.307 -1.194,-0.074 -2.396,-0.161 -1.202,-0.087 -2.613,0.112 -1.411,0.199 -2.551,0.452 -1.14,0.253 -2.464,1.059 -1.324,0.806 -2.332,1.845 -1.008,1.039 -1.756,1.911 -0.748,0.872 -1.526,1.83 -0.778,0.958 -1.63,2.34 -0.852,1.382 -1.226,2.873 -0.374,1.491 -0.67,2.731 -0.296,1.24 -0.84,2.482 -0.544,1.242 -1.248,2.333 -0.704,1.091 -1.422,2.034 -0.718,0.943 -1.638,2.079 -0.92,1.136 -2.382,2.008 -1.462,0.872 -2.705,1.324 -1.243,0.452 -2.573,1.116 -1.33,0.664 -2.772,1.135 -1.442,0.471 -3.015,0.479 -1.573,0.008 -3.27,-0.961 -1.697,-0.969 -1.985,-1.456 -0.288,-0.487 0.054,-0.936 0.342,-0.449 0.885,-0.308 0.543,0.141 0.624,0.7 0.081,0.559 -0.409,0.844 -0.49,0.285 -0.935,-0.054 -0.445,-0.339 -0.308,-0.886 0.137,-0.547 0.7,-0.623 0.563,-0.076 2.608,0.013 2.045,0.089 3.416,-0.22 1.371,-0.309 2.914,-1.073 1.543,-0.764 2.68,-1.168 1.137,-0.404 2.383,-1.267 1.246,-0.863 2.046,-1.946 0.8,-1.083 1.647,-2.299 0.847,-1.216 1.434,-2.634 0.587,-1.418 0.838,-2.709 0.251,-1.291 0.707,-2.678 0.456,-1.387 1.07,-2.429 0.614,-1.042 1.4,-2.144 0.786,-1.102 1.61,-2.037 0.824,-0.935 2.002,-2.238 1.178,-1.303 2.255,-2.157 1.077,-0.854 2.446,-1.528 1.369,-0.674 2.519,-0.944 1.15,-0.27 2.516,-0.513 1.366,-0.243 2.562,-0.199 1.196,0.044 2.445,0.113 1.249,0.069 3.095,0.358 1.846,0.289 3.197,0.09 1.351,-0.199 2.57,-0.882 1.219,-0.683 2.141,-1.706 0.922,-1.023 1.99,-2.415 1.068,-1.392 1.663,-2.598 0.595,-1.206 1.103,-2.463 0.508,-1.257 0.96,-2.814 0.452,-1.557 0.66,-2.835 0.208,-1.278 0.431,-2.413 0.223,-1.135 0.438,-2.324 0.215,-1.189 0.2,-2.55 -0.015,-1.361 -0.614,-2.585 -0.599,-1.224 -1.264,-2.51 -0.665,-1.286 -1.375,-2.654 -0.71,-1.368 -1.613,-2.68 -0.903,-1.312 -1.924,-2.586 -1.021,-1.274 -2.282,-2.6 -1.261,-1.326 -2.272,-2.294 -1.011,-0.968 -2.072,-1.877 -1.061,-0.909 -2.251,-1.797 -1.19,-0.888 -2.665,-1.565 -1.475,-0.677 -2.821,-1.172 -1.346,-0.495 -2.89,-0.854 -1.544,-0.359 -3.428,-0.528 -1.884,-0.169 -3.65,-0.171 -1.766,-0.002 -3.118,0.067 -1.352,0.069 -2.778,0.115 -1.426,0.046 -3.069,-0.04 -1.643,-0.086 -3.04,0.142 -1.397,0.228 -2.833,0.804 -1.436,0.576 -2.89,1.236 -1.454,0.66 -2.79,1.163 -1.336,0.503 -2.621,0.933 -1.285,0.43 -2.486,0.899 -1.201,0.469 -2.547,1.167 -1.346,0.698 -2.488,1.51 -1.142,0.812 -2.304,1.856 -1.162,1.044 -2.505,2.513 -1.343,1.469 -2.148,2.508 -0.805,1.039 -1.54,2.058 -0.735,1.019 -1.626,2.334 -0.891,1.315 -1.538,2.278 -0.647,0.963 -1.58,2.365 -0.933,1.402 -1.556,2.348 -0.623,0.946 -1.429,2.304 -0.806,1.358 -1.418,2.584 -0.612,1.226 -1.085,2.867 -0.473,1.641 -0.72,3.01 -0.247,1.369 -0.452,2.74 -0.205,1.371 -0.387,2.976 -0.182,1.605 -0.325,3.126 -0.143,1.521 -0.306,2.962 -0.163,1.441 -0.364,2.894 -0.201,1.453 -0.286,2.76 -0.085,1.307 -0.002,2.522 0.083,1.215 0.273,2.557 0.19,1.342 0.424,2.535 0.234,1.193 0.584,2.364 0.35,1.171 0.822,2.52 0.472,1.349 1.148,3.056 0.676,1.707 1.268,2.812 0.592,1.105 1.262,2.036 0.67,0.931 1.568,1.903 0.898,0.972 2.087,2.125 1.189,1.153 2.653,1.687 1.464,0.534 2.622,0.656 1.158,0.122 2.712,-0.108 1.554,-0.23 2.968,-0.739 1.414,-0.509 3.082,-1.253 1.668,-0.744 3.046,-1.43 1.378,-0.686 1.545,-0.743 0.167,-0.057 0.347,-0.045 0.18,0.012 0.337,0.092 0.157,0.08 0.277,0.213 0.12,0.133 0.174,0.304 0.054,0.171 0.044,0.346 -0.01,0.175 -0.091,0.338 -0.081,0.163 -0.214,0.276 z"
     opacity="0.1"
     id="path7"
     style="fill:#1d1d1d;fill-opacity:0.276119;stroke:none" />
  <path
     fill="#1d1d1d"
     stroke="#1d1d1d"
     d="m 428.57,121.416 q -2.448,0.756 -3.452,2.092 -1.004,1.336 -1.42,2.457 -0.416,1.121 -0.447,2.702 -0.031,1.581 0.52,2.862 0.551,1.281 1.95,1.978 1.399,0.697 2.549,0.37 1.15,-0.327 2.288,-0.93 1.138,-0.603 2.318,-1.47 1.18,-0.867 2.116,-1.811 0.936,-0.944 1.432,-2.127 0.496,-1.183 -0.161,-2.184 -0.657,-1.001 -1.809,-1.646 -1.152,-0.645 -2.27,-1.116 -1.118,-0.471 -2.448,-0.581 -1.33,-0.11 -1.885,-0.356 -0.555,-0.246 -0.546,-0.851 0.009,-0.605 0.578,-0.83 0.569,-0.225 0.987,0.217 0.418,0.442 0.178,0.994 -0.24,0.552 -0.85,0.546 -0.61,-0.006 -0.83,-0.578 -0.22,-0.572 0.216,-0.987 0.436,-0.415 2.468,-0.901 2.032,-0.486 3.485,0.115 1.453,0.601 2.967,1.517 1.514,0.916 2.536,2.617 1.022,1.701 0.948,3.237 -0.074,1.536 -0.88,2.884 -0.806,1.348 -1.909,2.428 -1.103,1.08 -2.518,2.113 -1.415,1.033 -2.85,1.698 -1.435,0.665 -3.395,1.01 -1.96,0.345 -3.719,-0.42 -1.759,-0.765 -2.785,-2.05 -1.026,-1.285 -1.332,-2.648 -0.306,-1.363 -0.255,-2.656 0.051,-1.293 0.46,-2.9 0.409,-1.607 1.445,-3.003 1.036,-1.396 2.139,-2.278 1.103,-0.882 2.43,-1.09 1.327,-0.208 1.512,-0.226 0.185,-0.018 0.348,0.058 0.163,0.076 0.3,0.186 0.137,0.11 0.205,0.287 0.068,0.177 0.08,0.343 0.012,0.166 -0.056,0.348 -0.068,0.182 -0.187,0.3 -0.119,0.118 -0.286,0.206 z m 0.504,-23.571 q -2.725,1.027 -3.908,2.096 -1.183,1.069 -1.83,2.088 -0.647,1.019 -0.994,2.132 -0.347,1.113 -0.161,2.376 0.186,1.263 1.22,2.228 1.034,0.965 2.2,1.38 1.166,0.415 2.468,0.656 1.302,0.241 2.409,-0.156 1.107,-0.397 2.263,-1.299 1.156,-0.902 1.804,-1.917 0.648,-1.015 0.788,-2.37 0.14,-1.355 -0.777,-2.596 -0.917,-1.241 -2.233,-2.129 -1.316,-0.888 -3.403,-1.642 -2.087,-0.754 -2.688,-0.98 -0.601,-0.226 -0.625,-0.878 -0.024,-0.652 0.571,-0.914 0.595,-0.262 1.063,0.178 0.468,0.44 0.242,1.05 -0.226,0.61 -0.878,0.626 -0.652,0.016 -0.913,-0.572 -0.261,-0.588 0.178,-1.063 0.439,-0.475 3.695,-0.03 3.256,0.445 4.9,1.614 1.644,1.169 2.647,2.45 1.003,1.281 1.441,2.954 0.438,1.673 -0.022,3.342 -0.46,1.669 -1.468,2.977 -1.008,1.308 -1.96,2.126 -0.952,0.818 -2.593,1.607 -1.641,0.789 -3.38,0.784 -1.739,-0.005 -3.248,-0.432 -1.509,-0.427 -2.966,-1.292 -1.457,-0.865 -2.325,-2.144 -0.868,-1.279 -1.183,-2.74 -0.315,-1.461 -0.065,-2.777 0.25,-1.316 1.024,-2.86 0.774,-1.544 1.964,-2.711 1.19,-1.167 2.275,-1.792 1.085,-0.625 2.53,-0.886 1.445,-0.261 1.627,-0.275 0.182,-0.014 0.35,0.044 0.168,0.058 0.307,0.174 0.139,0.116 0.217,0.279 0.078,0.163 0.094,0.34 0.016,0.177 -0.044,0.35 -0.06,0.173 -0.174,0.307 -0.114,0.134 -0.279,0.217 z M 444.258,78.79 q -2.583,0.928 -3.87,1.555 -1.287,0.627 -2.526,1.662 -1.239,1.035 -1.937,2.207 -0.698,1.172 -0.81,2.742 -0.112,1.57 0.955,2.527 1.067,0.957 2.268,1.747 1.201,0.79 2.527,1.216 1.326,0.426 2.666,0.49 1.34,0.064 3.04,-0.44 1.7,-0.504 2.706,-1.52 1.006,-1.016 1.414,-2.198 0.408,-1.182 -0.104,-3.108 -0.512,-1.926 -1.268,-2.91 -0.756,-0.984 -1.884,-1.448 -1.128,-0.464 -2.739,-0.735 -1.611,-0.271 -2.095,-0.435 -0.484,-0.164 -0.523,-0.673 -0.039,-0.509 0.422,-0.74 0.461,-0.231 0.845,0.106 0.384,0.337 0.225,0.822 -0.159,0.485 -0.673,0.522 -0.514,0.037 -0.74,-0.422 -0.226,-0.459 0.107,-0.845 0.333,-0.386 2.727,-0.853 2.394,-0.467 4.24,0.462 1.846,0.929 2.93,2.416 1.084,1.487 1.528,2.61 0.444,1.123 0.594,2.993 0.15,1.87 -0.605,3.736 -0.755,1.866 -2.333,3.326 -1.578,1.46 -3.337,2.077 -1.759,0.617 -3.5,0.66 -1.741,0.043 -3.423,-0.312 -1.682,-0.355 -3.196,-1.17 -1.514,-0.815 -2.881,-1.853 -1.367,-1.038 -2.217,-2.48 -0.85,-1.442 -0.815,-3.2 0.035,-1.758 0.732,-3.332 0.697,-1.574 1.931,-2.969 1.234,-1.395 2.195,-2.023 0.961,-0.628 2.633,-1.226 1.672,-0.598 3.048,-0.685 1.376,-0.087 1.55,-0.09 0.174,-0.003 0.343,0.064 0.169,0.067 0.293,0.192 0.124,0.125 0.197,0.29 0.073,0.165 0.07,0.342 -0.003,0.177 -0.065,0.344 -0.062,0.167 -0.192,0.293 -0.13,0.126 -0.289,0.197 z m 23.519,-9.22 q -2.52,0.07 -3.56,0.685 -1.04,0.615 -1.874,1.952 -0.834,1.337 -1.44,2.748 -0.606,1.411 -0.923,2.89 -0.317,1.479 -0.089,2.657 0.228,1.178 1.324,2.016 1.096,0.838 2.543,0.947 1.447,0.109 2.993,-0.343 1.546,-0.452 2.658,-1.031 1.112,-0.579 2.048,-1.234 0.936,-0.655 1.839,-1.933 0.903,-1.278 0.983,-2.625 0.08,-1.347 -0.545,-2.636 -0.625,-1.289 -1.377,-2.21 -0.752,-0.921 -1.722,-1.61 -0.97,-0.689 -2.243,-1 -1.273,-0.311 -1.81,-0.417 -0.537,-0.106 -0.645,-0.65 -0.108,-0.544 0.354,-0.845 0.462,-0.301 0.916,0.004 0.454,0.305 0.347,0.847 -0.107,0.542 -0.651,0.645 -0.544,0.103 -0.844,-0.354 -0.3,-0.457 0.004,-0.916 0.304,-0.459 3.58,-0.115 3.276,0.344 4.327,1.405 1.051,1.061 1.852,2.294 0.801,1.233 1.263,2.562 0.462,1.329 0.377,2.922 -0.085,1.593 -0.657,2.834 -0.572,1.241 -1.546,2.403 -0.974,1.162 -2.12,1.951 -1.146,0.789 -2.5,1.441 -1.354,0.652 -3.41,1.17 -2.056,0.518 -4.113,0.267 -2.057,-0.251 -3.6,-1.354 -1.543,-1.103 -2.108,-2.614 -0.565,-1.511 -0.469,-3.408 0.096,-1.897 0.705,-3.594 0.609,-1.697 1.421,-3.124 0.812,-1.427 1.666,-2.43 0.854,-1.003 2.775,-1.774 1.921,-0.771 3.18,-0.516 1.259,0.255 1.425,0.306 0.166,0.051 0.313,0.164 0.147,0.113 0.227,0.27 0.08,0.157 0.106,0.337 0.026,0.18 -0.031,0.351 -0.057,0.171 -0.163,0.313 -0.106,0.142 -0.27,0.227 -0.164,0.085 -0.337,0.106 z M 485.6,82.448 q -2.554,0.096 -3.756,0.332 -1.202,0.236 -2.214,1.107 -1.012,0.871 -1.465,2.113 -0.453,1.242 -0.636,2.692 -0.183,1.45 0.022,2.702 0.205,1.252 0.748,2.517 0.543,1.265 1.733,1.872 1.19,0.607 2.342,0.274 1.152,-0.333 2.422,-1.424 1.27,-1.091 1.877,-2.34 0.607,-1.249 0.895,-2.45 0.288,-1.201 -0.157,-2.727 -0.445,-1.526 -2.75,-2.493 -2.305,-0.967 -2.777,-1.21 -0.472,-0.243 -0.434,-0.783 0.038,-0.54 0.556,-0.7 0.518,-0.16 0.86,0.246 0.342,0.406 0.102,0.889 -0.24,0.483 -0.782,0.434 -0.542,-0.049 -0.7,-0.557 -0.158,-0.508 0.246,-0.86 0.404,-0.352 2.914,-0.447 2.51,-0.095 3.847,1.239 1.337,1.334 1.944,3.124 0.607,1.79 0.41,3.389 -0.197,1.599 -0.793,3.094 -0.596,1.495 -1.674,2.97 -1.078,1.475 -2.397,2.355 -1.319,0.88 -3.387,1.267 -2.068,0.387 -3.702,-0.339 -1.634,-0.726 -2.66,-2.242 -1.026,-1.516 -1.463,-3.193 -0.437,-1.677 -0.443,-3.427 -0.006,-1.75 0.486,-3.567 0.492,-1.817 1.446,-3.305 0.954,-1.488 2.398,-2.182 1.444,-0.694 3.055,-0.777 1.611,-0.083 2.858,0.259 1.247,0.342 1.406,0.39 0.159,0.048 0.305,0.17 0.146,0.122 0.217,0.272 0.071,0.15 0.096,0.336 0.025,0.186 -0.04,0.346 -0.065,0.16 -0.17,0.305 -0.105,0.145 -0.273,0.217 -0.168,0.072 -0.335,0.096 z m -28.273,20.037 q -2.296,0.328 -3.302,1.405 -1.006,1.077 -0.957,2.346 0.049,1.269 0.666,2.28 0.617,1.011 1.928,0.444 1.311,-0.567 1.905,-2.004 0.594,-1.437 -0.312,-3.133 -0.906,-1.696 -1.163,-2.225 -0.257,-0.529 0.134,-0.971 0.391,-0.442 0.95,-0.249 0.559,0.193 0.592,0.782 0.033,0.589 -0.496,0.847 -0.529,0.258 -0.972,-0.134 -0.443,-0.392 -0.248,-0.95 0.195,-0.558 0.782,-0.592 0.587,-0.034 2.036,2.836 1.449,2.87 0.997,4.177 -0.452,1.307 -1.487,2.585 -1.035,1.278 -2.599,1.594 -1.564,0.316 -2.879,-0.836 -1.315,-1.152 -1.731,-2.848 -0.416,-1.696 0.145,-3.626 0.561,-1.93 2.052,-2.746 1.491,-0.816 2.665,-0.806 1.174,0.01 1.35,0.032 0.176,0.022 0.329,0.112 0.153,0.09 0.262,0.229 0.109,0.139 0.154,0.312 0.045,0.173 0.023,0.347 -0.022,0.174 -0.111,0.33 -0.089,0.156 -0.23,0.261 -0.141,0.105 -0.311,0.155 z m 144.285,22.005 q 0.34,-1.346 0.714,-2.458 0.374,-1.112 0.801,-1.966 0.427,-0.854 0.994,-1.739 0.567,-0.885 1.22,-1.784 0.653,-0.899 1.195,-1.675 0.542,-0.776 1.19,-1.743 0.648,-0.967 1.154,-1.77 0.506,-0.803 0.864,-1.453 0.358,-0.65 0.882,-1.496 0.524,-0.846 0.932,-1.6 0.408,-0.754 0.903,-1.59 0.495,-0.836 1.044,-1.72 0.549,-0.884 0.914,-1.42 0.365,-0.536 0.845,-1.305 0.48,-0.769 0.861,-1.456 0.381,-0.687 0.793,-1.35 0.412,-0.663 0.783,-1.334 0.371,-0.671 0.749,-1.363 0.378,-0.692 0.886,-1.558 0.508,-0.866 1.156,-1.807 0.648,-0.941 1.298,-1.768 0.65,-0.827 1.348,-1.541 0.698,-0.714 1.439,-1.451 0.741,-0.737 1.387,-1.374 0.646,-0.637 1.25,-1.26 0.604,-0.623 1.28,-1.382 0.676,-0.759 1.263,-1.444 0.587,-0.685 1.275,-1.564 0.688,-0.879 1.343,-1.736 0.655,-0.857 1.25,-1.589 0.595,-0.732 1.24,-1.443 0.645,-0.711 1.393,-1.384 0.748,-0.673 1.55,-1.255 0.802,-0.582 1.582,-1.012 0.78,-0.43 1.61,-0.753 0.83,-0.323 1.772,-0.544 0.942,-0.221 1.82,-0.38 0.878,-0.159 1.742,-0.268 0.864,-0.109 1.644,-0.193 0.78,-0.084 1.617,-0.139 0.837,-0.055 1.764,-0.064 0.927,-0.009 1.954,0 1.027,0.009 2.07,0.016 1.043,0.007 2.023,0.035 0.98,0.028 2.011,0.195 1.031,0.167 2.045,0.386 1.014,0.219 1.946,0.438 0.932,0.219 1.937,0.574 1.005,0.355 1.886,0.733 0.881,0.378 1.714,0.808 0.833,0.43 1.557,0.86 0.724,0.43 1.398,0.854 0.674,0.424 1.38,0.845 0.706,0.421 1.428,0.85 0.722,0.429 1.488,0.862 0.766,0.433 1.635,0.92 0.869,0.487 1.712,1.012 0.843,0.525 1.648,0.99 0.805,0.465 1.594,0.871 0.789,0.406 1.564,0.761 0.775,0.355 1.549,0.677 0.774,0.322 1.62,0.652 0.846,0.33 2.029,0.697 1.183,0.367 2.332,0.704 1.149,0.337 2.267,0.783 1.118,0.446 1.954,0.773 0.836,0.327 1.863,0.723 1.027,0.396 1.893,0.826 0.866,0.43 1.609,0.838 0.743,0.408 1.405,0.76 0.662,0.352 1.334,0.766 0.672,0.414 1.525,1.022 0.853,0.608 1.605,1.076 0.752,0.468 1.513,0.915 0.761,0.447 1.53,0.883 0.769,0.436 1.48,0.795 0.711,0.359 1.414,0.724 0.703,0.365 1.512,0.765 0.809,0.4 1.708,0.998 0.899,0.598 1.631,1.195 0.732,0.597 1.28,1.088 0.548,0.491 1.141,1.058 0.593,0.567 1.168,1.186 0.575,0.619 1.076,1.431 0.501,0.812 0.695,1.813 0.194,1.001 0.234,1.908 0.04,0.907 -0.164,1.93 -0.204,1.023 -0.993,1.867 -0.789,0.844 -1.67,1.45 -0.881,0.606 -1.784,1.113 -0.903,0.507 -1.769,0.894 -0.866,0.387 -1.475,0.558 -0.609,0.171 -1.24,0.284 -0.631,0.113 -1.29,0.183 -0.659,0.07 -1.32,0.096 -0.661,0.026 -1.804,0.052 -1.143,0.026 -2.2,0.034 -1.057,0.008 -1.98,0.02 -0.923,0.012 -1.825,-0.03 -0.902,-0.042 -1.712,-0.142 -0.81,-0.1 -1.913,-0.311 -1.103,-0.211 -2.277,-0.416 -1.174,-0.205 -2.157,-0.344 -0.983,-0.139 -2.157,-0.317 -1.174,-0.178 -2.089,-0.357 -0.915,-0.179 -1.993,-0.481 -1.078,-0.302 -1.915,-0.613 -0.837,-0.311 -1.778,-0.672 -0.941,-0.361 -1.87,-0.648 -0.929,-0.287 -1.692,-0.474 -0.763,-0.187 -1.685,-0.336 -0.922,-0.149 -1.785,-0.3 -0.863,-0.151 -1.732,-0.291 -0.869,-0.14 -1.727,-0.312 -0.858,-0.172 -1.618,-0.276 -0.76,-0.104 -1.623,-0.256 -0.863,-0.152 -1.691,-0.259 -0.828,-0.107 -1.656,-0.167 -0.828,-0.06 -1.83,-0.155 -1.002,-0.095 -1.778,-0.141 -0.776,-0.046 -1.859,-0.174 -1.083,-0.128 -1.986,-0.183 -0.903,-0.055 -1.79,-0.065 -0.887,-0.01 -1.7,-0.002 -0.813,0.008 -1.592,0.227 -0.779,0.219 -1.525,0.532 -0.746,0.313 -1.43,0.615 -0.684,0.302 -1.377,0.633 -0.693,0.331 -1.512,0.82 -0.819,0.489 -1.625,1.076 -0.806,0.587 -1.49,1.16 -0.684,0.573 -1.402,1.19 -0.718,0.617 -1.418,1.278 -0.7,0.661 -1.4,1.384 -0.7,0.723 -1.456,1.621 -0.756,0.898 -1.515,1.778 -0.759,0.88 -1.524,1.721 -0.765,0.841 -1.24,1.278 -0.475,0.437 -1.31,1.134 -0.835,0.697 -1.334,1.08 -0.499,0.383 -1.263,0.958 -0.764,0.575 -1.69,1.205 -0.926,0.63 -1.762,1.229 -0.836,0.599 -1.597,1.142 -0.761,0.543 -1.528,1.03 -0.767,0.487 -1.424,0.915 -0.657,0.428 -1.325,0.862 -0.668,0.434 -1.43,0.883 -0.762,0.449 -1.68,0.949 -0.918,0.5 -1.473,0.789 -0.555,0.289 -1.326,0.761 -0.771,0.472 -1.588,0.985 -0.817,0.513 -1.687,1.016 -0.87,0.503 -1.766,0.994 -0.896,0.491 -1.859,0.976 -0.963,0.485 -1.787,0.889 -0.824,0.404 -1.664,0.789 -0.84,0.385 -1.73,0.672 -0.89,0.287 -1.83,0.44 -0.94,0.153 -2.061,0.025 -1.121,-0.128 -1.683,-0.54 -0.562,-0.412 -0.925,-0.954 -0.363,-0.542 -0.726,-1.48 -0.363,-0.938 -0.577,-1.942 -0.214,-1.004 -0.324,-2.092 -0.11,-1.088 -0.134,-2.231 -0.024,-1.143 -0.036,-2.052 -0.012,-0.909 -0.026,-1.683 -0.014,-0.774 0.02,-1.594 0.034,-0.82 0.36,-1.79 0.326,-0.97 0.687,-1.736 0.361,-0.766 0.822,-1.514 0.461,-0.748 0.957,-1.462 0.496,-0.714 1.672,-2.007 1.176,-1.293 1.94,-1.458 0.764,-0.165 1.21,0.476 0.446,0.641 0.024,1.3 -0.422,0.659 -1.193,0.52 -0.771,-0.139 -0.936,-0.903 -0.165,-0.764 0.476,-1.21 0.641,-0.446 1.3,-0.024 0.659,0.422 0.52,1.192 -0.139,0.77 -1.115,1.968 -0.976,1.198 -1.426,1.84 -0.45,0.642 -0.835,1.248 -0.385,0.606 -0.713,1.277 -0.328,0.671 -0.591,1.524 -0.263,0.853 -0.275,1.585 -0.012,0.732 -0.014,1.544 -0.002,0.812 0.017,1.809 0.019,0.997 0.09,2.002 0.071,1.005 0.204,1.897 0.133,0.892 0.351,1.613 0.218,0.721 0.586,1.428 0.368,0.707 1.083,0.657 0.715,-0.05 1.436,-0.199 0.721,-0.149 1.45,-0.422 0.729,-0.273 1.54,-0.665 0.811,-0.392 1.682,-0.806 0.871,-0.414 1.776,-0.915 0.905,-0.501 1.775,-0.996 0.87,-0.495 1.615,-0.924 0.745,-0.429 1.58,-0.957 0.835,-0.528 1.809,-1.1 0.974,-0.572 1.875,-1.082 0.901,-0.51 1.629,-0.933 0.728,-0.423 1.385,-0.825 0.657,-0.402 1.361,-0.835 0.704,-0.433 1.41,-0.853 0.706,-0.42 1.455,-0.929 0.749,-0.509 1.608,-1.12 0.859,-0.611 1.754,-1.225 0.895,-0.614 1.637,-1.143 0.742,-0.529 1.638,-1.253 0.896,-0.724 1.645,-1.386 0.749,-0.662 1.473,-1.465 0.724,-0.803 1.446,-1.66 0.722,-0.857 1.477,-1.805 0.755,-0.948 1.516,-1.756 0.761,-0.808 1.546,-1.56 0.785,-0.752 1.51,-1.379 0.725,-0.627 1.432,-1.211 0.707,-0.584 1.656,-1.302 0.949,-0.718 1.875,-1.29 0.926,-0.572 1.693,-0.926 0.767,-0.354 1.447,-0.635 0.68,-0.281 1.541,-0.626 0.861,-0.345 2.074,-0.66 1.213,-0.315 2.072,-0.311 0.859,0.004 1.788,0.019 0.929,0.015 1.941,0.077 1.012,0.062 2.054,0.154 1.042,0.092 1.8,0.153 0.758,0.061 1.721,0.14 0.963,0.079 1.949,0.15 0.986,0.071 1.862,0.19 0.876,0.119 1.704,0.268 0.828,0.149 1.64,0.276 0.812,0.127 1.597,0.299 0.785,0.172 1.672,0.32 0.887,0.148 1.773,0.318 0.886,0.17 1.863,0.326 0.977,0.156 1.854,0.4 0.877,0.244 1.873,0.55 0.996,0.306 1.951,0.674 0.955,0.368 1.718,0.672 0.763,0.304 1.704,0.57 0.941,0.266 1.757,0.45 0.816,0.184 1.97,0.34 1.154,0.156 2.182,0.304 1.028,0.148 1.635,0.242 0.607,0.094 1.765,0.274 1.158,0.18 2.024,0.318 0.866,0.138 1.608,0.24 0.742,0.102 1.545,0.118 0.803,0.016 1.824,0.012 1.021,-0.004 2.07,-0.017 1.049,-0.013 2.19,-0.085 1.141,-0.072 2.198,-0.253 1.057,-0.181 1.894,-0.478 0.837,-0.297 1.531,-0.65 0.694,-0.353 1.448,-0.834 0.754,-0.481 1.59,-1.104 0.836,-0.623 0.839,-1.386 0.003,-0.763 -0.052,-1.437 -0.055,-0.674 -0.333,-1.342 -0.278,-0.668 -0.821,-1.24 -0.543,-0.572 -1.016,-1.058 -0.473,-0.486 -1.055,-1.011 -0.582,-0.525 -1.134,-1.004 -0.552,-0.479 -1.282,-0.954 -0.73,-0.475 -1.544,-0.88 -0.814,-0.405 -1.525,-0.776 -0.711,-0.371 -1.478,-0.782 -0.767,-0.411 -1.548,-0.848 -0.781,-0.437 -1.569,-0.916 -0.788,-0.479 -1.575,-0.963 -0.787,-0.484 -1.656,-1.088 -0.869,-0.604 -1.445,-0.97 -0.576,-0.366 -1.226,-0.752 -0.65,-0.386 -1.349,-0.785 -0.699,-0.399 -1.431,-0.801 -0.732,-0.402 -1.702,-0.765 -0.97,-0.363 -1.94,-0.774 -0.97,-0.411 -1.88,-0.765 -0.91,-0.354 -2.003,-0.663 -1.093,-0.309 -1.839,-0.463 -0.746,-0.154 -1.813,-0.513 -1.067,-0.359 -1.931,-0.695 -0.864,-0.336 -1.65,-0.702 -0.786,-0.366 -1.645,-0.77 -0.859,-0.404 -1.685,-0.877 -0.826,-0.473 -1.708,-0.97 -0.882,-0.497 -1.661,-0.981 -0.779,-0.484 -1.65,-0.93 -0.871,-0.446 -1.634,-0.904 -0.763,-0.458 -1.475,-0.878 -0.712,-0.42 -1.428,-0.879 -0.716,-0.459 -1.357,-0.86 -0.641,-0.401 -1.313,-0.808 -0.672,-0.407 -1.451,-0.763 -0.779,-0.356 -1.595,-0.712 -0.816,-0.356 -1.685,-0.581 -0.869,-0.225 -1.785,-0.447 -0.916,-0.222 -1.88,-0.39 -0.964,-0.168 -1.77,-0.266 -0.806,-0.098 -1.786,-0.083 -0.98,0.015 -2.07,0.021 -1.09,0.006 -2.071,0.036 -0.981,0.03 -1.701,0.036 -0.72,0.006 -1.511,0.089 -0.791,0.083 -1.553,0.136 -0.762,0.053 -1.556,0.187 -0.794,0.134 -1.657,0.298 -0.863,0.164 -1.518,0.344 -0.655,0.18 -1.279,0.455 -0.624,0.275 -1.293,0.679 -0.669,0.404 -1.328,0.943 -0.659,0.539 -1.284,1.144 -0.625,0.605 -1.194,1.247 -0.569,0.642 -1.185,1.406 -0.616,0.764 -1.261,1.654 -0.645,0.89 -1.37,1.813 -0.725,0.923 -1.303,1.547 -0.578,0.624 -1.34,1.481 -0.762,0.857 -1.34,1.401 -0.578,0.544 -1.313,1.305 -0.735,0.761 -1.396,1.399 -0.661,0.638 -1.256,1.296 -0.595,0.658 -1.148,1.47 -0.553,0.812 -1.096,1.682 -0.543,0.87 -0.935,1.594 -0.392,0.724 -0.83,1.495 -0.438,0.771 -0.84,1.41 -0.402,0.639 -0.802,1.267 -0.4,0.628 -0.846,1.371 -0.446,0.743 -1.044,1.674 -0.598,0.931 -1.151,1.85 -0.553,0.919 -1,1.663 -0.447,0.744 -0.908,1.566 -0.461,0.822 -0.97,1.643 -0.509,0.821 -0.915,1.484 -0.406,0.663 -0.94,1.481 -0.534,0.818 -1.186,1.846 -0.652,1.028 -1.232,1.843 -0.58,0.815 -1.175,1.64 -0.595,0.825 -1.111,1.62 -0.516,0.795 -0.884,1.457 -0.368,0.662 -0.69,1.581 -0.322,0.919 -0.447,1.587 -0.125,0.668 -0.241,0.931 -0.116,0.263 -0.308,0.439 -0.192,0.176 -0.452,0.287 -0.26,0.111 -0.528,0.093 -0.268,-0.018 -0.523,-0.116 -0.255,-0.098 -0.439,-0.308 -0.184,-0.21 -0.287,-0.452 -0.103,-0.242 -0.093,-0.528 z"
     opacity="0.1"
     id="path9"
     style="fill:#1d1d1d;fill-opacity:0.276119;stroke:none" />
  <path
     fill="#1d1d1d"
     stroke="#1d1d1d"
     d="m 611.953,114.272 q 0.646,0.989 1.22,1.764 0.574,0.775 1.065,1.414 0.491,0.639 0.955,1.302 0.464,0.663 0.945,1.403 0.481,0.74 0.964,1.547 0.483,0.807 0.918,1.453 0.435,0.646 0.86,1.264 0.425,0.618 0.837,1.171 0.412,0.553 1.721,2.24 1.309,1.687 1.364,2.481 0.055,0.794 -0.661,1.153 -0.716,0.359 -1.318,-0.17 -0.602,-0.529 -0.348,-1.282 0.254,-0.753 1.052,-0.812 0.798,-0.059 1.153,0.661 0.355,0.72 -0.17,1.318 -0.525,0.598 -1.283,0.348 -0.758,-0.25 -2.132,-1.92 -1.374,-1.67 -1.824,-2.298 -0.45,-0.628 -0.867,-1.262 -0.417,-0.634 -0.856,-1.308 -0.439,-0.674 -0.91,-1.463 -0.471,-0.789 -0.956,-1.534 -0.485,-0.745 -0.883,-1.356 -0.398,-0.611 -0.871,-1.252 -0.473,-0.641 -1.073,-1.464 -0.6,-0.823 -0.942,-1.3 -0.342,-0.477 -0.45,-0.742 -0.108,-0.265 -0.11,-0.539 -0.002,-0.274 0.103,-0.54 0.105,-0.266 0.303,-0.46 0.198,-0.194 0.455,-0.309 0.257,-0.115 0.54,-0.11 0.283,0.005 0.54,0.103 0.257,0.098 0.46,0.303 z m 92.014,-22.094 q -0.358,1.312 -0.553,1.908 -0.195,0.596 -0.579,1.622 -0.384,1.026 -0.775,1.978 -0.391,0.952 -0.726,1.789 -0.335,0.837 -0.626,1.563 -0.291,0.726 -0.656,1.505 -0.365,0.779 -0.763,1.573 -0.398,0.794 -0.69,1.483 -0.292,0.689 -1.155,2.679 -0.863,1.99 -1.511,2.428 -0.648,0.438 -1.301,0.008 -0.653,-0.43 -0.506,-1.2 0.147,-0.77 0.915,-0.925 0.768,-0.155 1.205,0.49 0.437,0.645 0.008,1.302 -0.429,0.657 -1.2,0.505 -0.771,-0.152 -0.925,-0.914 -0.154,-0.762 0.51,-2.497 0.664,-1.735 0.973,-2.394 0.309,-0.659 0.697,-1.492 0.388,-0.833 0.768,-1.556 0.38,-0.723 0.689,-1.4 0.309,-0.677 0.664,-1.476 0.355,-0.799 0.72,-1.64 0.365,-0.841 0.74,-1.778 0.375,-0.937 0.715,-1.92 0.34,-0.983 0.486,-1.645 0.146,-0.662 0.26,-0.913 0.114,-0.251 0.317,-0.434 0.203,-0.183 0.46,-0.28 0.257,-0.097 0.533,-0.082 0.276,0.015 0.523,0.128 0.247,0.113 0.434,0.318 0.187,0.205 0.28,0.46 0.093,0.255 0.081,0.533 z M 561.263,322.01 q -1.272,-0.353 -2.238,-0.592 -0.966,-0.239 -1.777,-0.428 -0.811,-0.189 -1.557,-0.364 -0.746,-0.175 -1.64,-0.452 -0.894,-0.277 -1.674,-0.546 -0.78,-0.269 -1.385,-0.448 -0.605,-0.179 -1.372,-0.38 -0.767,-0.201 -1.66,-0.433 -0.893,-0.232 -1.797,-0.462 -0.904,-0.23 -1.74,-0.437 -0.836,-0.207 -1.823,-0.465 -0.987,-0.258 -1.94,-0.499 -0.953,-0.241 -1.756,-0.436 -0.803,-0.195 -1.592,-0.384 -0.789,-0.189 -1.702,-0.422 -0.913,-0.233 -1.925,-0.494 -1.012,-0.261 -1.984,-0.51 -0.972,-0.249 -1.789,-0.443 -0.817,-0.194 -1.657,-0.401 -0.84,-0.207 -1.657,-0.405 -0.817,-0.198 -1.594,-0.387 -0.777,-0.189 -1.534,-0.371 -0.757,-0.182 -1.501,-0.364 -0.744,-0.182 -1.586,-0.392 -0.842,-0.21 -1.746,-0.417 -0.904,-0.207 -1.821,-0.325 -0.917,-0.118 -1.817,-0.243 -0.9,-0.125 -1.644,-0.225 -0.744,-0.1 -1.565,-0.258 -0.821,-0.158 -1.494,-0.286 -0.673,-0.128 -1.438,-0.267 -0.765,-0.139 -1.5,-0.3 -0.735,-0.161 -1.436,-0.33 -0.701,-0.169 -1.38,-0.332 -0.679,-0.163 -1.406,-0.344 -0.727,-0.181 -1.411,-0.348 -0.684,-0.167 -1.44,-0.358 -0.756,-0.191 -1.574,-0.436 -0.818,-0.245 -1.63,-0.898 -0.812,-0.653 -1.3,-1.549 -0.488,-0.896 -0.518,-1.89 -0.03,-0.994 0.118,-1.761 0.148,-0.767 0.385,-1.58 0.237,-0.813 1.133,-1.662 0.896,-0.849 1.57,-1.137 0.674,-0.288 1.611,-0.547 0.937,-0.259 1.954,-0.274 1.017,-0.015 1.83,-0.094 0.813,-0.079 1.446,-0.28 0.633,-0.201 0.186,-0.871 -0.447,-0.67 -0.777,-1.83 -0.33,-1.16 0.02,-2.195 0.35,-1.035 0.995,-1.74 0.645,-0.705 3.263,-0.848 2.618,-0.143 3.207,0.438 0.589,0.581 0.283,1.364 -0.306,0.783 -1.152,0.784 -0.846,10e-4 -1.164,-0.764 -0.318,-0.765 0.26,-1.369 0.578,-0.604 1.364,-0.283 0.786,0.321 0.783,1.152 -0.003,0.831 -0.764,1.165 -0.761,0.334 -2.242,0.296 -1.481,-0.038 -1.806,0.546 -0.325,0.584 0.137,1.1 0.462,0.516 0.942,1.409 0.48,0.893 0.471,1.573 -0.009,0.68 -0.347,1.312 -0.338,0.632 -1.25,1.088 -0.912,0.456 -1.59,0.67 -0.678,0.214 -1.608,0.344 -0.93,0.13 -1.838,0.095 -0.908,-0.035 -1.592,0.143 -0.684,0.178 -1.52,0.693 -0.836,0.515 -0.986,1.142 -0.15,0.627 -0.245,1.297 -0.095,0.67 0.247,1.244 0.342,0.574 1.023,0.777 0.681,0.203 1.421,0.38 0.74,0.177 1.44,0.36 0.7,0.183 1.408,0.355 0.708,0.172 1.398,0.352 0.69,0.18 1.36,0.342 0.67,0.162 1.37,0.333 0.7,0.171 1.42,0.298 0.72,0.127 1.448,0.29 0.728,0.163 1.405,0.298 0.677,0.135 1.498,0.268 0.821,0.133 1.655,0.242 0.834,0.109 1.846,0.238 1.012,0.129 1.992,0.33 0.98,0.201 1.836,0.416 0.856,0.215 1.585,0.398 0.729,0.183 1.496,0.384 0.767,0.201 1.528,0.392 0.761,0.191 1.59,0.407 0.829,0.216 1.653,0.42 0.824,0.204 1.652,0.424 0.828,0.22 1.787,0.448 0.959,0.228 1.991,0.482 1.032,0.254 1.932,0.467 0.9,0.213 1.701,0.427 0.801,0.214 1.586,0.407 0.785,0.193 1.755,0.44 0.97,0.247 1.948,0.47 0.978,0.223 1.828,0.447 0.85,0.224 1.744,0.433 0.894,0.209 1.814,0.448 0.92,0.239 1.72,0.443 0.8,0.204 1.562,0.467 0.762,0.263 1.43,0.499 0.668,0.236 1.458,0.5 0.79,0.264 1.52,0.447 0.73,0.183 1.544,0.41 0.814,0.227 1.771,0.455 0.957,0.228 1.609,0.386 0.652,0.158 0.897,0.261 0.245,0.103 0.44,0.326 0.195,0.223 0.283,0.47 0.088,0.247 0.081,0.542 -0.007,0.295 -0.133,0.532 -0.126,0.237 -0.325,0.44 -0.199,0.203 -0.47,0.283 -0.271,0.08 -0.542,0.08 z"
     opacity="0.1"
     id="path11"
     style="fill:#1d1d1d;fill-opacity:0.276119;stroke:none" />
  <path
     fill="#1d1d1d"
     stroke="#1d1d1d"
     d="m 560.34,317.883 q 1.114,0.297 1.83,0.367 0.716,0.07 1.398,-0.092 0.682,-0.162 1.337,-0.367 0.655,-0.205 0.458,-0.825 -0.197,-0.62 -0.636,-1.2 -0.439,-0.58 -0.941,-1.214 -0.502,-0.634 -1.02,-1.128 -0.518,-0.494 -1.068,-0.943 -0.55,-0.449 -1.112,-0.792 -0.562,-0.343 -1.196,-0.638 -0.634,-0.295 -1.183,-1.141 -0.549,-0.846 -0.121,-1.833 0.428,-0.987 0.934,-1.52 0.506,-0.533 0.585,-1.27 0.079,-0.737 -0.438,-1.336 -0.517,-0.599 -1.296,-1.083 -0.779,-0.484 -1.485,-0.819 -0.706,-0.335 -1.454,-0.75 -0.748,-0.415 -1.546,-0.887 -0.798,-0.472 -1.516,-0.856 -0.718,-0.384 -1.358,-0.706 -0.64,-0.322 -2.564,-0.955 -1.924,-0.633 -2.455,-1.233 -0.531,-0.6 -0.181,-1.322 0.35,-0.722 1.152,-0.673 0.802,0.049 1.062,0.807 0.26,0.758 -0.339,1.29 -0.599,0.532 -1.321,0.18 -0.722,-0.352 -0.673,-1.151 0.049,-0.799 0.807,-1.062 0.758,-0.263 2.627,0.239 1.869,0.502 2.578,0.83 0.709,0.328 1.4,0.702 0.691,0.374 1.51,0.813 0.819,0.439 1.572,0.865 0.753,0.426 1.396,0.753 0.643,0.327 1.41,0.712 0.767,0.385 1.504,0.876 0.737,0.491 1.35,1.152 0.613,0.661 1.086,1.499 0.473,0.838 0.595,1.47 0.122,0.632 -0.025,1.263 -0.147,0.631 -0.557,1.312 -0.41,0.681 -1.212,1.361 -0.802,0.68 -1.019,0.053 -0.217,-0.627 0.572,-0.269 0.789,0.358 1.495,0.807 0.706,0.449 1.357,0.986 0.651,0.537 1.3,1.168 0.649,0.631 1.149,1.262 0.5,0.631 1.092,1.413 0.592,0.782 1.018,1.775 0.426,0.993 0.187,2.08 -0.239,1.087 -1.077,1.8 -0.838,0.713 -1.617,0.945 -0.779,0.232 -1.723,0.407 -0.944,0.175 -2.073,0.068 -1.129,-0.107 -1.695,-0.244 -0.566,-0.137 -0.818,-0.251 -0.252,-0.114 -0.447,-0.33 -0.195,-0.216 -0.286,-0.476 -0.091,-0.26 -0.082,-0.55 0.009,-0.29 0.135,-0.538 0.126,-0.248 0.33,-0.447 0.204,-0.199 0.476,-0.286 0.272,-0.087 0.55,-0.082 z M 512.703,287.38 q 1.114,0.256 1.885,0.216 0.771,-0.04 1.467,-0.177 0.696,-0.137 1.39,-0.725 0.694,-0.588 1.132,-1.241 0.438,-0.653 0.869,-1.304 0.431,-0.651 0.782,-1.245 0.351,-0.594 0.636,-1.483 0.285,-0.889 0.475,-1.599 0.19,-0.71 0.377,-1.465 0.187,-0.755 0.37,-1.477 0.183,-0.722 0.347,-1.41 0.164,-0.688 0.405,-1.459 0.241,-0.771 0.578,-1.534 0.337,-0.763 0.638,-1.52 0.301,-0.757 1.052,-2.491 0.751,-1.734 1.37,-2.17 0.619,-0.436 1.25,-0.032 0.631,0.404 0.507,1.141 -0.124,0.737 -0.86,0.906 -0.736,0.169 -1.167,-0.448 -0.431,-0.617 -0.032,-1.25 0.399,-0.633 1.142,-0.507 0.743,0.126 0.906,0.86 0.163,0.734 -0.445,2.584 -0.608,1.85 -0.919,2.657 -0.311,0.807 -0.6,1.452 -0.289,0.645 -0.483,1.255 -0.194,0.61 -0.367,1.299 -0.173,0.689 -0.359,1.412 -0.186,0.723 -0.379,1.49 -0.193,0.767 -0.397,1.518 -0.204,0.751 -0.46,1.555 -0.256,0.804 -0.636,1.556 -0.38,0.752 -0.81,1.398 -0.43,0.646 -0.892,1.34 -0.462,0.694 -0.974,1.384 -0.512,0.69 -1.398,1.347 -0.886,0.657 -1.75,0.868 -0.864,0.211 -1.846,0.303 -0.982,0.092 -1.63,0.072 -0.648,-0.02 -1.21,-0.13 -0.562,-0.11 -0.826,-0.223 -0.264,-0.113 -0.457,-0.314 -0.193,-0.201 -0.302,-0.465 -0.109,-0.264 -0.1,-0.545 0.009,-0.281 0.115,-0.542 0.106,-0.261 0.314,-0.457 0.208,-0.196 0.465,-0.302 0.257,-0.106 0.545,-0.101 z"
     opacity="0.1"
     id="path13"
     style="fill:#1d1d1d;fill-opacity:0.276119;stroke:none" />
  <path
     fill="#1d1d1d"
     stroke="#1d1d1d"
     d="m 545.976,296.837 q -0.624,-1.278 -0.84,-1.912 -0.216,-0.634 -0.42,-1.628 -0.204,-0.994 -0.191,-1.904 0.013,-0.91 0.118,-1.788 0.105,-0.878 0.19,-1.786 0.085,-0.908 0.264,-1.804 0.179,-0.896 0.338,-1.62 0.159,-0.724 0.362,-1.554 0.203,-0.83 0.238,-1.517 0.035,-0.687 0.077,-1.452 0.042,-0.765 0.206,-1.767 0.164,-1.002 0.316,-1.929 0.152,-0.927 0.353,-1.86 0.201,-0.933 0.32,-1.714 0.119,-0.781 0.235,-1.477 0.116,-0.696 0.249,-1.455 0.133,-0.759 0.623,-2.6 0.49,-1.841 1.07,-2.374 0.58,-0.533 1.295,-0.198 0.715,0.335 0.678,1.121 -0.037,0.786 -0.776,1.056 -0.739,0.27 -1.272,-0.314 -0.533,-0.584 -0.197,-1.295 0.336,-0.711 1.12,-0.678 0.784,0.033 1.056,0.777 0.272,0.744 -0.041,2.212 -0.313,1.468 -0.46,2.13 -0.147,0.662 -0.272,1.425 -0.125,0.763 -0.268,1.45 -0.143,0.687 -0.306,1.608 -0.163,0.921 -0.33,1.78 -0.167,0.859 -0.314,1.803 -0.147,0.944 -0.216,1.701 -0.069,0.757 -0.13,1.552 -0.061,0.795 -0.223,1.78 -0.162,0.985 -0.349,1.704 -0.187,0.719 -0.354,1.451 -0.167,0.732 -0.317,1.53 -0.15,0.798 -0.218,1.745 -0.068,0.947 -0.173,1.628 -0.105,0.681 -0.098,1.31 0.007,0.629 0.238,1.462 0.231,0.833 0.587,1.45 0.356,0.617 0.433,0.88 0.077,0.263 0.052,0.544 -0.025,0.281 -0.16,0.522 -0.135,0.241 -0.348,0.421 -0.213,0.18 -0.482,0.256 -0.269,0.076 -0.544,0.052 -0.275,-0.024 -0.522,-0.16 -0.247,-0.136 -0.421,-0.348 z"
     opacity="0.1"
     id="path15"
     style="fill:#1d1d1d;fill-opacity:0.276119;stroke:none" />
  <path
     fill="#1d1d1d"
     stroke="#1d1d1d"
     d="m 525.197,268.262 q 0.3,-1.337 0.506,-2.309 0.206,-0.972 0.382,-1.765 0.176,-0.793 0.343,-1.522 0.167,-0.729 0.33,-1.427 0.163,-0.698 0.002,-1.341 -0.161,-0.643 -0.922,-0.956 -0.761,-0.313 -1.38,-0.553 -0.619,-0.24 -1.274,-0.506 -0.655,-0.266 -1.344,-0.596 -0.689,-0.33 -1.327,-0.59 -0.638,-0.26 -1.37,-1.05 -0.732,-0.79 -1.028,-1.72 -0.296,-0.93 -0.285,-1.842 0.011,-0.912 0.43,-1.915 0.419,-1.003 0.948,-1.354 0.529,-0.351 1.487,-0.577 0.958,-0.226 1.89,-0.177 0.932,0.049 1.722,0.208 0.79,0.159 1.489,0.322 0.699,0.163 1.498,0.366 0.799,0.203 1.582,0.4 0.783,0.197 1.522,0.383 0.739,0.186 1.537,0.388 0.798,0.202 1.558,0.393 0.76,0.191 1.518,0.38 0.758,0.189 1.552,0.39 0.794,0.201 1.668,0.365 0.874,0.164 1.698,0.35 0.824,0.186 1.565,0.364 0.741,0.178 1.504,0.345 0.763,0.167 1.682,0.348 0.919,0.181 1.815,0.391 0.896,0.21 1.682,0.4 0.786,0.19 1.554,0.376 0.768,0.186 1.434,0.316 0.666,0.13 1.335,0.21 0.669,0.08 1.334,0.097 0.665,0.017 1.445,0.093 0.78,0.076 1.583,0.212 0.803,0.136 1.698,0.465 0.895,0.329 1.637,0.821 0.742,0.492 1.436,1.026 0.694,0.534 1.321,1.239 0.627,0.705 0.78,1.805 0.153,1.1 -0.148,1.763 -0.301,0.663 -0.882,1.091 -0.581,0.428 -1.663,0.638 -1.082,0.21 -2.148,0.259 -1.066,0.049 -2.037,0.123 -0.971,0.074 -1.678,0.182 -0.707,0.108 -2.285,0.953 -1.578,0.845 -2.37,0.944 -0.792,0.099 -1.177,-0.59 -0.385,-0.689 0.093,-1.311 0.478,-0.622 1.249,-0.416 0.771,0.206 0.861,0.994 0.09,0.788 -0.589,1.177 -0.679,0.389 -1.312,-0.094 -0.633,-0.483 -0.415,-1.248 0.218,-0.765 2.057,-1.91 1.839,-1.145 2.664,-1.31 0.825,-0.165 1.71,-0.252 0.885,-0.087 1.978,-0.197 1.093,-0.11 1.883,-0.545 0.79,-0.435 0.227,-0.872 -0.563,-0.437 -1.328,-0.929 -0.765,-0.492 -1.37,-0.638 -0.605,-0.146 -1.338,-0.227 -0.733,-0.081 -1.376,-0.137 -0.643,-0.056 -1.458,-0.113 -0.815,-0.057 -1.583,-0.19 -0.768,-0.133 -1.513,-0.317 -0.745,-0.184 -1.52,-0.382 -0.775,-0.198 -1.58,-0.387 -0.805,-0.189 -1.655,-0.373 -0.85,-0.184 -1.785,-0.345 -0.935,-0.161 -1.7,-0.354 -0.765,-0.193 -1.493,-0.365 -0.728,-0.172 -1.549,-0.345 -0.821,-0.173 -1.797,-0.357 -0.976,-0.184 -1.703,-0.371 -0.727,-0.187 -1.498,-0.373 -0.771,-0.186 -1.54,-0.381 -0.769,-0.195 -1.562,-0.384 -0.793,-0.189 -1.516,-0.374 -0.723,-0.185 -1.55,-0.378 -0.827,-0.193 -1.525,-0.365 -0.698,-0.172 -1.373,-0.32 -0.675,-0.148 -1.48,-0.264 -0.805,-0.116 -1.415,0.07 -0.61,0.186 -0.595,0.867 0.015,0.681 0.383,1.198 0.368,0.517 1.087,0.828 0.719,0.311 1.323,0.583 0.604,0.272 1.25,0.543 0.646,0.271 1.314,0.565 0.668,0.294 1.521,0.812 0.853,0.518 1.358,1.5 0.505,0.982 0.559,2.012 0.054,1.03 -0.143,1.732 -0.197,0.702 -0.372,1.415 -0.175,0.713 -0.384,1.48 -0.209,0.767 -0.4,1.694 -0.191,0.927 -0.312,1.603 -0.121,0.676 -0.214,0.938 -0.093,0.262 -0.303,0.46 -0.21,0.198 -0.456,0.31 -0.246,0.112 -0.54,0.111 -0.294,-0.001 -0.541,-0.104 -0.247,-0.103 -0.46,-0.303 -0.213,-0.2 -0.31,-0.456 -0.097,-0.256 -0.111,-0.54 z"
     opacity="0.1"
     id="path17"
     style="fill:#1d1d1d;fill-opacity:0.276119;stroke:none" />
  <path
     fill="#1d1d1d"
     stroke="#1d1d1d"
     d="m 530.936,249.608 q 0.305,-1.134 0.264,-1.955 -0.041,-0.821 -0.345,-1.44 -0.304,-0.619 -0.833,-1.382 -0.529,-0.763 -0.982,-1.292 -0.453,-0.529 -0.958,-1.237 -0.505,-0.708 -0.953,-1.502 -0.448,-0.794 -0.831,-1.758 -0.383,-0.964 -0.645,-1.976 -0.262,-1.012 -0.406,-2.2 -0.144,-1.188 -0.17,-1.868 -0.026,-0.68 -0.012,-1.782 0.014,-1.102 0.128,-2.31 0.114,-1.208 0.342,-2.36 0.228,-1.152 0.48,-2.228 0.252,-1.076 0.484,-2.05 0.232,-0.974 0.709,-1.98 0.477,-1.006 1.159,-1.744 0.682,-0.738 1.548,-1.415 0.866,-0.677 1.695,-1.201 0.829,-0.524 1.496,-0.95 0.667,-0.426 1.468,-0.864 0.801,-0.438 1.837,-0.852 1.036,-0.414 1.954,-0.732 0.918,-0.318 1.906,-0.583 0.988,-0.265 2.092,-0.43 1.104,-0.165 2.243,-0.28 1.139,-0.115 2.149,-0.16 1.01,-0.045 1.968,-0.013 0.958,0.032 1.832,0.12 0.874,0.088 1.855,0.274 0.981,0.186 1.854,0.391 0.873,0.205 1.684,0.393 0.811,0.188 1.569,0.374 0.758,0.186 1.557,0.39 0.799,0.204 1.838,0.751 1.039,0.547 1.86,1.218 0.821,0.671 1.449,1.427 0.628,0.756 1.088,1.68 0.46,0.924 0.808,1.957 0.348,1.033 0.56,2.034 0.212,1.001 0.392,2.03 0.18,1.029 0.345,1.963 0.165,0.934 0.283,1.847 0.118,0.913 0.118,1.832 0,0.919 -0.116,1.807 -0.116,0.888 -0.335,1.816 -0.219,0.928 -0.476,1.961 -0.257,1.033 -0.578,1.934 -0.321,0.901 -0.842,1.801 -0.521,0.9 -1.167,1.722 -0.646,0.822 -1.161,1.455 -0.515,0.633 -1.105,1.273 -0.59,0.64 -1.301,1.198 -0.711,0.558 -1.659,0.901 -0.948,0.343 -1.674,0.65 -0.726,0.307 -1.167,0.872 -0.441,0.565 -0.708,1.127 -0.267,0.562 -0.537,1.174 -0.27,0.612 -0.93,2.585 -0.66,1.973 -1.278,2.505 -0.618,0.532 -1.343,0.17 -0.725,-0.362 -0.671,-1.175 0.054,-0.813 0.829,-1.07 0.775,-0.257 1.305,0.356 0.53,0.613 0.17,1.343 -0.36,0.73 -1.174,0.671 -0.814,-0.059 -1.07,-0.828 -0.256,-0.769 0.253,-2.518 0.509,-1.749 0.798,-2.555 0.289,-0.806 0.61,-1.462 0.321,-0.656 0.756,-1.384 0.435,-0.728 1.109,-1.4 0.674,-0.672 1.532,-1.074 0.858,-0.402 1.658,-0.603 0.8,-0.201 1.311,-0.564 0.511,-0.363 1.005,-0.896 0.494,-0.533 1.011,-1.129 0.517,-0.596 1.073,-1.324 0.556,-0.728 0.96,-1.39 0.404,-0.662 0.657,-1.346 0.253,-0.684 0.488,-1.699 0.235,-1.015 0.428,-1.876 0.193,-0.861 0.307,-1.535 0.114,-0.674 0.12,-1.431 0.006,-0.757 -0.07,-1.512 -0.076,-0.755 -0.259,-1.728 -0.183,-0.973 -0.355,-1.937 -0.172,-0.964 -0.373,-1.853 -0.201,-0.889 -0.459,-1.683 -0.258,-0.794 -0.59,-1.492 -0.332,-0.698 -0.775,-1.258 -0.443,-0.56 -1.008,-1.036 -0.565,-0.476 -1.258,-0.856 -0.693,-0.38 -1.448,-0.583 -0.755,-0.203 -1.498,-0.397 -0.743,-0.194 -1.55,-0.395 -0.807,-0.201 -1.637,-0.403 -0.83,-0.202 -1.679,-0.371 -0.849,-0.169 -1.653,-0.263 -0.804,-0.094 -1.632,-0.141 -0.828,-0.047 -1.773,-0.007 -0.945,0.04 -1.979,0.157 -1.034,0.117 -2.025,0.283 -0.991,0.166 -1.811,0.376 -0.82,0.21 -1.69,0.513 -0.87,0.303 -1.786,0.677 -0.916,0.374 -1.613,0.752 -0.697,0.378 -1.369,0.775 -0.672,0.397 -1.407,0.853 -0.735,0.456 -1.473,1.03 -0.738,0.574 -1.384,1.272 -0.646,0.698 -0.907,1.487 -0.261,0.789 -0.507,1.83 -0.246,1.041 -0.475,2.072 -0.229,1.031 -0.375,2.079 -0.146,1.048 -0.185,2.106 -0.039,1.058 0.018,2.12 0.057,1.062 0.213,2.11 0.156,1.048 0.37,1.837 0.214,0.789 0.502,1.543 0.288,0.754 0.672,1.426 0.384,0.672 0.766,1.247 0.382,0.575 0.896,1.179 0.514,0.604 1.006,1.31 0.492,0.706 0.842,1.407 0.35,0.701 0.68,1.658 0.33,0.957 0.245,2.065 -0.085,1.108 -0.224,1.682 -0.139,0.574 -0.253,0.829 -0.114,0.255 -0.33,0.446 -0.216,0.191 -0.477,0.286 -0.261,0.095 -0.549,0.083 -0.288,-0.012 -0.54,-0.135 -0.252,-0.123 -0.446,-0.33 -0.194,-0.207 -0.286,-0.477 -0.092,-0.27 -0.082,-0.55 z m -6.419,39.208 q 1.548,0.453 2.225,0.632 0.677,0.179 1.35,0.355 0.673,0.176 1.324,0.341 0.651,0.165 1.783,0.436 1.132,0.271 2.105,0.492 0.973,0.221 1.84,0.417 0.867,0.196 2.611,0.56 1.744,0.364 2.26,0.879 0.516,0.515 0.236,1.184 -0.28,0.669 -1.004,0.672 -0.724,0.003 -1.005,-0.67 -0.281,-0.673 0.235,-1.185 0.516,-0.512 1.185,-0.237 0.669,0.275 0.671,1.004 0.002,0.729 -0.67,1.005 -0.672,0.276 -2.487,-0.064 -1.815,-0.34 -2.673,-0.578 -0.858,-0.238 -1.82,-0.495 -0.962,-0.257 -2.09,-0.553 -1.128,-0.296 -1.779,-0.453 -0.651,-0.157 -1.329,-0.32 -0.678,-0.163 -1.36,-0.32 -0.682,-0.157 -1.47,-0.324 -0.788,-0.167 -1.028,-0.275 -0.24,-0.108 -0.415,-0.307 -0.175,-0.199 -0.265,-0.442 -0.09,-0.243 -0.076,-0.51 0.014,-0.267 0.124,-0.5 0.11,-0.233 0.307,-0.415 0.197,-0.182 0.442,-0.265 0.245,-0.083 0.51,-0.076 z m 57.306,-323.205 q -1.067,-0.084 -2.136,-0.124 -1.069,-0.04 -1.881,-0.036 -0.812,0.004 -1.586,0.011 -0.774,0.007 -1.562,0.016 -0.788,0.009 -1.655,0.048 -0.867,0.039 -1.802,0.239 -0.935,0.2 -1.71,0.481 -0.775,0.281 -1.612,0.631 -0.837,0.35 -1.717,0.776 -0.88,0.426 -1.483,0.837 -0.603,0.411 -1.09,0.869 -0.487,0.458 -1.037,1.005 -0.55,0.547 -1.235,1.176 -0.685,0.629 -1.367,1.264 -0.682,0.635 -1.268,1.224 -0.586,0.589 -1.18,1.282 -0.594,0.693 -1.25,1.456 -0.656,0.763 -1.096,1.37 -0.44,0.607 -0.834,1.24 -0.394,0.633 -0.6,1.232 -0.206,0.599 -0.34,1.29 -0.134,0.691 -0.224,1.53 -0.09,0.839 -0.126,1.782 -0.036,0.943 -0.054,2.018 -0.018,1.075 -0.033,2.159 -0.015,1.084 -0.015,2.101 0,1.017 0.006,1.861 0.006,0.844 0.043,1.667 0.037,0.823 0.175,1.754 0.138,0.931 0.423,1.908 0.285,0.977 0.63,1.816 0.345,0.839 0.866,1.58 0.521,0.741 1.306,1.306 0.785,0.565 1.516,1.01 0.731,0.445 1.565,0.957 0.834,0.512 1.5,0.815 0.666,0.303 1.376,0.62 0.71,0.317 1.559,0.689 0.849,0.372 1.593,0.635 0.744,0.263 1.474,0.405 0.73,0.142 1.685,0.252 0.955,0.11 1.955,0.2 1,0.09 1.947,0.194 0.947,0.104 1.798,0.205 0.851,0.101 1.718,0.23 0.867,0.129 1.703,0.267 0.836,0.138 1.596,0.192 0.76,0.054 1.65,0.073 0.89,0.019 1.661,0 0.771,-0.019 1.475,-0.249 0.704,-0.23 1.488,-0.58 0.784,-0.35 1.434,-0.816 0.65,-0.466 1.204,-1.054 0.554,-0.588 1.199,-1.42 0.645,-0.832 1.186,-1.664 0.541,-0.832 0.955,-1.58 0.414,-0.748 0.829,-1.64 0.415,-0.892 0.784,-1.76 0.369,-0.868 0.626,-1.713 0.257,-0.845 0.535,-1.77 0.278,-0.925 0.468,-1.89 0.19,-0.965 0.314,-1.898 0.124,-0.933 0.151,-1.934 0.027,-1.001 0.054,-2.103 0.027,-1.102 0.015,-2.053 -0.012,-0.951 0.006,-2.072 0.018,-1.121 0.02,-2.31 0.002,-1.189 0.022,-1.827 0.02,-0.638 0.003,-1.68 -0.017,-1.042 -0.044,-1.809 -0.027,-0.767 -0.332,-1.605 -0.305,-0.838 -0.701,-1.463 -0.396,-0.625 -0.904,-1.233 -0.508,-0.608 -1.072,-1.118 -0.564,-0.51 -1.21,-0.993 -0.646,-0.483 -1.268,-0.874 -0.622,-0.391 -1.35,-0.853 -0.728,-0.462 -1.414,-0.973 -0.686,-0.511 -1.496,-0.824 -0.81,-0.313 -2.996,-0.467 -2.186,-0.154 -2.848,-0.603 -0.662,-0.449 -0.485,-1.221 0.177,-0.772 0.943,-0.916 0.766,-0.144 1.206,0.521 0.44,0.665 -0.019,1.314 -0.459,0.649 -1.221,0.485 -0.762,-0.164 -0.915,-0.943 -0.153,-0.779 0.52,-1.206 0.673,-0.427 2.384,-0.43 1.711,-0.003 2.65,0.147 0.939,0.15 1.74,0.453 0.801,0.303 1.531,0.787 0.73,0.484 1.4,0.954 0.67,0.47 1.333,0.89 0.663,0.42 1.4,0.938 0.737,0.518 1.47,1.126 0.733,0.608 1.396,1.334 0.663,0.726 1.205,1.505 0.542,0.779 0.968,1.63 0.426,0.851 0.629,1.786 0.203,0.935 0.2,1.776 -0.003,0.841 -0.003,1.884 0,1.043 0.009,2.281 0.009,1.238 0.023,2.381 0.014,1.143 0.013,2.238 -10e-4,1.095 -0.008,2.036 -0.007,0.941 -0.017,2.117 -0.01,1.176 -0.08,2.242 -0.07,1.066 -0.249,2.132 -0.179,1.066 -0.436,2.15 -0.257,1.084 -0.555,2.002 -0.298,0.918 -0.646,1.85 -0.348,0.932 -0.764,1.89 -0.416,0.958 -0.877,1.872 -0.461,0.914 -0.98,1.754 -0.519,0.84 -1.184,1.81 -0.665,0.97 -1.36,1.808 -0.695,0.838 -1.533,1.566 -0.838,0.728 -1.78,1.266 -0.942,0.538 -1.918,0.907 -0.976,0.369 -2.03,0.526 -1.054,0.157 -1.963,0.153 -0.909,-0.004 -1.833,-0.048 -0.924,-0.044 -1.793,-0.165 -0.869,-0.121 -1.724,-0.267 -0.855,-0.146 -1.641,-0.251 -0.786,-0.105 -1.674,-0.216 -0.888,-0.111 -1.825,-0.198 -0.937,-0.087 -1.954,-0.166 -1.017,-0.079 -2.089,-0.22 -1.072,-0.141 -1.953,-0.409 -0.881,-0.268 -1.76,-0.624 -0.879,-0.356 -1.644,-0.704 -0.765,-0.348 -1.526,-0.68 -0.761,-0.332 -1.576,-0.802 -0.815,-0.47 -1.658,-0.979 -0.843,-0.509 -1.58,-0.992 -0.737,-0.483 -1.442,-1.052 -0.705,-0.569 -1.28,-1.327 -0.575,-0.758 -0.927,-1.597 -0.352,-0.839 -0.743,-1.922 -0.391,-1.083 -0.647,-2.22 -0.256,-1.137 -0.366,-2.188 -0.11,-1.051 -0.094,-1.874 0.016,-0.823 0.016,-1.735 0,-0.912 0,-1.98 0,-1.068 -0.017,-2.19 -0.017,-1.122 -0.007,-2.176 0.01,-1.054 0.057,-2.053 0.047,-0.999 0.193,-1.923 0.146,-0.924 0.406,-1.839 0.26,-0.915 0.69,-1.716 0.43,-0.801 0.918,-1.521 0.488,-0.72 1.054,-1.399 0.566,-0.679 1.232,-1.496 0.666,-0.817 1.338,-1.542 0.672,-0.725 1.339,-1.357 0.667,-0.632 1.337,-1.242 0.67,-0.61 1.26,-1.202 0.59,-0.592 1.19,-1.132 0.6,-0.54 1.316,-1.102 0.716,-0.562 1.619,-1.05 0.903,-0.488 1.88,-0.941 0.977,-0.453 1.825,-0.762 0.848,-0.309 1.863,-0.624 1.015,-0.315 2.27,-0.484 1.255,-0.169 2.023,-0.173 0.768,-0.004 1.58,0.017 0.812,0.021 1.584,0.026 0.772,0.005 1.715,0.039 0.943,0.034 1.567,0.032 0.624,-0.002 1.167,0.044 0.543,0.046 0.805,0.106 0.262,0.06 0.493,0.246 0.231,0.186 0.36,0.416 0.129,0.23 0.175,0.522 0.046,0.292 -0.039,0.55 -0.085,0.258 -0.246,0.492 -0.161,0.234 -0.415,0.36 -0.254,0.126 -0.522,0.175 z"
     opacity="0.1"
     id="path19"
     style="fill:#1d1d1d;fill-opacity:0.276119;stroke:none" />
  <path
     fill="#1d1d1d"
     stroke="#1d1d1d"
     d="m 573.208,-13.506 q -0.17,-1.217 -0.434,-2.214 -0.264,-0.997 -0.58,-1.754 -0.316,-0.757 -0.514,-1.347 -0.198,-0.59 -0.508,-1.547 -0.31,-0.957 -0.553,-1.978 -0.243,-1.021 -0.472,-2.188 -0.229,-1.167 -0.45,-1.88 -0.221,-0.713 -0.55,-1.387 -0.329,-0.674 -0.663,-1.471 -0.334,-0.797 -0.666,-1.726 -0.332,-0.929 -0.643,-1.766 -0.311,-0.837 -0.636,-1.711 -0.325,-0.874 -0.623,-1.78 -0.298,-0.906 -0.587,-1.836 -0.289,-0.93 -0.563,-1.725 -0.274,-0.795 -0.593,-1.58 -0.319,-0.785 -0.644,-1.454 -0.325,-0.669 -0.714,-1.513 -0.389,-0.844 -0.78,-1.718 -0.391,-0.874 -0.732,-1.81 -0.341,-0.936 -0.64,-1.737 -0.299,-0.801 -0.588,-1.614 -0.289,-0.813 -0.797,-2.93 -0.508,-2.117 -0.275,-2.832 0.233,-0.715 0.988,-0.771 0.755,-0.056 1.091,0.618 0.336,0.674 -0.153,1.244 -0.489,0.57 -1.209,0.334 -0.72,-0.236 -0.771,-0.988 -0.051,-0.752 0.618,-1.09 0.669,-0.338 1.244,0.153 0.575,0.491 1.166,2.487 0.591,1.996 0.848,2.745 0.257,0.749 0.557,1.578 0.3,0.829 0.621,1.69 0.321,0.861 0.707,1.714 0.386,0.853 0.76,1.656 0.374,0.803 0.729,1.574 0.355,0.771 0.678,1.584 0.323,0.813 0.635,1.74 0.312,0.927 0.583,1.793 0.271,0.866 0.58,1.794 0.309,0.928 0.611,1.741 0.302,0.813 0.607,1.656 0.305,0.843 0.608,1.696 0.303,0.853 0.605,1.62 0.302,0.767 0.648,1.54 0.346,0.773 0.605,1.722 0.259,0.949 0.494,2.04 0.235,1.091 0.445,2.022 0.21,0.931 0.51,1.869 0.3,0.938 0.672,1.918 0.372,0.98 0.656,1.907 0.284,0.927 0.458,1.598 0.174,0.671 0.283,1.276 0.109,0.605 0.093,0.88 -0.016,0.275 -0.127,0.521 -0.111,0.246 -0.316,0.434 -0.205,0.188 -0.459,0.28 -0.254,0.092 -0.53,0.082 -0.276,-0.01 -0.522,-0.127 -0.246,-0.117 -0.434,-0.316 -0.188,-0.199 -0.28,-0.459 z m -7.914,-47.279 q -1.418,-0.04 -2.539,0.024 -1.121,0.064 -2.216,0.294 -1.095,0.23 -2.108,0.565 -1.013,0.335 -1.881,0.628 -0.868,0.293 -1.606,0.54 -0.738,0.247 -1.56,0.775 -0.822,0.528 -1.549,0.963 -0.727,0.435 -1.56,0.87 -0.833,0.435 -1.551,0.779 -0.718,0.344 -1.36,0.705 -0.642,0.361 -1.468,0.666 -0.826,0.305 -1.715,0.47 -0.889,0.165 -1.68,0.291 -0.791,0.126 -1.56,0.173 -0.769,0.047 -1.702,-0.09 -0.933,-0.137 -1.785,-0.866 -0.852,-0.729 -1.309,-1.549 -0.457,-0.82 -0.793,-1.71 -0.336,-0.89 -0.534,-1.743 -0.198,-0.853 -0.266,-1.727 -0.068,-0.874 -0.026,-1.743 0.042,-0.869 0.232,-1.697 0.19,-0.828 0.497,-1.631 0.307,-0.803 0.652,-1.531 0.345,-0.728 0.74,-1.439 0.395,-0.711 0.991,-1.415 0.596,-0.704 1.243,-1.267 0.647,-0.563 1.46,-0.971 0.813,-0.408 1.9,-0.493 1.087,-0.085 1.95,0.294 0.863,0.379 1.501,0.587 0.638,0.208 1.265,0.341 0.627,0.133 1.246,0.162 0.619,0.029 1.343,0.047 0.724,0.018 1.435,0.015 0.711,-0.003 1.611,-0.171 0.9,-0.168 1.556,-0.326 0.656,-0.158 1.435,-0.322 0.779,-0.164 1.413,-0.389 0.634,-0.225 1.365,-0.462 0.731,-0.237 1.568,-0.494 0.837,-0.257 1.672,-0.483 0.835,-0.226 1.631,-0.455 0.796,-0.229 1.596,-0.373 0.8,-0.144 1.536,-0.26 0.736,-0.116 1.516,-0.14 0.78,-0.024 1.732,0.141 0.952,0.165 1.759,0.681 0.807,0.516 1.465,1.255 0.658,0.739 1.069,1.62 0.411,0.881 0.566,1.731 0.155,0.85 0.18,1.693 0.025,0.843 -0.23,1.473 -0.255,0.63 -1.084,1.39 -0.829,0.76 -1.433,1.16 -0.604,0.4 -1.246,0.87 -0.642,0.47 -1.336,0.944 -0.694,0.474 -2.603,1.374 -1.909,0.9 -2.699,0.694 -0.79,-0.206 -0.906,-0.995 -0.116,-0.789 0.572,-1.218 0.688,-0.429 1.345,0.063 0.657,0.492 0.456,1.266 -0.201,0.774 -0.995,0.906 -0.794,0.132 -1.218,-0.572 -0.424,-0.704 0.062,-1.345 0.486,-0.641 2.343,-1.67 1.857,-1.029 2.549,-1.52 0.692,-0.491 1.317,-0.95 0.625,-0.459 1.336,-1.084 0.711,-0.625 0.602,-1.49 -0.109,-0.865 -0.442,-1.529 -0.333,-0.664 -1.024,-1.25 -0.691,-0.586 -1.318,-0.577 -0.627,0.009 -1.266,0.04 -0.639,0.031 -1.296,0.14 -0.657,0.109 -1.36,0.267 -0.703,0.158 -1.502,0.412 -0.799,0.254 -1.638,0.499 -0.839,0.245 -1.588,0.496 -0.749,0.251 -1.443,0.469 -0.694,0.218 -1.538,0.466 -0.844,0.248 -1.554,0.41 -0.71,0.162 -1.408,0.31 -0.698,0.148 -1.562,0.279 -0.864,0.131 -1.584,0.129 -0.72,-0.002 -1.501,-0.018 -0.781,-0.016 -1.566,-0.07 -0.785,-0.054 -1.631,-0.231 -0.846,-0.177 -1.717,-0.478 -0.871,-0.301 -1.525,-0.568 -0.654,-0.267 -1.367,0.114 -0.713,0.381 -1.327,1.021 -0.614,0.64 -0.952,1.246 -0.338,0.606 -0.661,1.28 -0.323,0.674 -0.56,1.287 -0.237,0.613 -0.43,1.484 -0.193,0.871 -0.17,1.55 0.023,0.679 0.108,1.322 0.085,0.643 0.285,1.325 0.2,0.682 0.61,1.547 0.41,0.865 0.963,1.19 0.553,0.325 1.203,0.3 0.65,-0.025 1.356,-0.134 0.706,-0.109 1.695,-0.312 0.989,-0.203 1.593,-0.47 0.604,-0.267 1.348,-0.644 0.744,-0.377 1.457,-0.697 0.713,-0.32 1.444,-0.742 0.731,-0.422 1.405,-0.824 0.674,-0.402 1.483,-0.825 0.809,-0.423 1.57,-0.635 0.761,-0.212 1.633,-0.475 0.872,-0.263 1.976,-0.61 1.104,-0.347 1.733,-0.514 0.629,-0.167 1.256,-0.268 0.627,-0.101 1.915,-0.194 1.288,-0.093 2,-0.107 0.712,-0.014 0.971,0.033 0.259,0.047 0.486,0.201 0.227,0.154 0.372,0.372 0.145,0.218 0.201,0.486 0.056,0.268 0,0.526 -0.056,0.258 -0.2,0.486 -0.144,0.228 -0.373,0.372 -0.229,0.144 -0.486,0.201 z"
     opacity="0.1"
     id="path21"
     style="fill:#1d1d1d;fill-opacity:0.276119;stroke:none" />
  <path
     fill="#1d1d1d"
     stroke="#1d1d1d"
     d="m 560.575,-60.383 q 0.258,1.083 0.748,2.75 0.49,1.667 0.31,2.355 -0.18,0.688 -0.883,0.786 -0.703,0.098 -1.065,-0.515 -0.362,-0.613 0.068,-1.181 0.43,-0.568 1.118,-0.389 0.688,0.179 0.787,0.884 0.099,0.705 -0.516,1.065 -0.615,0.36 -1.181,-0.069 -0.566,-0.429 -1.174,-2.196 -0.608,-1.767 -0.739,-2.309 -0.131,-0.542 -0.143,-0.807 -0.012,-0.265 0.082,-0.517 0.094,-0.252 0.273,-0.446 0.179,-0.194 0.423,-0.308 0.244,-0.114 0.509,-0.123 0.265,-0.009 0.517,0.081 0.252,0.09 0.446,0.273 0.194,0.183 0.308,0.424 z m 14.622,48.936 q -0.55,1.023 -0.962,1.849 -0.412,0.826 -0.824,1.61 -0.412,0.784 -0.776,1.56 -0.364,0.776 -0.783,1.706 -0.419,0.93 -0.935,1.858 -0.516,0.928 -1.083,1.841 -0.567,0.913 -1.12,1.823 -0.553,0.91 -1.027,1.653 -0.474,0.743 -1.702,2.568 -1.228,1.825 -1.916,2.155 -0.688,0.33 -1.256,-0.171 -0.568,-0.501 -0.322,-1.227 0.246,-0.726 1.01,-0.767 0.764,-0.041 1.095,0.64 0.331,0.681 -0.172,1.256 -0.503,0.575 -1.227,0.322 -0.724,-0.253 -0.767,-1.01 -0.043,-0.757 1.174,-2.663 1.217,-1.906 1.688,-2.607 0.471,-0.701 1.014,-1.616 0.543,-0.915 1.079,-1.793 0.536,-0.878 0.982,-1.677 0.446,-0.799 0.863,-1.739 0.417,-0.94 0.82,-1.785 0.403,-0.845 0.834,-1.636 0.431,-0.791 0.848,-1.61 0.417,-0.819 0.681,-1.331 0.264,-0.512 0.434,-0.735 0.17,-0.223 0.417,-0.35 0.247,-0.127 0.518,-0.164 0.271,-0.037 0.542,0.046 0.271,0.083 0.483,0.251 0.212,0.168 0.35,0.417 0.138,0.249 0.164,0.518 0.026,0.269 -0.047,0.543 z m 2.629,-3.738 q 1.535,0.126 2.177,0.207 0.642,0.081 1.583,0.223 0.941,0.142 1.867,0.303 0.926,0.161 1.806,0.312 0.88,0.151 1.72,0.306 0.84,0.155 1.65,0.354 0.81,0.199 1.619,0.464 0.809,0.265 1.526,0.529 0.717,0.264 1.4,0.493 0.683,0.229 2.447,0.935 1.764,0.706 2.25,1.326 0.486,0.62 0.091,1.305 -0.395,0.685 -1.17,0.583 -0.775,-0.102 -0.988,-0.859 -0.213,-0.757 0.416,-1.24 0.629,-0.483 1.305,-0.09 0.676,0.393 0.583,1.17 -0.093,0.777 -0.859,0.987 -0.766,0.21 -2.264,-0.296 -1.498,-0.506 -2.157,-0.763 -0.659,-0.257 -1.368,-0.525 -0.709,-0.268 -1.407,-0.534 -0.698,-0.266 -1.367,-0.487 -0.669,-0.221 -1.466,-0.394 -0.797,-0.173 -1.63,-0.344 -0.833,-0.171 -1.724,-0.346 -0.891,-0.175 -1.752,-0.34 -0.861,-0.165 -1.868,-0.314 -1.007,-0.149 -1.764,-0.148 -0.757,10e-4 -1.037,-0.063 -0.28,-0.064 -0.49,-0.227 -0.21,-0.163 -0.365,-0.397 -0.155,-0.234 -0.187,-0.506 -0.032,-0.272 0.022,-0.54 0.054,-0.268 0.227,-0.489 0.173,-0.221 0.396,-0.366 0.223,-0.145 0.507,-0.186 z"
     opacity="0.1"
     id="path23"
     style="fill:#1d1d1d;fill-opacity:0.276119;stroke:none" />
  <path
     fill="#1d1d1d"
     stroke="#1d1d1d"
     d="m 574.917,-15.34 q 0.503,-1.52 0.776,-2.18 0.273,-0.66 0.77,-1.628 0.497,-0.968 1.005,-1.745 0.508,-0.777 1.189,-1.635 0.681,-0.858 1.304,-1.659 0.623,-0.801 1.198,-1.54 0.575,-0.739 1.069,-1.345 0.494,-0.606 0.95,-1.207 0.456,-0.601 0.96,-1.251 0.504,-0.65 1.377,-1.891 0.873,-1.241 1.574,-1.562 0.701,-0.321 1.262,0.21 0.561,0.531 0.29,1.247 -0.271,0.716 -1.042,0.744 -0.771,0.028 -1.086,-0.677 -0.315,-0.705 0.21,-1.262 0.525,-0.557 1.247,-0.29 0.722,0.267 0.744,1.042 0.022,0.775 -1.143,2.536 -1.165,1.761 -1.66,2.363 -0.495,0.602 -1.005,1.21 -0.51,0.608 -1.02,1.203 -0.51,0.595 -1.141,1.413 -0.631,0.818 -1.278,1.61 -0.647,0.792 -1.197,1.53 -0.55,0.738 -0.998,1.404 -0.448,0.666 -0.88,1.608 -0.432,0.942 -0.62,1.73 -0.188,0.788 -0.306,1.02 -0.118,0.232 -0.33,0.417 -0.212,0.185 -0.464,0.26 -0.252,0.075 -0.528,0.061 -0.276,-0.014 -0.511,-0.145 -0.235,-0.131 -0.417,-0.33 -0.182,-0.199 -0.26,-0.463 -0.078,-0.264 -0.06,-0.528 z"
     opacity="0.1"
     id="path25"
     style="fill:#1d1d1d;fill-opacity:0.276119;stroke:none" />
  <path
     fill="#1d1d1d"
     stroke="#1d1d1d"
     d="m 551.752,-15.985 q 1.408,0.046 2.028,0.055 0.62,0.009 1.573,-0.002 0.953,-0.011 1.844,-0.022 0.891,-0.011 1.69,-0.024 0.799,-0.013 1.62,-0.021 0.821,-0.008 1.72,-0.012 0.899,-0.004 1.696,-0.01 0.797,-0.006 1.538,-0.017 0.741,-0.011 1.544,-0.012 0.803,-10e-4 1.66,0.017 0.857,0.018 3.195,0.394 2.338,0.376 2.9,0.939 0.562,0.563 0.254,1.3 -0.308,0.737 -1.103,0.731 -0.795,-0.006 -1.099,-0.74 -0.304,-0.734 0.263,-1.297 0.567,-0.563 1.3,-0.254 0.733,0.309 0.732,1.104 -10e-4,0.795 -0.74,1.098 -0.739,0.303 -2.868,0.016 -2.129,-0.287 -2.91,-0.309 -0.781,-0.022 -1.584,-0.027 -0.803,-0.005 -1.544,-0.012 -0.741,-0.007 -1.538,-0.016 -0.797,-0.009 -1.697,-0.01 -0.9,-0.001 -1.72,-0.012 -0.82,-0.011 -1.619,-0.022 -0.799,-0.011 -1.69,-0.024 -0.891,-0.013 -1.844,-0.021 -0.953,-0.008 -1.573,-0.002 -0.62,0.006 -1.324,0.031 -0.704,0.025 -0.976,-0.031 -0.272,-0.056 -0.502,-0.208 -0.23,-0.152 -0.385,-0.385 -0.155,-0.233 -0.208,-0.502 -0.053,-0.269 0,-0.544 0.053,-0.275 0.208,-0.502 0.155,-0.227 0.385,-0.384 0.23,-0.157 0.502,-0.208 z"
     opacity="0.1"
     id="path27"
     style="fill:#1d1d1d;fill-opacity:0.276119;stroke:none" />
  <path
     fill="#1d1d1d"
     stroke="#1d1d1d"
     d="m 575.42,-13.686 q 0.262,1.04 0.58,1.717 0.318,0.677 0.707,1.238 0.389,0.561 0.83,1.185 0.441,0.624 0.893,1.243 0.452,0.619 0.842,1.339 0.39,0.72 0.714,1.487 0.324,0.767 0.624,1.562 0.3,0.795 0.606,1.78 0.306,0.985 0.583,2.029 0.277,1.044 0.51,1.891 0.233,0.847 0.44,1.597 0.207,0.75 0.841,2.828 0.634,2.078 0.406,2.826 -0.228,0.748 -1.008,0.822 -0.78,0.074 -1.146,-0.616 -0.366,-0.69 0.132,-1.295 0.498,-0.605 1.246,-0.374 0.748,0.231 0.822,1.008 0.074,0.777 -0.616,1.146 -0.69,0.369 -1.295,-0.131 -0.605,-0.5 -1.321,-2.606 -0.716,-2.106 -0.907,-2.847 -0.191,-0.741 -0.411,-1.57 -0.22,-0.829 -0.507,-1.811 -0.287,-0.982 -0.583,-1.88 -0.296,-0.898 -0.588,-1.66 -0.292,-0.762 -0.56,-1.429 -0.268,-0.667 -0.565,-1.246 -0.297,-0.579 -0.72,-1.182 -0.423,-0.603 -0.836,-1.214 -0.413,-0.611 -0.9,-1.364 -0.487,-0.753 -0.913,-1.725 -0.426,-0.972 -0.567,-1.487 -0.141,-0.515 -0.16,-0.8 -0.019,-0.285 0.074,-0.551 0.093,-0.266 0.28,-0.48 0.187,-0.214 0.442,-0.338 0.255,-0.124 0.537,-0.142 0.282,-0.018 0.551,0.074 0.269,0.092 0.48,0.28 0.211,0.188 0.338,0.442 z"
     opacity="0.1"
     id="path29"
     style="fill:#1d1d1d;fill-opacity:0.276119;stroke:none" />
</svg>
