<svg xmlns="http://www.w3.org/2000/svg" width="87.91755676269531" height="92.08429718017578" viewBox="1305.0019760131836 503.0661811828613 87.91755676269531 92.08429718017578" stroke-linecap="round" stroke-linejoin="round" style="background-color: rgb(248, 249, 250);" encoding="UTF-8&quot;"><defs><g>
					<pattern id="hash_pattern" width="8" height="8" patternUnits="userSpaceOnUse" strokelinecap="round" stroke="white">
						<line x1="0.6666666666666666" y1="2" x2="2" y2="0.6666666666666666"/>
						<line x1="3.333333333333333" y1="4.666666666666666" x2="4.666666666666666" y2="3.333333333333333"/>
						<line x1="6" y1="7.333333333333333" x2="7.333333333333333" y2="6"/>
					</pattern>
					<mask id="hash_mask">
						<rect x="0" y="0" width="10000" height="10000" fill="url(#hash_pattern)"/>
					</mask>
				</g><style/></defs><path d="M-0.3293,0.8776 Q-2.223,1.2554 -3.2687,0.5357 T-4.4807,-1.5889 -3.9421,-3.96 -1.7397,-5.318 0.9286,-5.147 2.9483,-3.2106 3.4505,-0.3315 1.576,2.1692 -1.319,2.5879 -3.2774,0.4894 -2.761,-2.5064 -0.1866,-3.718 1.8073,-2.3081 1.4937,0.0868 -1.3779,-0.8627 -2.9662,-3.6484 -2.0166,-3.9819 -1.5513,-3.1598 -2.1327,-2.4153 -3.0431,-2.6676 -3.1583,-3.6052 -2.3362,-4.0705 -1.5797,-3.7072 -1.4881,-2.8045 -0.9486,-0.9989 -0.5773,-1.0905 -0.2574,-1.6419 0.4847,-0.7812 0.7467,-0.5362 0.8951,-0.2096 0.9072,0.1489 0.7811,0.4847 0.5362,0.7468 0.2096,0.8951 -0.1489,0.9072 Z" stroke="#ffc078" fill="#ffc078" stroke-linecap="round" stroke-width="1" transform="matrix(1, 0, 0, 1, 1339.796, 561.7824)" opacity="1"/><path d="M0.6672,0.6364 Q-0.4253,2.8887 -1.6437,2.7678 T-3.4682,1.2144 -3.1434,-1.5256 -0.5811,-3.3192 2.0949,-3.3321 3.7225,-1.4245 4.0676,1.222 3.1856,3.5296 0.8183,5.118 -2.1919,4.7076 -2.2768,1.2189 -0.5802,-1.6371 0.3535,-1.554 0.634,-0.6595 -0.0851,-0.0581 -0.9159,-0.4923 -0.8326,-1.4261 0.0619,-1.7064 0.6633,-0.9874 0.4403,0.019 -0.9017,0.0387 -1.3137,-0.5121 -0.5201,-0.7399 -0.1973,-0.8826 0.1554,-0.8909 0.4846,-0.7636 0.7399,-0.52 0.8826,-0.1973 0.8909,0.1555 0.7636,0.4846 Z" stroke="#4dabf7" fill="#4dabf7" stroke-linecap="round" stroke-width="1" transform="matrix(1, 0, 0, 1, 1358.9593, 549.553)" opacity="1"/><path d="M-0.8798,0.2458 Q-0.7042,-2.5209 0.7063,-1.3931 T1.8541,1.3175 0.2824,4.1728 -2.4868,5.1056 -5.0752,3.2758 -5.5138,0.4418 -3.3661,-1.5039 -0.0557,-1.5126 1.8634,0.3558 1.1894,2.5971 -0.5496,4.1423 -3.202,4.2202 -5.3337,2.3905 -5.4082,-0.0483 -3.9679,-1.8334 -1.6293,-2.4142 0.4738,-0.7009 0.4919,2.1307 -1.9405,2.0184 -3.2687,-0.1555 -2.4752,-0.7236 -2.0808,0.1029 -2.6935,0.7836 -3.5568,0.478 -3.6048,-0.4366 -2.7782,-0.8309 -2.2186,-0.7382 -2.0786,0.3895 -0.8161,1.3261 0.6004,0.4514 0.8934,-0.0681 0.8514,0.279 0.6798,0.5836 0.4048,0.7993 0.068,0.8934 -0.279,0.8514 -0.5836,0.6798 -0.7994,0.4047 Z" stroke="#e03131" fill="#e03131" stroke-linecap="round" stroke-width="1" transform="matrix(1, 0, 0, 1, 1346.3423, 536.0087)" opacity="1"/></svg>