<svg width="64" height="64" viewBox="0 0 64 64" fill="none" xmlns="http://www.w3.org/2000/svg">
<path d="M32.7675 28.0637C32.4588 29.6676 32.2102 30.8597 32.0219 31.6399C31.8336 32.4202 31.6095 33.3038 31.3498 34.2909C31.0901 35.2779 30.8721 36.0881 30.6958 36.7214C30.5195 37.3548 30.2262 38.3436 29.816 39.6879C29.4058 41.0321 28.9718 42.4028 28.5139 43.7999C28.056 45.197 27.6902 46.3194 27.4164 47.1671C27.1426 48.0148 26.894 48.7936 26.6706 49.5035C26.4473 50.2133 26.0752 51.3239 25.5543 52.8351C25.0334 54.3464 24.6671 55.1963 24.4554 55.3849C24.2438 55.5734 24.0104 55.6062 23.7554 55.4831C23.5003 55.36 23.3808 55.1569 23.3969 54.8737C23.4129 54.5906 23.5548 54.4024 23.8227 54.3093C24.0905 54.2161 24.3186 54.2753 24.507 54.4867C24.6954 54.6981 24.728 54.9315 24.6049 55.1869C24.4817 55.4422 24.2786 55.5617 23.9956 55.5453C23.7125 55.5289 23.5245 55.387 23.4313 55.1196C23.3382 54.8521 23.4106 53.9178 23.6485 52.3166C23.8864 50.7153 24.0985 49.5397 24.2847 48.7897C24.471 48.0397 24.6983 47.2333 24.9667 46.3707C25.2351 45.508 25.5959 44.3861 26.049 43.0049C26.5022 41.6236 26.9303 40.2721 27.3335 38.9502C27.7366 37.6283 28.028 36.6543 28.2075 36.0282C28.3871 35.4021 28.6221 34.5928 28.9126 33.6003C29.203 32.6079 29.4848 31.7128 29.7579 30.915C30.0309 30.1172 30.3581 29.3572 30.7395 28.6349C31.1209 27.9127 31.3373 27.5085 31.3886 27.4222C31.44 27.336 31.5057 27.2627 31.5856 27.2024C31.6656 27.1422 31.7544 27.0996 31.8518 27.0747C31.9493 27.0498 32.0476 27.0445 32.1467 27.0586C32.2457 27.0727 32.3386 27.1054 32.4252 27.1567C32.5119 27.2079 32.5851 27.2736 32.645 27.3537C32.7048 27.4337 32.7474 27.5225 32.7726 27.62C32.7979 27.7175 32.8033 27.8158 32.7888 27.9149L32.7675 28.0637Z" fill="#1D1D1D" stroke="#1D1D1D" stroke-linecap="round" stroke-linejoin="round"/>
<path d="M14.6615 10.9191C15.3979 11.6828 16.1238 12.4345 16.8391 13.1743C17.5543 13.914 18.2784 14.5877 19.0111 15.1953C19.7439 15.8029 20.5083 16.4227 21.3042 17.0546C22.1001 17.6866 22.8877 18.3453 23.6669 19.0308C24.4462 19.7163 25.1367 20.351 25.7387 20.9349C26.3406 21.5189 26.8825 22.0264 27.3644 22.4577C27.8464 22.889 28.436 23.3877 29.1333 23.9541C29.8307 24.5204 30.8877 25.542 32.3043 27.019C33.721 28.4959 34.4347 29.3749 34.4453 29.6559C34.456 29.9369 34.3334 30.1359 34.0776 30.2529C33.8218 30.3699 33.591 30.3328 33.3853 30.1416C33.1795 29.9504 33.1255 29.723 33.2233 29.4594C33.321 29.1958 33.5104 29.0588 33.7915 29.0486C34.0725 29.0384 34.2715 29.161 34.3883 29.4165C34.5052 29.6719 34.4681 29.9027 34.2769 30.1087C34.0858 30.3147 33.8584 30.3687 33.5949 30.2708C33.3314 30.1729 32.4873 29.5035 31.0627 28.2627C29.638 27.0218 28.5578 26.105 27.8221 25.5123C27.0864 24.9195 26.4694 24.3968 25.971 23.9441C25.4727 23.4913 24.9304 22.9804 24.3443 22.4113C23.7582 21.8423 23.0932 21.2272 22.3494 20.5661C21.6056 19.905 20.8353 19.2553 20.0386 18.617C19.2419 17.9787 18.4592 17.3241 17.6906 16.6532C16.922 15.9823 16.1808 15.2383 15.4671 14.421C14.7534 13.6038 14.244 12.9783 13.9391 12.5445C13.6341 12.1107 13.458 11.8499 13.4106 11.7622C13.3632 11.6745 13.3346 11.5812 13.3247 11.4821C13.3149 11.3831 13.3242 11.2859 13.3527 11.1906C13.3811 11.0953 13.4269 11.0091 13.4899 10.9319C13.553 10.8547 13.6282 10.7926 13.7157 10.7456C13.8032 10.6985 13.8966 10.6699 13.9957 10.6597C14.0948 10.6494 14.192 10.6587 14.2872 10.6876C14.3823 10.7164 14.4686 10.7621 14.5458 10.8248L14.6615 10.9191Z" fill="#1D1D1D" stroke="#1D1D1D" stroke-linecap="round" stroke-linejoin="round"/>
<path d="M30.7313 27.6231C31.8525 27.1672 32.8007 26.8143 33.5757 26.5643C34.3507 26.3143 35.2714 26.0197 36.3375 25.6803C37.4037 25.3409 38.4957 25.0218 39.6134 24.7232C40.7312 24.4246 41.6516 24.1968 42.3745 24.0399C43.0975 23.8831 44.004 23.7033 45.0941 23.5007C46.1842 23.2981 47.0626 23.1426 47.7291 23.0343C48.3957 22.926 49.0542 22.8287 49.7047 22.7425C50.3551 22.6563 51.7905 22.5801 54.0107 22.5141C56.2309 22.4481 57.4609 22.4951 57.7007 22.6551C57.9405 22.8151 58.0323 23.0364 57.9762 23.3189C57.9201 23.6014 57.7509 23.7709 57.4685 23.8274C57.1862 23.8839 56.9648 23.7924 56.8043 23.5529C56.6438 23.3134 56.6436 23.0738 56.8038 22.8342C56.9639 22.5946 57.1852 22.5028 57.4677 22.5588C57.7501 22.6148 57.9195 22.7841 57.976 23.0667C58.0325 23.3493 57.941 23.5706 57.7016 23.7307C57.4621 23.8908 56.2766 24.0733 54.1452 24.2781C52.0139 24.4829 50.6318 24.6292 49.9992 24.7172C49.3665 24.8052 48.7214 24.9027 48.0637 25.0097C47.4061 25.1168 46.5449 25.269 45.48 25.4664C44.4151 25.6638 43.532 25.8386 42.8308 25.9907C42.1295 26.1428 41.2368 26.3609 40.1527 26.645C39.0685 26.9292 37.9891 27.2377 36.9144 27.5707C35.8397 27.9036 34.9094 28.1778 34.1235 28.3931C33.3376 28.6085 32.6478 28.7751 32.0541 28.8929C31.4605 29.0107 31.1148 29.074 31.0171 29.0827C30.9194 29.0914 30.8236 29.0816 30.7298 29.0532C30.636 29.0249 30.5513 28.9792 30.4758 28.9161C30.4003 28.853 30.3395 28.7784 30.2936 28.6922C30.2477 28.606 30.2201 28.5138 30.2109 28.4155C30.2016 28.3173 30.2114 28.2215 30.2403 28.1284C30.2691 28.0352 30.3148 27.9505 30.3774 27.8743C30.44 27.7981 30.5146 27.7373 30.6014 27.692L30.7313 27.6231Z" fill="#1D1D1D" stroke="#1D1D1D" stroke-linecap="round" stroke-linejoin="round"/>
<path d="M13.9733 8.69838C15.0699 8.61823 15.9961 8.5582 16.7518 8.51828C17.5076 8.47836 18.2479 8.44218 18.9726 8.40973C19.6974 8.37729 20.4302 8.34231 21.1711 8.30479C21.912 8.26728 22.6127 8.22983 23.2731 8.19245C23.9335 8.15507 24.5872 8.11346 25.2341 8.0676C25.8811 8.02175 26.5288 7.97148 27.1772 7.91679C27.8257 7.86211 28.6499 7.79341 29.6499 7.71071C30.6499 7.628 32.1642 7.52385 34.1929 7.39823C36.2216 7.27262 37.3632 7.27209 37.6178 7.39665C37.8723 7.5212 37.9907 7.72496 37.9729 8.00793C37.9551 8.29089 37.8121 8.47823 37.5438 8.56995C37.2756 8.66167 37.0479 8.60127 36.8606 8.38875C36.6733 8.17623 36.642 7.94266 36.7667 7.68803C36.8913 7.4334 37.0951 7.31506 37.378 7.33303C37.6609 7.35099 37.8481 7.49399 37.9398 7.76202C38.0314 8.03005 37.971 8.25783 37.7586 8.44537C37.5461 8.63291 36.4186 8.86045 34.376 9.12799C32.3335 9.39554 30.8127 9.57286 29.8136 9.65996C28.8146 9.74707 27.9863 9.81833 27.3288 9.87376C26.6713 9.92919 26.0147 9.98013 25.3589 10.0266C24.7031 10.073 24.0429 10.1151 23.3782 10.1526C22.7135 10.1902 22.0096 10.2278 21.2665 10.2655C20.5235 10.3032 19.7861 10.3361 19.0543 10.3641C18.3225 10.3922 17.5545 10.415 16.7501 10.4326C15.9457 10.4502 15.2717 10.4171 14.7282 10.3333C14.1847 10.2494 13.8652 10.196 13.7697 10.1732C13.6742 10.1503 13.5868 10.1099 13.5074 10.0519C13.428 9.99396 13.3626 9.9232 13.3113 9.83963C13.26 9.75605 13.2268 9.66564 13.2116 9.5684C13.1964 9.47115 13.2002 9.37488 13.2231 9.2796C13.2459 9.18432 13.2863 9.09686 13.3443 9.01725C13.4023 8.93763 13.4731 8.87226 13.5566 8.82115C13.6401 8.77004 13.7305 8.73675 13.8278 8.72128L13.9733 8.69838Z" fill="#1D1D1D" stroke="#1D1D1D" stroke-linecap="round" stroke-linejoin="round"/>
<path d="M36.7413 6.2855C38.0723 7.14858 39.1845 7.85945 40.078 8.41811C40.9715 8.97677 41.8108 9.50174 42.5961 9.99303C43.3813 10.4843 44.1403 10.9531 44.8731 11.3993C45.6058 11.8455 46.3945 12.344 47.2391 12.8947C48.0837 13.4453 48.8133 13.9357 49.4279 14.3658C50.0424 14.7959 50.6036 15.2002 51.1114 15.5788C51.6192 15.9574 52.7899 16.8473 54.6235 18.2483C56.4571 19.6493 57.4444 20.471 57.5856 20.7135C57.7267 20.956 57.7122 21.1887 57.542 21.4118C57.3719 21.6348 57.1514 21.7105 56.8805 21.6387C56.6096 21.567 56.4553 21.3922 56.4176 21.1144C56.3798 20.8366 56.4823 20.6271 56.7249 20.486C56.9676 20.3449 57.2002 20.3594 57.423 20.5295C57.6457 20.6995 57.7213 20.9201 57.6499 21.1912C57.5784 21.4623 57.4036 21.6166 57.1256 21.654C56.8475 21.6915 55.8958 21.2454 54.2704 20.3156C52.645 19.3859 51.3712 18.5748 50.449 17.8824C49.5267 17.19 48.768 16.6353 48.1728 16.2183C47.5776 15.8013 46.8658 15.3199 46.0373 14.774C45.2088 14.2281 44.4299 13.7222 43.7005 13.2563C42.9712 12.7904 42.2158 12.2966 41.4345 11.7748C40.6532 11.253 39.825 10.6697 38.9497 10.0247C38.0745 9.37972 37.3351 8.79966 36.7315 8.28451C36.1279 7.76937 35.7929 7.475 35.7265 7.40142C35.6601 7.32783 35.6101 7.24399 35.5766 7.14988C35.5431 7.05577 35.5291 6.9592 35.5344 6.86015C35.5398 6.7611 35.5638 6.66646 35.6064 6.57621C35.649 6.48597 35.7074 6.40771 35.7815 6.34144C35.8557 6.27518 35.9395 6.22522 36.0331 6.19156C36.1266 6.1579 36.2232 6.14384 36.3229 6.14939C36.4226 6.15493 36.5172 6.17891 36.6067 6.22131L36.7413 6.2855Z" fill="#1D1D1D" stroke="#1D1D1D" stroke-linecap="round" stroke-linejoin="round"/>
<path d="M13.9478 9.60853C13.8883 10.9651 13.7762 12.0099 13.6114 12.7428C13.4465 13.4758 13.1986 14.3918 12.8676 15.4907C12.5365 16.5896 12.2063 17.7052 11.877 18.8376C11.5477 19.97 11.2935 20.8834 11.1144 21.5777C10.9354 22.272 10.7171 23.2061 10.4597 24.38C10.2023 25.554 9.99546 26.5267 9.83916 27.2984C9.68287 28.07 9.50925 28.9195 9.31831 29.8467C9.12737 30.7738 8.6311 32.2638 7.82952 34.3166C7.02793 36.3693 6.49903 37.4615 6.24281 37.5931C5.98658 37.7247 5.74861 37.6973 5.52889 37.511C5.30917 37.3247 5.24342 37.0943 5.33165 36.8199C5.41988 36.5456 5.6075 36.3966 5.89452 36.3732C6.18155 36.3498 6.3909 36.4661 6.52257 36.7223C6.65424 36.9785 6.62686 37.2165 6.44043 37.4363C6.25399 37.6561 6.02362 37.7219 5.7493 37.6336C5.47499 37.5453 5.3261 37.3576 5.30266 37.0707C5.27921 36.7837 5.55001 35.6684 6.11506 33.7247C6.68011 31.7811 7.05561 30.3467 7.24155 29.4215C7.42749 28.4963 7.59972 27.6422 7.75825 26.8592C7.91677 26.0762 8.12783 25.0853 8.39143 23.8864C8.65502 22.6876 8.87849 21.7326 9.06183 21.0215C9.24517 20.3104 9.50423 19.38 9.83901 18.2302C10.1738 17.0804 10.5098 15.9694 10.8471 14.8971C11.1843 13.8249 11.4413 12.9593 11.618 12.3005C11.7947 11.6417 11.9796 10.9867 12.1728 10.3355C12.3659 9.68425 12.48 9.31304 12.5151 9.22184C12.5501 9.13065 12.601 9.04926 12.6678 8.97768C12.7346 8.9061 12.8129 8.85036 12.9025 8.81047C12.9922 8.77058 13.0858 8.74901 13.1833 8.74576C13.2807 8.74252 13.3754 8.75843 13.4674 8.79349C13.5594 8.82855 13.6408 8.87953 13.7117 8.94642C13.7825 9.01331 13.8382 9.0915 13.8787 9.18097C13.9193 9.27044 13.9408 9.36402 13.9434 9.4617L13.9478 9.60853Z" fill="#1D1D1D" stroke="#1D1D1D" stroke-linecap="round" stroke-linejoin="round"/>
<path d="M7.2912 35.0642C8.11974 36.4339 8.79712 37.5348 9.32331 38.3669C9.84951 39.199 10.4423 40.0079 11.1017 40.7938C11.761 41.5796 12.4687 42.3785 13.2247 43.1903C13.9808 44.0022 14.7217 44.777 15.4475 45.5148C16.1733 46.2527 16.849 46.9278 17.4747 47.5402C18.1004 48.1527 18.8574 48.9115 19.7456 49.8166C20.6338 50.7217 21.7155 51.8096 22.9908 53.0805C24.2661 54.3514 24.9408 55.1213 25.0151 55.3903C25.0893 55.6593 25.0165 55.8798 24.7964 56.0518C24.5764 56.2238 24.3448 56.2408 24.1017 56.1028C23.8586 55.9648 23.7542 55.7573 23.7887 55.4804C23.8232 55.2035 23.9749 55.0277 24.244 54.953C24.513 54.8783 24.7334 54.9513 24.9053 55.1719C25.0772 55.3926 25.0942 55.6242 24.9562 55.8667C24.8183 56.1093 24.6108 56.2136 24.3339 56.1797C24.057 56.1457 23.2121 55.5453 21.7992 54.3785C20.3863 53.2117 19.2095 52.1983 18.2689 51.3384C17.3282 50.4784 16.5419 49.7391 15.9099 49.1205C15.2779 48.5018 14.592 47.8163 13.8523 47.0641C13.1125 46.3118 12.3534 45.5174 11.575 44.6808C10.7966 43.8443 10.0542 42.9903 9.34769 42.119C8.64121 41.2476 8.02272 40.3404 7.49219 39.3974C6.96166 38.4544 6.56478 37.6051 6.30153 36.8497C6.03828 36.0942 5.89456 35.6679 5.87038 35.5708C5.8462 35.4737 5.84167 35.3762 5.85679 35.2782C5.87192 35.1803 5.90497 35.0884 5.95594 35.0028C6.00692 34.9171 6.07263 34.8449 6.15308 34.7862C6.23353 34.7275 6.32188 34.6859 6.41813 34.6615C6.51437 34.637 6.61185 34.6325 6.71056 34.6478C6.80927 34.6632 6.90112 34.6962 6.98611 34.747C7.0711 34.7978 7.14328 34.8635 7.20265 34.9442L7.2912 35.0642Z" fill="#1D1D1D" stroke="#1D1D1D" stroke-linecap="round" stroke-linejoin="round"/>
<path d="M25.668 53.937C27.1774 53.6432 28.3112 53.3973 29.0695 53.1996C29.8277 53.0018 30.9487 52.6927 32.4325 52.2723C33.9162 51.8519 35.0851 51.5238 35.9392 51.2879C36.7933 51.0519 37.6446 50.8107 38.4932 50.564C39.3418 50.3174 40.5719 49.9531 42.1834 49.4713C43.795 48.9895 45.0429 48.6385 45.9272 48.4185C46.8115 48.1984 48.2329 47.9596 50.1914 47.7022C52.1498 47.4447 53.2559 47.3794 53.5096 47.5062C53.7633 47.633 53.8799 47.8378 53.8594 48.1205C53.839 48.4032 53.6945 48.5894 53.4259 48.679C53.1572 48.7686 52.93 48.7063 52.7441 48.492C52.5582 48.2778 52.5288 48.0439 52.656 47.7905C52.7831 47.5371 52.9879 47.4205 53.2702 47.4406C53.5526 47.4607 53.7387 47.6053 53.8286 47.8743C53.9184 48.1434 53.8561 48.3706 53.6416 48.5561C53.4271 48.7415 52.391 49.0336 50.5334 49.4323C48.6757 49.8311 47.318 50.1415 46.4603 50.3636C45.6026 50.5857 44.3663 50.9358 42.7515 51.414C41.1366 51.8922 39.8988 52.2563 39.0381 52.5063C38.1774 52.7564 37.3157 52.9958 36.4531 53.2246C35.5904 53.4535 34.413 53.7513 32.9207 54.1182C31.4285 54.485 30.2653 54.7595 29.431 54.9418C28.5967 55.124 27.7967 55.2509 27.0309 55.3224C26.2651 55.3939 25.8334 55.4272 25.7356 55.4222C25.6379 55.4172 25.5447 55.3934 25.4561 55.3509C25.3675 55.3083 25.2904 55.2507 25.225 55.178C25.1595 55.1052 25.1104 55.0225 25.0778 54.9297C25.0451 54.837 25.0314 54.7417 25.0367 54.644C25.042 54.5462 25.0658 54.453 25.1081 54.3642C25.1504 54.2755 25.2081 54.1985 25.2811 54.1332C25.3542 54.068 25.4369 54.0189 25.5293 53.986L25.668 53.937Z" fill="#1D1D1D" stroke="#1D1D1D" stroke-linecap="round" stroke-linejoin="round"/>
<path d="M58.7416 25.1837C58.4865 26.4963 58.2761 27.5109 58.1104 28.2274C57.9448 28.9439 57.7783 29.6368 57.6112 30.306C57.444 30.9751 57.2577 31.7247 57.0524 32.5547C56.8471 33.3847 56.6604 34.145 56.4923 34.8358C56.3242 35.5266 56.1604 36.2032 56.0008 36.8655C55.8412 37.5279 55.6397 38.3615 55.3963 39.3664C55.153 40.3713 54.9243 41.2955 54.7104 42.139C54.4965 42.9826 54.3019 43.7277 54.1266 44.3744C53.9513 45.0212 53.5576 46.1812 52.9455 47.8544C52.3334 49.5276 51.9102 50.4499 51.676 50.6214C51.4419 50.7929 51.2006 50.8033 50.9521 50.6524C50.7036 50.5016 50.6018 50.2827 50.6465 49.9956C50.6912 49.7086 50.8546 49.5306 51.1365 49.4618C51.4184 49.393 51.6453 49.4758 51.8171 49.7102C51.9889 49.9446 51.9992 50.1859 51.848 50.4341C51.6967 50.6822 51.4778 50.7841 51.191 50.7397C50.9043 50.6953 50.7264 50.5319 50.6573 50.2497C50.5883 49.9674 50.7867 48.9964 51.2526 47.3365C51.7185 45.6766 52.0316 44.5245 52.192 43.8801C52.3524 43.2358 52.5367 42.4947 52.7448 41.657C52.9529 40.8193 53.1764 39.8971 53.4151 38.8904C53.6539 37.8837 53.8535 37.0484 54.0138 36.3844C54.1742 35.7204 54.3389 35.04 54.5081 34.3432C54.6773 33.6464 54.8706 32.8788 55.0879 32.0402C55.3053 31.2017 55.5107 30.4505 55.7042 29.7866C55.8978 29.1227 56.1026 28.4422 56.3186 27.745C56.5346 27.0479 56.749 26.3824 56.9617 25.7485C57.1745 25.1147 57.3027 24.7537 57.3462 24.6657C57.3897 24.5776 57.448 24.5009 57.5213 24.4357C57.5945 24.3705 57.6777 24.322 57.7709 24.2903C57.8641 24.2585 57.9596 24.2456 58.0574 24.2515C58.1552 24.2574 58.2483 24.282 58.3367 24.3253C58.4251 24.3687 58.5018 24.427 58.5666 24.5005C58.6314 24.5739 58.6799 24.6572 58.712 24.7503C58.744 24.8434 58.757 24.9388 58.7507 25.0366L58.7416 25.1837Z" fill="#1D1D1D" stroke="#1D1D1D" stroke-linecap="round" stroke-linejoin="round"/>
<path d="M50.697 28.2274C51.3573 28.655 51.6597 29.2731 51.6041 30.0818C51.5484 30.8905 51.4302 31.6307 51.2494 32.3023C51.0685 32.9739 50.7677 33.15 50.347 32.8307C49.9263 32.5113 49.5726 32.0673 49.2857 31.4987C48.9988 30.9301 48.9407 30.3172 49.1115 29.6601C49.2823 29.0029 49.493 28.3735 49.7436 27.772C49.9942 27.1705 50.4353 26.5134 51.0669 25.8007C51.6986 25.0881 52.2098 25.0608 52.6006 25.7189C52.9915 26.377 53.2121 27.0502 53.2624 27.7384C53.3128 28.4267 53.3062 29.1117 53.2427 29.7934C53.1791 30.4751 52.9954 31.1536 52.6915 31.8289C52.3876 32.5043 52.0241 32.638 51.6011 32.23C51.178 31.8221 50.9099 31.2576 50.7968 30.5367C50.6837 29.8158 50.7391 29.1593 50.963 28.5673C51.1869 27.9752 51.4573 27.349 51.7742 26.6885C52.0911 26.0281 52.6337 25.5261 53.4021 25.1826C54.1704 24.8391 54.7133 25.0308 55.0307 25.7577C55.3481 26.4846 55.4196 27.1651 55.2452 27.7993C55.0707 28.4335 54.8387 29.0877 54.549 29.7618C54.2593 30.436 53.7487 31.2469 53.0171 32.1944C52.2856 33.142 51.9192 33.3507 51.9179 32.8207C51.9167 32.2907 52.0692 32.0615 52.3753 32.1332C52.6815 32.2048 52.8598 32.3957 52.9103 32.7061C52.9608 33.0165 52.8526 33.2544 52.5856 33.4197C52.3187 33.5851 52.0575 33.5762 51.8022 33.3929C51.5469 33.2096 51.4553 32.9649 51.5273 32.6587C51.5993 32.3525 51.7903 32.1742 52.1004 32.1237C52.4104 32.0732 52.5559 32.0439 52.537 32.0359C52.518 32.0279 52.3355 31.5098 51.9893 30.4817C51.6432 29.4535 51.7432 28.688 52.2894 28.1852C52.8356 27.6824 53.3876 27.4567 53.9453 27.5082C54.503 27.5596 54.6439 27.8938 54.3679 28.5106C54.0919 29.1275 53.8296 29.7549 53.5809 30.3929C53.3322 31.0309 53.0728 31.6706 52.8027 32.312C52.5327 32.9534 52.0457 33.4957 51.342 33.9389C50.6382 34.3822 50.1136 34.2257 49.7681 33.4696C49.4226 32.7134 49.3873 32.0038 49.6622 31.3405C49.9371 30.6772 50.1087 30.0167 50.1771 29.359C50.2455 28.7012 50.2625 28.016 50.2282 27.3033C50.1938 26.5906 50.3844 26.4846 50.8 26.9853C51.2155 27.4861 51.706 27.667 52.2714 27.5282C52.8368 27.3893 52.9805 27.6921 52.7025 28.4365C52.4245 29.181 52.197 29.8759 52.0199 30.5213C51.8428 31.1667 51.6422 31.8577 51.4182 32.5941C51.1942 33.3306 50.7359 33.9584 50.0431 34.4774C49.3504 34.9965 48.876 34.7158 48.62 33.6353C48.3639 32.5548 48.3425 31.6474 48.5557 30.9131C48.7689 30.1788 48.9347 29.6405 49.053 29.2983C49.1713 28.9561 49.2222 28.7347 49.2057 28.6342C49.1891 28.5336 49.192 28.4336 49.2144 28.3342C49.2368 28.2348 49.2778 28.1435 49.3374 28.0604C49.397 27.9773 49.4698 27.9086 49.5557 27.8544C49.6416 27.8001 49.7351 27.7646 49.8361 27.7478C49.9371 27.7309 50.0371 27.7339 50.1361 27.7565C50.235 27.7791 50.3263 27.8201 50.4098 27.8795C50.4934 27.9388 50.562 28.0116 50.6158 28.0978L50.697 28.2274Z" fill="#FFC078" stroke="#FFC078" stroke-linecap="round" stroke-linejoin="round"/>
<path d="M48.734 42.2439C48.9145 43.3018 48.9173 44.1594 48.7423 44.8167C48.5674 45.474 48.2231 45.7671 47.7094 45.6961C47.1957 45.6251 46.8475 45.28 46.6648 44.661C46.482 44.0419 46.5364 43.3873 46.8277 42.697C47.1191 42.0067 47.666 41.2331 48.4683 40.3762C49.2707 39.5193 49.8754 39.3765 50.2825 39.9479C50.6896 40.5194 50.8775 41.2059 50.8461 42.0075C50.8148 42.8091 50.7515 43.5519 50.6563 44.2358C50.5611 44.9198 50.26 45.1199 49.753 44.8362C49.2459 44.5526 49.0471 44.2995 49.1566 44.0769C49.2661 43.8544 49.3293 43.6005 49.3463 43.3152C49.3632 43.0299 49.5068 42.8406 49.7771 42.7474C50.0474 42.6541 50.2772 42.7143 50.4666 42.9279C50.656 43.1415 50.6883 43.3769 50.5635 43.6342C50.4387 43.8914 50.2336 44.0113 49.9482 43.9941C49.6628 43.9768 49.4735 43.8332 49.3803 43.5632C49.287 43.2932 49.3474 43.0633 49.5612 42.8735C49.775 42.6838 50.0103 42.6515 50.2672 42.7766C50.5241 42.9017 50.7225 43.1873 50.8625 43.6333C51.0025 44.0793 50.9901 44.6146 50.8253 45.2392C50.6604 45.8639 50.215 46.4237 49.4889 46.9188C48.7628 47.4139 48.2232 47.0813 47.8701 45.9211C47.517 44.7609 47.5819 43.8583 48.065 43.2133C48.548 42.5682 49.0755 42.227 49.6474 42.1897C50.2193 42.1524 50.3705 42.4897 50.1008 43.2017C49.8311 43.9137 49.5579 44.5707 49.281 45.1726C49.0041 45.7746 48.7176 46.3552 48.4215 46.9144C48.1255 47.4736 47.6498 47.8889 46.9947 48.1605C46.3395 48.432 45.923 47.9655 45.7452 46.761C45.5674 45.5565 45.583 44.6033 45.7919 43.9013C46.0008 43.1993 46.3018 42.6657 46.6947 42.3006C47.0876 41.9354 47.3091 41.7097 47.3591 41.6235C47.4091 41.5373 47.4735 41.4638 47.5522 41.4032C47.6309 41.3425 47.7184 41.2993 47.8147 41.2735C47.911 41.2477 48.0084 41.2412 48.1068 41.2542C48.2052 41.2671 48.2976 41.2984 48.3841 41.3481C48.4706 41.3978 48.5441 41.4622 48.6044 41.5412C48.6647 41.6202 48.708 41.7077 48.7341 41.8037C48.7602 41.8998 48.7666 41.9972 48.7533 42.096L48.734 42.2439Z" fill="#FFC078" stroke="#FFC078" stroke-linecap="round" stroke-linejoin="round"/>
<path d="M47.4389 34.9198C48.7011 35.2171 49.3141 35.7897 49.2781 36.6376C49.242 37.4855 49.1652 38.2264 49.0477 38.8604C48.9302 39.4944 48.6497 39.588 48.206 39.141C47.7624 38.6941 47.5079 38.1073 47.4427 37.3807C47.3775 36.6541 47.438 35.9885 47.6241 35.3839C47.8102 34.7793 48.4248 34.1507 49.4678 33.4982C50.5109 32.8456 51.1233 32.9155 51.3053 33.7076C51.4872 34.4998 51.4709 35.3017 51.2563 36.1132C51.0417 36.9247 50.8684 37.6841 50.7363 38.3914C50.6041 39.0987 50.2904 39.2815 49.7951 38.94C49.2998 38.5984 49.0694 38.0923 49.104 37.4216C49.1385 36.7509 49.6055 35.9089 50.5051 34.8957C51.4046 33.8826 52.0257 33.7731 52.3684 34.5673C52.7111 35.3615 52.4456 36.3425 51.5718 37.5102C50.6979 38.678 50.2662 39.0189 50.2765 38.5329C50.2868 38.0468 50.4248 37.8493 50.6905 37.9403C50.9562 38.0313 51.098 38.2171 51.1157 38.4978C51.1335 38.7785 51.0161 38.9806 50.7634 39.104C50.5107 39.2275 50.279 39.1963 50.0684 39.0104C49.8578 38.8246 49.798 38.5987 49.889 38.3326C49.98 38.0666 50.1659 37.9249 50.4466 37.9075C50.7274 37.8901 50.8415 37.8699 50.7889 37.8467C50.7363 37.8236 50.5268 37.3421 50.1603 36.4022C49.7939 35.4623 49.8141 35.2516 50.221 35.7701C50.6278 36.2886 51.1321 36.5181 51.7339 36.4586C52.3357 36.3991 52.5029 36.7389 52.2354 37.478C51.9678 38.2172 51.6747 38.9273 51.3561 39.6083C51.0375 40.2893 50.562 40.8086 49.9295 41.1661C49.2971 41.5237 48.7007 41.2459 48.1404 40.3329C47.5801 39.4198 47.3745 38.5651 47.5235 37.7687C47.6726 36.9723 47.9871 36.3264 48.4672 35.8309C48.9473 35.3355 49.4403 35.2718 49.9462 35.6399C50.4522 36.008 50.5931 36.5108 50.3688 37.1481C50.1446 37.7854 49.8754 38.4815 49.5612 39.2362C49.2471 39.991 48.7483 40.5725 48.065 40.9807C47.3817 41.3889 46.8634 40.9908 46.5101 39.7864C46.1568 38.5821 46.0652 37.6477 46.2352 36.9833C46.4053 36.3188 46.6568 36.0658 46.9899 36.2242C47.3229 36.3826 47.4402 36.4537 47.3416 36.4375C47.2431 36.4213 47.1509 36.3867 47.0653 36.3337C46.9796 36.2807 46.9077 36.2135 46.8496 36.132C46.7915 36.0505 46.7508 35.9609 46.7277 35.863C46.7045 35.7652 46.7012 35.6669 46.7179 35.5681C46.7346 35.4692 46.7692 35.377 46.8218 35.2915C46.8743 35.206 46.9415 35.1342 47.0234 35.076C47.1054 35.0177 47.195 34.9771 47.2924 34.954L47.4389 34.9198Z" fill="#F76707" stroke="#F76707" stroke-linecap="round" stroke-linejoin="round"/>
<path d="M33.5776 37.438C33.5361 38.401 33.4127 39.2621 33.2075 40.0214C33.0023 40.7807 32.6557 41.216 32.1678 41.3272C31.68 41.4384 31.3597 41.1614 31.207 40.4962C31.0543 39.8311 31.1017 39.2008 31.3491 38.6054C31.5965 38.01 32.1039 37.2741 32.8713 36.3977C33.6387 35.5212 34.1707 35.3812 34.4672 35.9776C34.7638 36.574 34.856 37.2748 34.7439 38.0798C34.6317 38.8849 34.3362 39.3643 33.8575 39.5181C33.3787 39.6718 33.1378 39.4024 33.1348 38.7097C33.1318 38.017 33.476 37.4046 34.1674 36.8726C34.8589 36.3406 35.3484 36.4035 35.6361 37.0614C35.9238 37.7194 36.0127 38.3921 35.9026 39.0795C35.7925 39.767 35.4923 40.0671 35.002 39.9797C34.5117 39.8924 34.2486 39.4855 34.2126 38.7589C34.1767 38.0324 34.273 37.951 34.5014 38.5149C34.7299 39.0787 35.092 39.5652 35.5877 39.9744C36.0835 40.3837 36.1491 40.4298 35.7846 40.1128C35.4201 39.7959 35.1016 39.4905 34.829 39.1968C34.5564 38.9031 34.5084 38.6014 34.6849 38.2915C34.8615 37.9817 35.1262 37.8493 35.4792 37.8944C35.8321 37.9395 36.0557 38.1335 36.1499 38.4763C36.2441 38.8192 36.1505 39.1 35.869 39.3188C35.5875 39.5376 35.2923 39.5586 34.9832 39.3816C34.6741 39.2047 34.5418 38.9399 34.5863 38.5872C34.6308 38.2346 34.7977 38.0045 35.0869 37.897C35.3761 37.7895 35.1913 37.9207 34.5325 38.2907C33.8737 38.6607 33.6795 38.5594 33.9502 37.9868C34.2208 37.4142 34.6954 37.071 35.374 36.9572C36.0526 36.8433 36.449 37.191 36.5633 38.0003C36.6777 38.8096 36.5773 39.4988 36.2621 40.0681C35.9469 40.6373 35.5023 41.2427 34.9283 41.8843C34.3543 42.5259 33.858 42.2427 33.4395 41.0346C33.021 39.8266 32.8855 38.8579 33.033 38.1286C33.1804 37.3992 33.418 37.3083 33.7457 37.8558C34.0735 38.4033 34.4503 38.7527 34.8761 38.904C35.302 39.0553 35.3716 39.477 35.0849 40.1691C34.7981 40.8613 34.3739 41.4211 33.8123 41.8486C33.2508 42.2762 32.769 41.9907 32.367 40.9922C31.965 39.9937 32.0031 39.1959 32.4813 38.5989C32.9595 38.0019 33.4108 37.7933 33.8351 37.973C34.2594 38.1528 34.3157 38.6185 34.0041 39.3702C33.6924 40.1218 33.388 40.9014 33.0907 41.7089C32.7934 42.5164 32.3825 43.1338 31.8579 43.561C31.3334 43.9883 30.8892 43.8776 30.5255 43.229C30.1617 42.5804 30.0469 41.8654 30.1809 41.0837C30.315 40.3021 30.5094 39.5714 30.7642 38.8914C31.019 38.2114 31.3132 37.6973 31.6467 37.3489C31.9801 37.0005 32.1755 36.7848 32.2327 36.7017C32.2899 36.6186 32.3608 36.5492 32.4454 36.4935C32.53 36.4378 32.6221 36.4008 32.7216 36.3827C32.8211 36.3645 32.9203 36.3656 33.0192 36.3859C33.1181 36.4062 33.2093 36.4452 33.293 36.5028C33.3766 36.5605 33.446 36.6314 33.5011 36.7156C33.5563 36.7997 33.5932 36.8918 33.612 36.9918C33.6307 37.0918 33.6296 37.191 33.6087 37.2895L33.5776 37.438Z" fill="#40C057" stroke="#40C057" stroke-linecap="round" stroke-linejoin="round"/>
<path d="M37.3833 42.3704C37.807 43.5609 37.978 44.4785 37.8962 45.1231C37.8145 45.7677 37.7562 46.4302 37.7213 47.1106C37.6864 47.791 37.4023 47.9669 36.8691 47.6384C36.3358 47.3099 36.0395 46.7856 35.98 46.0653C35.9205 45.3451 36.2459 44.4328 36.956 43.3287C37.6662 42.2245 38.259 41.9455 38.7345 42.4916C39.21 43.0377 39.4497 43.7468 39.4537 44.619C39.4577 45.4912 39.2007 45.9918 38.6827 46.1209C38.1646 46.25 37.9939 45.9595 38.1703 45.2495C38.3468 44.5395 38.6243 43.8914 39.0026 43.3052C39.381 42.7191 39.6884 42.7138 39.9249 43.2893C40.1614 43.8649 40.4779 44.4627 40.8745 45.0826C41.271 45.7026 41.2264 45.9301 40.7406 45.7651C40.2548 45.6002 39.99 45.1993 39.9462 44.5627C39.9023 43.926 40.0974 43.7587 40.5314 44.0608C40.9653 44.363 41.5201 44.4289 42.1957 44.2588C42.8713 44.0886 43.1438 44.3207 43.0131 44.9551C42.8824 45.5894 42.5499 45.7241 42.0157 45.3589C41.4814 44.9938 41.348 44.9479 41.6155 45.2211C41.8831 45.4943 42.0152 45.3002 42.0118 44.6387C42.0085 43.9773 42.1145 44.1971 42.3298 45.2983C42.5451 46.3995 42.7137 46.8143 42.8357 46.5427C42.9576 46.2711 43.1672 46.1396 43.4643 46.1482C43.7614 46.1569 43.963 46.3001 44.0692 46.578C44.1753 46.8559 44.1201 47.0971 43.9035 47.3016C43.6869 47.5061 43.4431 47.5474 43.1719 47.4254C42.9007 47.3035 42.7693 47.0939 42.7775 46.7966C42.7858 46.4994 42.9291 46.2977 43.2075 46.1916C43.4858 46.0856 43.7269 46.1408 43.9308 46.3572C44.1347 46.5737 44.3124 46.5063 44.464 46.155C44.6156 45.8037 44.5012 45.9177 44.1208 46.497C43.7404 47.0762 43.2043 47.4572 42.5126 47.6401C41.821 47.8229 41.3536 47.2335 41.1104 45.872C40.8673 44.5105 41.141 43.6106 41.9315 43.1725C42.722 42.7343 43.2686 42.9376 43.5711 43.7822C43.8737 44.6269 43.8359 45.4045 43.4578 46.115C43.0796 46.8254 42.4926 47.2178 41.6967 47.2921C40.9009 47.3664 40.3683 46.9194 40.0989 45.951C39.8296 44.9826 39.7822 44.1817 39.9568 43.5485C40.1313 42.9152 40.596 42.4296 41.3507 42.0917C42.1054 41.7538 42.4972 42.1923 42.5263 43.4073C42.5554 44.6223 42.416 45.5951 42.1082 46.3258C41.8004 47.0565 41.3057 47.62 40.6242 48.0162C39.9427 48.4124 39.3735 48.2512 38.9167 47.5326C38.4598 46.8141 38.3115 46.0896 38.4717 45.3594C38.6319 44.6291 38.9042 43.8626 39.2886 43.0597C39.6731 42.2569 40.2076 41.8019 40.8924 41.6946C41.5772 41.5874 41.8781 42.0848 41.7953 43.1868C41.7125 44.2889 41.4609 45.1575 41.0405 45.7927C40.6201 46.4279 40.2292 47.0477 39.868 47.6522C39.5068 48.2566 39.0206 48.6906 38.4095 48.954C37.7985 49.2175 37.2931 48.8735 36.8935 47.9222C36.4939 46.9708 36.4924 46.194 36.889 45.5915C37.2856 44.9891 37.7526 44.6284 38.2899 44.5095C38.8273 44.3906 39.0276 44.6658 38.8906 45.3354C38.7536 46.0049 38.5473 46.7457 38.2715 47.5579C37.9958 48.37 37.6027 49.0058 37.0922 49.4654C36.5817 49.9249 36.0489 49.8603 35.494 49.2715C34.9391 48.6827 34.6677 48.0312 34.6799 47.3168C34.6922 46.6025 34.7543 45.8678 34.8663 45.1126C34.9784 44.3574 35.1743 43.6969 35.454 43.1311C35.7338 42.5653 35.8862 42.2346 35.9113 42.1391C35.9364 42.0435 35.9785 41.9567 36.0376 41.8787C36.0967 41.8007 36.1687 41.7366 36.2538 41.6865C36.3388 41.6363 36.4299 41.6047 36.5271 41.5916C36.6242 41.5785 36.7205 41.5841 36.8158 41.6086C36.9111 41.633 36.9978 41.6751 37.0761 41.7348C37.1543 41.7945 37.2183 41.8666 37.2683 41.951C37.3182 42.0354 37.3499 42.1265 37.3632 42.2243L37.3833 42.3704Z" fill="#40C057" stroke="#40C057" stroke-linecap="round" stroke-linejoin="round"/>
<path d="M30.9614 45.5682C30.8396 46.1609 30.6838 46.8221 30.4941 47.5517C30.3044 48.2813 30.1322 48.9729 29.9777 49.6264C29.8231 50.28 29.5454 50.4783 29.1446 50.2213C28.7437 49.9644 28.4531 49.4955 28.2726 48.8147C28.092 48.1338 28.098 47.4928 28.2903 46.8917C28.4827 46.2906 28.7644 45.6416 29.1354 44.9446C29.5064 44.2476 30.0784 43.7719 30.8516 43.5174C31.6248 43.263 32.0872 43.6046 32.2386 44.5423C32.3901 45.4799 32.3833 46.3684 32.2184 47.2078C32.0535 48.0471 31.9301 48.7808 31.8483 49.4088C31.7664 50.0367 31.4735 50.3137 30.9694 50.2396C30.4653 50.1656 30.1961 49.7283 30.1617 48.9275C30.1272 48.1268 30.22 47.4199 30.4401 46.8066C30.6602 46.1934 30.8588 45.4955 31.0359 44.7131C31.213 43.9307 31.6398 43.3058 32.3163 42.8385C32.9928 42.3712 33.5343 42.5506 33.941 43.3769C34.3476 44.2033 34.4642 44.9567 34.2908 45.6374C34.1173 46.3181 33.949 46.9795 33.7858 47.6216C33.6226 48.2638 33.2813 48.5905 32.7618 48.6019C32.2424 48.6133 32.1632 48.7498 32.5244 49.0112C32.8856 49.2727 33.1057 49.4156 33.1846 49.44C33.2635 49.4644 33.1888 49.3732 32.9605 49.1664C32.7323 48.9596 32.6701 48.712 32.774 48.4234C32.8779 48.1349 33.083 47.9827 33.389 47.967C33.6951 47.9512 33.9142 48.0823 34.0461 48.3604C34.1781 48.6385 34.1407 48.8911 33.934 49.1181C33.7273 49.3452 33.4797 49.4073 33.1912 49.3046C32.9026 49.2019 32.9284 48.943 33.2683 48.528C33.6083 48.113 33.8915 47.9395 34.1178 48.0074C34.3442 48.0753 34.3145 48.425 34.0287 49.0565C33.743 49.6879 33.2446 50.2736 32.5336 50.8134C31.8227 51.3533 31.2979 51.0996 30.9592 50.0524C30.6205 49.0051 30.5267 48.1621 30.6778 47.5234C30.8288 46.8846 31.1647 46.3116 31.6854 45.8043C32.206 45.2971 32.7397 44.9916 33.2863 44.888C33.8329 44.7844 34.0248 45.0763 33.8617 45.7638C33.6987 46.4513 33.4478 47.2407 33.109 48.1321C32.7702 49.0235 32.4609 49.8162 32.1811 50.5101C31.9013 51.2039 31.4584 51.8055 30.8523 52.3146C30.2462 52.8237 29.7629 52.4267 29.4022 51.1235C29.0415 49.8203 28.9173 48.8399 29.0295 48.1822C29.1418 47.5246 29.3935 46.9273 29.7848 46.3904C30.1762 45.8535 30.667 45.5774 31.2574 45.5619C31.8477 45.5464 31.9891 45.8403 31.6816 46.4436C31.3741 47.0468 31.1059 47.6997 30.8772 48.4024C30.6484 49.1051 30.4165 49.7793 30.1815 50.4249C29.9464 51.0705 29.5105 51.5674 28.8738 51.9157C28.237 52.264 27.7718 52.1027 27.4781 51.4318C27.1844 50.7609 27.1109 50.1107 27.2575 49.4813C27.4041 48.8518 27.5747 48.1872 27.7693 47.4875C27.9639 46.7878 28.2224 46.1064 28.5448 45.4434C28.8673 44.7804 29.1875 44.4392 29.5055 44.4197C29.8235 44.4002 30.0264 44.367 30.1143 44.3201C30.2022 44.2731 30.2954 44.2442 30.394 44.2334C30.4927 44.2225 30.5898 44.2314 30.6855 44.2601C30.7813 44.2888 30.8676 44.3343 30.9447 44.3966C31.0218 44.4589 31.0842 44.534 31.1318 44.6217C31.1795 44.7095 31.2084 44.8028 31.2185 44.9015C31.2287 45.0002 31.2197 45.0974 31.1918 45.1932C31.1638 45.2889 31.1183 45.3753 31.0553 45.4522L30.9614 45.5682Z" fill="#E03131" stroke="#E03131" stroke-linecap="round" stroke-linejoin="round"/>
<path d="M42.7034 29.2167C42.8048 30.2114 42.792 31.0732 42.6649 31.8021C42.5378 32.531 42.3793 33.2551 42.1895 33.9745C41.9997 34.6938 41.705 35.0066 41.3055 34.9131C40.9059 34.8195 40.6011 34.4517 40.391 33.8096C40.1809 33.1676 40.1625 32.5283 40.3358 31.8919C40.509 31.2554 40.7261 30.6149 40.987 29.9703C41.248 29.3257 41.7078 28.775 42.3666 28.3183C43.0254 27.8615 43.6174 27.919 44.1424 28.4907C44.6675 29.0624 44.8767 29.6751 44.7702 30.3287C44.6636 30.9823 44.3838 31.2206 43.9309 31.0436C43.4779 30.8665 43.2782 30.3791 43.3317 29.5813C43.3852 28.7835 43.6506 28.4403 44.1278 28.5518C44.6049 28.6632 45.0304 28.9739 45.4042 29.4837C45.778 29.9934 45.7275 30.2286 45.2525 30.1892C44.7775 30.1497 44.5977 29.7647 44.713 29.0342C44.8282 28.3038 45.3111 27.6091 46.1615 26.9503C47.012 26.2916 47.5727 26.2555 47.8437 26.8423C48.1148 27.429 48.1603 28.1276 47.9803 28.9379C47.8003 29.7483 47.4616 30.1836 46.9643 30.2437C46.4671 30.3038 46.242 29.9352 46.2891 29.138C46.3362 28.3408 46.6105 27.9447 47.112 27.9496C47.6135 27.9545 47.5914 28.6491 47.0456 30.0332C46.4998 31.4174 46.2256 31.845 46.2229 31.3161C46.2203 30.7872 46.3721 30.5571 46.6784 30.6257C46.9847 30.6943 47.1651 30.8833 47.2196 31.1927C47.2741 31.5021 47.1685 31.7412 46.9028 31.9098C46.6372 32.0785 46.376 32.0724 46.1192 31.8917C45.8625 31.7109 45.7681 31.4672 45.8362 31.1605C45.9042 30.8538 46.0933 30.6733 46.4033 30.6192C46.7134 30.5651 46.8605 30.5349 46.8446 30.5287C46.8288 30.5225 46.6125 30.1973 46.1958 29.5533C45.7792 28.9093 45.7389 28.188 46.0749 27.3894C46.411 26.5909 46.8802 26.0023 47.4824 25.6238C48.0846 25.2452 48.5188 25.6592 48.7852 26.8656C49.0515 28.0721 49.0922 28.9918 48.9073 29.6247C48.7224 30.2576 48.4767 30.8834 48.1702 31.502C47.8637 32.1207 47.4165 32.565 46.8285 32.835C46.2405 33.1051 45.7427 32.7218 45.335 31.6852C44.9274 30.6486 44.9685 29.8755 45.4583 29.3659C45.9482 28.8563 46.4844 28.5504 47.0669 28.4482C47.6495 28.3461 47.7876 28.615 47.4814 29.2549C47.1752 29.8949 46.8533 30.516 46.5157 31.1183C46.1782 31.7206 45.692 32.1875 45.0574 32.5188C44.4227 32.8502 43.9396 32.4521 43.6078 31.3247C43.2761 30.1973 43.2102 29.2438 43.4102 28.4644C43.6102 27.685 44.0228 27.0621 44.6481 26.5959C45.2733 26.1297 45.6765 26.4686 45.8576 27.6125C46.0386 28.7564 46.0168 29.6306 45.7921 30.235C45.5673 30.8395 45.2929 31.4433 44.9687 32.0464C44.6444 32.6495 44.1845 33.0568 43.5888 33.2684C42.9931 33.48 42.5877 32.9465 42.3726 31.6681C42.1574 30.3896 42.3775 29.7535 43.0326 29.7596C43.6878 29.7657 43.8769 30.0858 43.6 30.7198C43.3231 31.3538 43.0981 31.978 42.9252 32.5925C42.7523 33.207 42.5271 33.8991 42.2498 34.6688C41.9725 35.4385 41.5042 36.0411 40.845 36.4767C40.1858 36.9123 39.7982 36.6632 39.6824 35.7295C39.5666 34.7957 39.5994 34.0018 39.781 33.3475C39.9625 32.6933 40.1315 32.0146 40.288 31.3115C40.4445 30.6084 40.6387 30.0356 40.8704 29.5932C41.1021 29.1508 41.237 28.8841 41.2752 28.7929C41.3133 28.7018 41.3665 28.6214 41.4346 28.5517C41.5028 28.4821 41.5827 28.428 41.6742 28.3897C41.7658 28.3513 41.8602 28.332 41.9577 28.3318C42.0551 28.3316 42.1497 28.3499 42.2415 28.3869C42.3334 28.4238 42.4138 28.477 42.4829 28.5464C42.5519 28.6157 42.6058 28.6956 42.6447 28.7861C42.6836 28.8765 42.7029 28.9709 42.7026 29.0694L42.7034 29.2167Z" fill="#4DABF7" stroke="#4DABF7" stroke-linecap="round" stroke-linejoin="round"/>
<path d="M15.6526 16.3262C15.577 17.3946 15.4567 18.2325 15.2916 18.84C15.1265 19.4474 14.9435 20.0971 14.7426 20.7891C14.5416 21.4811 14.2585 21.7672 13.8931 21.6476C13.5278 21.5279 13.2194 21.1708 12.9678 20.5764C12.7163 19.9819 12.7427 19.3427 13.0471 18.6587C13.3514 17.9748 13.8792 17.3329 14.6304 16.7331C15.3816 16.1333 15.9045 16.1712 16.1993 16.8466C16.4941 17.5221 16.5558 18.2041 16.3844 18.8927C16.213 19.5813 16.062 20.2484 15.9313 20.8938C15.8006 21.5393 15.5386 21.94 15.1453 22.0961C14.7521 22.2522 14.5991 21.9534 14.6864 21.1999C14.7737 20.4463 15.0353 20.0841 15.471 20.1132C15.9067 20.1423 16.2885 20.4589 16.6163 21.0631C16.944 21.6673 17.0142 22.3538 16.8267 23.1226C16.6392 23.8914 16.2325 24.6481 15.6066 25.3926C14.9807 26.1371 14.4737 26.2137 14.0855 25.6225C13.6973 25.0313 13.9653 23.9225 14.8893 22.2962C15.8133 20.6698 16.378 19.7573 16.5832 19.5587C16.7885 19.36 17.0223 19.3175 17.2846 19.4311C17.5469 19.5447 17.6756 19.7443 17.6708 20.0301C17.666 20.3158 17.5308 20.5112 17.2651 20.6163C16.9994 20.7213 16.7672 20.6711 16.5684 20.4658C16.3696 20.2605 16.3271 20.0267 16.4408 19.7644C16.5546 19.5022 16.7543 19.3734 17.0401 19.3782C17.3258 19.383 17.5211 19.5182 17.626 19.7839C17.7309 20.0495 17.5501 21.0067 17.0835 22.6553C16.6169 24.3039 16.1841 24.8797 15.7853 24.3826C15.3864 23.8855 14.9665 23.5166 14.5254 23.2757C14.0843 23.0349 13.9526 22.5553 14.1302 21.8368C14.3078 21.1183 14.4767 20.4246 14.6369 19.7555C14.7971 19.0865 15.2121 18.5461 15.8819 18.1345C16.5516 17.7228 17.0148 17.8792 17.2712 18.6035C17.5276 19.3278 17.5619 19.9998 17.374 20.6193C17.1861 21.2389 16.946 21.9107 16.6537 22.6347C16.3614 23.3586 15.9558 23.925 15.4368 24.3338C14.9178 24.7426 14.3945 24.4746 13.867 23.5298C13.3395 22.585 13.1322 21.7587 13.2451 21.051C13.3581 20.3433 13.6244 19.6889 14.0441 19.0879C14.4639 18.4868 14.8935 18.2292 15.3329 18.3149C15.7724 18.4006 15.8425 18.7605 15.5434 19.3946C15.2443 20.0287 14.994 20.713 14.7924 21.4474C14.5909 22.1818 14.2057 22.7539 13.637 23.1637C13.0683 23.5735 12.6813 23.3453 12.476 22.4789C12.2707 21.6125 12.2687 20.8327 12.47 20.1395C12.6713 19.4463 12.8716 18.7879 13.0709 18.1642C13.2702 17.5405 13.5108 17.0009 13.7925 16.5453C14.0743 16.0898 14.239 15.8192 14.2867 15.7334C14.3344 15.6476 14.3969 15.5742 14.474 15.5131C14.5512 15.452 14.637 15.4081 14.7314 15.3814C14.8258 15.3546 14.9218 15.3468 15.0195 15.3582C15.1171 15.3695 15.2089 15.3991 15.2947 15.447C15.3805 15.4949 15.4538 15.5573 15.5147 15.6344C15.5756 15.7114 15.6195 15.7972 15.6465 15.8916C15.6734 15.9861 15.6812 16.0822 15.6696 16.1799L15.6526 16.3262Z" fill="#E03131" stroke="#E03131" stroke-linecap="round" stroke-linejoin="round"/>
<path d="M17.6378 31.6088C17.4249 32.5816 17.1506 33.0418 16.815 32.9894C16.4794 32.937 16.3054 32.5421 16.2928 31.8048C16.2803 31.0675 16.5727 30.4029 17.1702 29.811C17.7676 29.2191 18.2328 29.2555 18.5658 29.9203C18.8988 30.585 18.9917 31.2989 18.8445 32.0617C18.6974 32.8246 18.5247 32.8631 18.3266 32.1773C18.1285 31.4914 18.386 30.9991 19.0991 30.7004C19.8123 30.4017 20.2237 30.6376 20.3334 31.4081C20.443 32.1786 20.3949 32.9059 20.1889 33.59C19.983 34.2741 19.5261 34.5108 18.8183 34.3C18.1105 34.0892 18.0258 33.94 18.5644 33.8525C19.1029 33.765 19.5328 33.9981 19.8542 34.5519C20.1756 35.1057 20.1176 35.2508 19.68 34.9875C19.2425 34.7241 19.0922 34.2312 19.2292 33.5089C19.3663 32.7865 19.5882 32.6797 19.8952 33.1884C20.2021 33.6972 20.5184 34.2899 20.844 34.9664C21.1696 35.643 20.9764 35.8948 20.2646 35.722C19.5527 35.5491 19.3392 35.1467 19.6239 34.515C19.9087 33.8832 20.2153 33.8251 20.5439 34.3408C20.8724 34.8564 21.2425 35.3629 21.6542 35.8602C22.0659 36.3575 22.0663 36.405 21.6555 36.0026C21.2446 35.6003 21.3964 34.9498 22.1108 34.0511C22.8252 33.1524 23.2947 33.0886 23.5193 33.8597C23.7439 34.6309 23.764 35.384 23.5797 36.1192C23.3955 36.8544 22.985 37.2444 22.3483 37.2893C21.7116 37.3341 21.4432 36.9623 21.543 36.1739C21.6427 35.3854 21.9107 35.1751 22.3469 35.5429C22.7831 35.9106 23.2316 36.34 23.6924 36.8309C24.1533 37.3217 24.1234 37.5845 23.6028 37.619C23.0822 37.6535 22.8369 37.3365 22.867 36.6679C22.8971 35.9993 23.1706 35.7244 23.6875 35.8431C24.2045 35.9617 24.6679 36.3016 25.0779 36.8628C25.4879 37.424 25.3619 37.8768 24.6997 38.2212C24.0376 38.5657 23.7983 38.3584 23.9819 37.5994C24.1655 36.8403 24.4949 36.5779 24.9701 36.8121C25.4452 37.0464 25.8034 37.5352 26.0448 38.2785C26.2861 39.0219 26.1298 39.4728 25.5759 39.6314C25.022 39.7899 24.841 39.4629 25.0331 38.6502C25.2251 37.8376 25.4238 37.2844 25.6292 36.9904C25.8347 36.6965 26.1126 36.5885 26.4629 36.6666C26.8132 36.7446 27.0192 36.96 27.0809 37.3127C27.1426 37.6654 27.0224 37.9383 26.7203 38.1312C26.4182 38.3241 26.1202 38.3174 25.8264 38.1112C25.5325 37.905 25.4246 37.6271 25.5028 37.2775C25.5809 36.928 25.7964 36.722 26.1492 36.6595C26.502 36.597 26.7747 36.7172 26.9674 37.02C27.16 37.3229 26.782 38.3927 25.8331 40.2294C24.8843 42.0662 24.2074 42.4152 23.8025 41.2765C23.3976 40.1378 23.2658 39.2205 23.4072 38.5246C23.5485 37.8287 23.7209 37.1591 23.9244 36.5158C24.1279 35.8725 24.5924 35.3138 25.3179 34.8398C26.0435 34.3658 26.5823 34.5283 26.9345 35.3273C27.2867 36.1264 27.3749 36.8841 27.1989 37.6007C27.023 38.3172 26.8121 39.0024 26.5662 39.6563C26.3204 40.3102 25.8132 40.7475 25.0448 40.9682C24.2764 41.1888 23.6514 40.9382 23.1697 40.2164C22.688 39.4946 22.4792 38.789 22.5433 38.0997C22.6073 37.4104 22.7505 36.6455 22.9729 35.805C23.1952 34.9644 23.6756 34.3012 24.4141 33.8153C25.1525 33.3294 25.6305 33.5499 25.8479 34.4767C26.0654 35.4036 26.0505 36.1846 25.8034 36.8197C25.5562 37.4548 25.2817 38.093 24.9797 38.7341C24.6778 39.3753 24.2058 39.8768 23.5636 40.2386C22.9215 40.6005 22.3609 40.4293 21.8819 39.7253C21.4029 39.0212 21.1964 38.3313 21.2624 37.6554C21.3284 36.9795 21.4332 36.2588 21.5769 35.4933C21.7206 34.7277 22.1163 34.1335 22.764 33.7107C23.4117 33.288 23.8892 33.5324 24.1965 34.4439C24.5038 35.3555 24.5486 36.1972 24.3309 36.969C24.1133 37.7407 23.7905 38.3838 23.3625 38.898C22.9346 39.4123 22.3385 39.5188 21.5743 39.2177C20.8101 38.9165 20.4191 38.3292 20.4014 37.4557C20.3837 36.5823 20.485 35.7647 20.7054 35.0031C20.9258 34.2414 21.1941 34.135 21.5105 34.6839C21.8268 35.2328 22.2657 35.498 22.8271 35.4796C23.3886 35.4611 23.499 35.7817 23.1585 36.4415C22.8179 37.1013 22.313 37.5958 21.6439 37.925C20.9747 38.2543 20.4252 37.9356 19.9954 36.9689C19.5657 36.0022 19.4696 35.1534 19.7072 34.4224C19.9448 33.6915 20.4087 33.1555 21.0989 32.8145C21.789 32.4735 22.1863 32.8592 22.2906 33.9717C22.395 35.0842 22.2928 35.9281 21.9841 36.5034C21.6753 37.0787 21.1469 37.4721 20.3988 37.6836C19.6507 37.8952 19.1142 37.6256 18.7893 36.875C18.4644 36.1243 18.388 35.443 18.56 34.8311C18.732 34.2191 18.9316 33.6155 19.1589 33.0202C19.3861 32.4249 19.8442 31.978 20.5333 31.6795C21.2223 31.3809 21.5876 31.7911 21.6293 32.91C21.6709 34.0289 21.5117 34.9111 21.1515 35.5566C20.7914 36.2021 20.2978 36.6943 19.6709 37.0331C19.044 37.3719 18.5558 36.9047 18.2063 35.6317C17.8567 34.3586 17.807 33.4231 18.057 32.8252C18.3071 32.2272 18.7663 31.7714 19.4347 31.4576C20.1031 31.1438 20.5217 31.4467 20.6905 32.3664C20.8592 33.286 20.8135 34.0601 20.5533 34.6888C20.2931 35.3175 19.8686 35.7867 19.28 36.0964C18.6914 36.4062 18.1674 36.1404 17.7081 35.299C17.2487 34.4577 17.3057 33.8002 17.8789 33.3265C18.4521 32.8529 18.9231 32.7557 19.2919 33.035C19.6607 33.3143 19.6392 33.7407 19.2276 34.314C18.8159 34.8874 18.2162 35.1532 17.4286 35.1114C16.6409 35.0697 16.195 34.6485 16.091 33.8479C15.987 33.0473 16.1667 32.4077 16.6301 31.929C17.0935 31.4503 17.4896 31.3259 17.8184 31.5559C18.1472 31.7859 18.152 32.2544 17.833 32.9615C17.5139 33.6685 17.0455 34.1524 16.4279 34.4131C15.8102 34.6737 15.4909 34.3864 15.4698 33.5511C15.4488 32.7157 15.5708 32.0877 15.8358 31.6669C16.1008 31.2462 16.2604 30.9942 16.3147 30.9108C16.3689 30.8275 16.437 30.7588 16.5191 30.7047C16.6012 30.6505 16.6904 30.613 16.7868 30.5922C16.8833 30.5713 16.9801 30.5709 17.0773 30.5909C17.1744 30.611 17.2641 30.6476 17.3461 30.7007C17.4282 30.7539 17.497 30.8221 17.5524 30.9052C17.6079 30.9884 17.6453 31.0777 17.6647 31.1731C17.6841 31.2685 17.6846 31.3653 17.666 31.4634L17.6378 31.6088Z" fill="#E03131" stroke="#E03131" stroke-linecap="round" stroke-linejoin="round"/>
<path d="M25.9434 16.1769C28.2558 17.9025 29.3877 18.9673 29.3392 19.3711C29.2907 19.7748 29.0707 20.0316 28.679 20.1415C28.2874 20.2513 27.966 20.1462 27.7148 19.8263C27.4637 19.5064 27.4378 19.1693 27.637 18.8149C27.8362 18.4605 28.1377 18.3075 28.5417 18.3559C28.9457 18.4043 29.2024 18.6244 29.3118 19.0161C29.4213 19.4078 29.3162 19.7292 28.9966 19.9803C28.6769 20.2315 28.3398 20.2574 27.9852 20.0583C27.6306 19.8591 27.0186 19.3399 26.149 18.5006C25.2795 17.6614 24.8177 17.2 24.7635 17.1165C24.7094 17.0331 24.6735 16.9423 24.6557 16.8443C24.6379 16.7463 24.6394 16.6487 24.6603 16.5515C24.6811 16.4542 24.7199 16.3646 24.7765 16.2827C24.8332 16.2008 24.9033 16.1329 24.9869 16.079C25.0705 16.0251 25.1613 15.9891 25.2592 15.9711C25.3572 15.9531 25.4548 15.9546 25.5519 15.9757C25.6491 15.9967 25.7387 16.0355 25.8206 16.0921L25.9434 16.1769Z" fill="#E03131" stroke="#E03131" stroke-linecap="round" stroke-linejoin="round"/>
<path d="M27.0535 15.8524C28.4583 17.3732 29.2759 18.2138 29.5062 18.3742C29.7365 18.5347 29.8216 18.7521 29.7616 19.0266C29.7015 19.301 29.5333 19.4628 29.2568 19.512C28.9804 19.5612 28.7664 19.4677 28.615 19.2314C28.4636 18.995 28.4682 18.7616 28.6288 18.5311C28.7894 18.3006 29.0068 18.2155 29.281 18.2758C29.5553 18.3361 29.717 18.5044 29.7664 18.7807C29.8157 19.057 29.7222 19.2709 29.4857 19.4225C29.2493 19.574 28.5552 19.123 27.4036 18.0696C26.2519 17.0161 25.6644 16.4415 25.6412 16.3456C25.618 16.2497 25.6141 16.1529 25.6295 16.0553C25.645 15.9577 25.6783 15.8669 25.7297 15.7827C25.781 15.6986 25.8467 15.6274 25.9265 15.5692C26.0064 15.5111 26.0943 15.4704 26.1902 15.4474C26.286 15.4244 26.3828 15.4204 26.4804 15.4356C26.5781 15.4507 26.6689 15.4841 26.7529 15.5358C26.837 15.5876 26.9081 15.6532 26.9664 15.7327L27.0535 15.8524Z" fill="#E03131" stroke="#E03131" stroke-linecap="round" stroke-linejoin="round"/>
<path d="M24.3568 17.4601C27.1424 18.9292 28.591 19.8619 28.7026 20.2584C28.8141 20.6548 28.7081 20.9804 28.3846 21.2353C28.061 21.4901 27.7197 21.5168 27.3605 21.3154C27.0014 21.1139 26.8461 20.8087 26.8948 20.3997C26.9434 19.9907 27.166 19.7304 27.5623 19.6188C27.9587 19.5072 28.2843 19.6133 28.5391 19.9369C28.7939 20.2606 28.8205 20.602 28.6189 20.9612C28.4174 21.3204 28.1122 21.4757 27.7035 21.4271C27.2947 21.3785 26.5069 20.9284 25.34 20.0767C24.1732 19.225 23.552 18.7663 23.4765 18.7005C23.401 18.6347 23.3408 18.5568 23.2959 18.4668C23.251 18.3767 23.2252 18.2818 23.2186 18.1818C23.2119 18.0818 23.2244 17.9842 23.2561 17.889C23.2877 17.7937 23.3366 17.7083 23.4027 17.6328C23.4688 17.5573 23.5467 17.4971 23.6364 17.4522C23.7261 17.4072 23.8211 17.3814 23.9214 17.3748C24.0216 17.3681 24.1192 17.3806 24.2142 17.4123L24.3568 17.4601Z" fill="#E03131" stroke="#E03131" stroke-linecap="round" stroke-linejoin="round"/>
<path d="M26.8017 15.4201C29.6193 17.4107 31.1395 18.6493 31.3623 19.1359C31.5852 19.6225 31.5145 20.0619 31.1504 20.4541C30.7862 20.8463 30.3532 20.9492 29.8515 20.7628C29.3497 20.5764 29.089 20.2156 29.0694 19.6806C29.0498 19.1455 29.2833 18.7667 29.7699 18.544C30.2565 18.3213 30.6959 18.392 31.0879 18.756C31.48 19.1201 31.5828 19.5531 31.3963 20.0551C31.2098 20.5571 30.8491 20.8178 30.3142 20.8372C29.7793 20.8566 28.8752 20.1403 27.6019 18.6884C26.3286 17.2365 25.6641 16.468 25.6085 16.3831C25.5528 16.2982 25.5157 16.2062 25.4971 16.1071C25.4786 16.008 25.4795 15.9087 25.4998 15.8093C25.5202 15.7099 25.559 15.6186 25.6164 15.5353C25.6737 15.4521 25.7445 15.3826 25.8287 15.3269C25.9129 15.2711 26.005 15.234 26.1047 15.2155C26.2045 15.197 26.3038 15.1979 26.4025 15.2182C26.5012 15.2385 26.5925 15.2773 26.6764 15.3347L26.8017 15.4201Z" fill="#E03131" stroke="#E03131" stroke-linecap="round" stroke-linejoin="round"/>
<path d="M34.8288 18.3694C37.6386 16.9079 39.2801 16.2071 39.7534 16.267C40.2266 16.327 40.5261 16.587 40.6518 17.0472C40.7775 17.5073 40.6519 17.8836 40.2748 18.176C39.8978 18.4683 39.5022 18.4962 39.0879 18.2596C38.6736 18.023 38.4965 17.6681 38.5565 17.1949C38.6165 16.7217 38.8766 16.4222 39.3367 16.2964C39.7969 16.1705 40.1731 16.2962 40.4653 16.6734C40.7576 17.0507 40.7855 17.4463 40.5489 17.8605C40.3124 18.2746 39.3465 18.7117 37.6513 19.1716C35.956 19.6315 35.059 19.8609 34.9602 19.8597C34.8614 19.8585 34.7667 19.8385 34.6761 19.7997C34.5854 19.7609 34.5055 19.7063 34.4363 19.6357C34.3672 19.5652 34.3143 19.4841 34.2778 19.3924C34.2413 19.3008 34.2234 19.2056 34.2243 19.107C34.2251 19.0084 34.2451 18.9137 34.2842 18.8228C34.3234 18.732 34.3781 18.6521 34.4483 18.5831C34.5184 18.5141 34.5995 18.4612 34.6915 18.4245L34.8288 18.3694Z" fill="#E03131" stroke="#E03131" stroke-linecap="round" stroke-linejoin="round"/>
<path d="M36.6435 19.5217C39.1103 18.4246 40.5851 17.9376 41.0679 18.0606C41.5507 18.1836 41.8275 18.4917 41.8984 18.9848C41.9694 19.4778 41.7907 19.8516 41.3625 20.106C40.9343 20.3605 40.5207 20.3384 40.1217 20.04C39.7228 19.7415 39.5849 19.3508 39.7081 18.8681C39.8314 18.3853 40.1395 18.1084 40.6324 18.0374C41.1253 17.9664 41.499 18.1451 41.7533 18.5736C42.0076 19.002 41.9856 19.4156 41.6871 19.8145C41.3887 20.2133 40.5272 20.5136 39.1025 20.7152C37.6779 20.9168 36.9158 21.0185 36.8161 21.0201C36.7165 21.0217 36.6205 21.0042 36.5281 20.9675C36.4357 20.9308 36.3537 20.8778 36.2822 20.8087C36.2107 20.7395 36.1552 20.6592 36.1157 20.5678C36.0762 20.4764 36.0557 20.3809 36.0542 20.2814C36.0526 20.1819 36.0701 20.0859 36.1068 19.9933C36.1434 19.9008 36.1964 19.8188 36.2657 19.7473C36.3349 19.6758 36.4152 19.6203 36.5065 19.5808L36.6435 19.5217Z" fill="#E03131" stroke="#E03131" stroke-linecap="round" stroke-linejoin="round"/>
<path d="M38.9893 21.2018C41.216 20.2954 42.4747 19.8591 42.7656 19.8929C43.0564 19.9267 43.2419 20.0844 43.3219 20.3659C43.402 20.6475 43.3272 20.8792 43.0977 21.0612C42.8682 21.2432 42.6255 21.2628 42.3696 21.12C42.1138 20.9773 42.0028 20.7606 42.0368 20.47C42.0707 20.1793 42.2285 19.9938 42.5101 19.9135C42.7917 19.8331 43.0234 19.9079 43.2051 20.1379C43.3868 20.3678 43.4064 20.6105 43.2639 20.8659C43.1214 21.1213 42.4291 21.4867 41.187 21.9621C39.9448 22.4375 39.2747 22.6764 39.1765 22.6786C39.0783 22.6808 38.9834 22.6646 38.8917 22.6299C38.8 22.5953 38.7185 22.5439 38.6472 22.476C38.5758 22.4081 38.5202 22.3294 38.4802 22.2401C38.4402 22.1508 38.4189 22.0568 38.4163 21.9582C38.4136 21.8596 38.4299 21.7647 38.4649 21.6734C38.5 21.5821 38.5513 21.5006 38.6189 21.4288C38.6864 21.3571 38.765 21.3014 38.8547 21.2618L38.9893 21.2018Z" fill="#E03131" stroke="#E03131" stroke-linecap="round" stroke-linejoin="round"/>
<path d="M38.5061 23.1773C42.1334 22.1111 44.0742 21.6503 44.3288 21.7949C44.5833 21.9395 44.6926 22.1571 44.6565 22.4477C44.6204 22.7384 44.4611 22.9225 44.1787 23.0002C43.8963 23.078 43.6652 23.0013 43.4855 22.7703C43.3057 22.5393 43.2882 22.2964 43.4327 22.0417C43.5772 21.787 43.7949 21.6778 44.0856 21.7141C44.3763 21.7504 44.5604 21.9097 44.6378 22.192C44.7153 22.4743 44.6386 22.7054 44.4079 22.8852C44.1772 23.0651 43.2609 23.3776 41.659 23.823C40.0572 24.2683 39.2097 24.5065 39.1166 24.5376C39.0235 24.5686 38.9278 24.5808 38.8294 24.574C38.7311 24.5672 38.638 24.5419 38.5502 24.4979C38.4623 24.454 38.3861 24.3949 38.3215 24.3206C38.2569 24.2463 38.209 24.1625 38.1779 24.0693C38.1468 23.9761 38.1346 23.8804 38.1415 23.7821C38.1483 23.6839 38.1737 23.5908 38.2176 23.5028C38.2614 23.4149 38.3206 23.3386 38.3949 23.2741L38.5061 23.1773Z" fill="#E03131" stroke="#E03131" stroke-linecap="round" stroke-linejoin="round"/>
<path d="M28.9749 21.7076C31.7725 20.0695 33.4464 19.3 33.9966 19.3992C34.5469 19.4983 34.8814 19.8211 35.0002 20.3675C35.1189 20.9138 34.9488 21.3465 34.4897 21.6654C34.0306 21.9844 33.5658 21.9927 33.0953 21.6904C32.6247 21.3881 32.4392 20.9619 32.5388 20.4117C32.6383 19.8615 32.9611 19.5269 33.5072 19.408C34.0532 19.2891 34.4858 19.4594 34.8049 19.9187C35.124 20.3781 35.1323 20.8429 34.8297 21.313C34.5272 21.7832 33.5581 22.2057 31.9224 22.5807C30.2867 22.9557 29.4198 23.1498 29.3216 23.1629C29.2235 23.176 29.1268 23.17 29.0317 23.1449C28.9366 23.1198 28.8496 23.0774 28.7708 23.0176C28.692 22.9578 28.6279 22.8852 28.5784 22.7998C28.5289 22.7145 28.4975 22.623 28.484 22.5253C28.4706 22.4276 28.4766 22.331 28.502 22.2353C28.5274 22.1397 28.5699 22.0527 28.6294 21.9743C28.6888 21.8959 28.7614 21.8318 28.8471 21.782L28.9749 21.7076Z" fill="#4DABF7" stroke="#4DABF7" stroke-linecap="round" stroke-linejoin="round"/>
<path d="M29.7527 22.7619C32.9342 21.6739 34.7284 21.1865 35.1352 21.2995C35.5419 21.4126 35.7709 21.6786 35.8221 22.0976C35.8733 22.5166 35.7151 22.83 35.3475 23.0378C34.98 23.2456 34.63 23.2194 34.2976 22.9592C33.9651 22.699 33.8554 22.3655 33.9684 21.9589C34.0815 21.5522 34.3475 21.3232 34.7666 21.2719C35.1857 21.2205 35.499 21.3787 35.7066 21.7465C35.9142 22.1143 35.888 22.4644 35.6279 22.7966C35.3679 23.1289 34.3755 23.4538 32.6506 23.7715C30.9257 24.0892 30.0139 24.2483 29.9152 24.249C29.8165 24.2497 29.7214 24.2317 29.6299 24.1952C29.5384 24.1587 29.4574 24.1057 29.3868 24.0361C29.3162 23.9666 29.2617 23.8866 29.2231 23.7962C29.1845 23.7058 29.1648 23.611 29.1638 23.512C29.1628 23.413 29.1807 23.3178 29.2176 23.2265C29.2545 23.1352 29.3075 23.0542 29.3767 22.9835C29.4458 22.9128 29.5258 22.8582 29.6166 22.8198L29.7527 22.7619Z" fill="#4DABF7" stroke="#4DABF7" stroke-linecap="round" stroke-linejoin="round"/>
<path d="M32.2626 24.2256C35.0445 22.9142 36.574 22.3301 36.8511 22.4733C37.1282 22.6165 37.2536 22.8435 37.2271 23.1544C37.2007 23.4653 37.0389 23.668 36.7419 23.7625C36.4449 23.857 36.1958 23.7851 35.9945 23.5469C35.7932 23.3086 35.7643 23.0509 35.9078 22.7737C36.0512 22.4966 36.2782 22.3712 36.5888 22.3977C36.8994 22.4241 37.102 22.5859 37.1968 22.883C37.2915 23.1801 37.2196 23.4293 36.981 23.6305C36.7423 23.8317 36.0129 24.2081 34.7926 24.7595C33.5723 25.3109 32.9142 25.6004 32.8181 25.628C32.7221 25.6556 32.6248 25.6635 32.5263 25.6518C32.4278 25.64 32.3348 25.6102 32.2475 25.5623C32.1602 25.5143 32.0858 25.4512 32.0243 25.3727C31.9628 25.2943 31.9182 25.2075 31.8904 25.1123C31.8627 25.0171 31.8547 24.9198 31.8667 24.8204C31.8786 24.721 31.9084 24.628 31.9562 24.5415C32.004 24.4549 32.0672 24.3805 32.1458 24.3182L32.2626 24.2256Z" fill="#4DABF7" stroke="#4DABF7" stroke-linecap="round" stroke-linejoin="round"/>
<path d="M34.0806 23.9133C35.5357 23.1174 36.4045 22.7312 36.6869 22.7548C36.9693 22.7784 37.1536 22.9252 37.2398 23.1953C37.326 23.4654 37.2609 23.6919 37.0444 23.8748C36.8279 24.0577 36.5938 24.0842 36.342 23.9544C36.0902 23.8245 35.9761 23.6183 35.9998 23.3358C36.0236 23.0532 36.1704 22.8688 36.4403 22.7827C36.7103 22.6966 36.9367 22.7618 37.1197 22.9782C37.3026 23.1946 37.3292 23.4288 37.1992 23.6807C37.0693 23.9327 36.6426 24.2612 35.9191 24.6664C35.1957 25.0717 34.7857 25.2897 34.6893 25.3206C34.5928 25.3515 34.4942 25.3627 34.3936 25.3542C34.2929 25.3457 34.1975 25.3182 34.1075 25.2719C34.0174 25.2256 33.9398 25.1638 33.8746 25.0865C33.8095 25.0091 33.7614 24.9223 33.7305 24.826C33.6995 24.7297 33.6884 24.6311 33.697 24.5301C33.7056 24.4292 33.733 24.3338 33.7792 24.2441C33.8254 24.1544 33.8872 24.0768 33.9647 24.0112L34.0806 23.9133Z" fill="#4DABF7" stroke="#4DABF7" stroke-linecap="round" stroke-linejoin="round"/>
<path d="M17.0788 10.2898C20.1541 9.65388 21.9077 9.47038 22.3395 9.73927C22.7714 10.0082 22.9457 10.3936 22.8625 10.8955C22.7793 11.3974 22.49 11.706 21.9945 11.8213C21.499 11.9366 21.1033 11.7873 20.8072 11.3736C20.5111 10.9599 20.4976 10.537 20.7666 10.1052C21.0356 9.67327 21.421 9.49891 21.9229 9.58207C22.4247 9.66524 22.7332 9.95462 22.8483 10.4502C22.9635 10.9458 22.8142 11.3416 22.4006 11.6377C21.987 11.9337 20.9946 12.0424 19.4233 11.9637C17.852 11.885 17.0168 11.8353 16.9177 11.8147C16.8186 11.7941 16.7272 11.7554 16.6437 11.6986C16.5601 11.6418 16.4905 11.571 16.4349 11.4864C16.3792 11.4018 16.342 11.3099 16.3232 11.2106C16.3044 11.1113 16.3052 11.0121 16.3256 10.9129C16.346 10.8137 16.3847 10.7223 16.4417 10.6388C16.4987 10.5553 16.5694 10.4857 16.6538 10.43C16.7382 10.3743 16.8302 10.337 16.9297 10.3183L17.0788 10.2898Z" fill="#4DABF7" stroke="#4DABF7" stroke-linecap="round" stroke-linejoin="round"/>
<path d="M18.1149 11.3122C20.9964 13.161 22.5788 14.2419 22.8622 14.5549C23.1456 14.8679 23.197 15.2151 23.0165 15.5966C22.836 15.9781 22.5348 16.1585 22.113 16.1378C21.6911 16.1171 21.4093 15.9079 21.2674 15.5102C21.1255 15.1124 21.211 14.7719 21.5238 14.4887C21.8366 14.2054 22.1839 14.154 22.5655 14.3346C22.9471 14.5152 23.1274 14.8164 23.1064 15.2382C23.0854 15.66 22.8762 15.9418 22.4788 16.0837C22.0814 16.2256 21.1492 15.6981 19.6822 14.5012C18.2151 13.3043 17.4413 12.6767 17.3606 12.6186C17.2799 12.5605 17.2133 12.4892 17.1606 12.4046C17.108 12.3201 17.0737 12.2286 17.0577 12.1303C17.0417 12.0321 17.0451 11.9345 17.0677 11.8377C17.0904 11.7408 17.1307 11.6519 17.1888 11.571C17.2469 11.4901 17.3182 11.4235 17.4028 11.3712C17.4873 11.3189 17.5788 11.2846 17.677 11.2682C17.7753 11.2519 17.8728 11.2553 17.9697 11.2782L18.1149 11.3122Z" fill="#4DABF7" stroke="#4DABF7" stroke-linecap="round" stroke-linejoin="round"/>
<path d="M22.3401 9.61167C24.006 12.9901 24.7474 14.8189 24.5645 15.0981C24.3816 15.3773 24.1262 15.4858 23.7983 15.4236C23.4705 15.3615 23.2725 15.167 23.2044 14.8404C23.1363 14.5137 23.2402 14.2564 23.5161 14.0684C23.792 13.8804 24.0695 13.8779 24.3485 14.0609C24.6276 14.2439 24.736 14.4993 24.6739 14.8271C24.6117 15.1549 24.4172 15.3529 24.0905 15.4211C23.7637 15.4893 23.5064 15.3854 23.3186 15.1094C23.1308 14.8334 22.681 13.9351 21.9692 12.4145C21.2574 10.8939 20.894 10.0843 20.8789 9.98566C20.8638 9.88703 20.8682 9.78952 20.8921 9.69315C20.9161 9.59677 20.9574 9.50833 21.0162 9.42782C21.075 9.34731 21.147 9.28146 21.2324 9.23026C21.3177 9.17907 21.4095 9.14581 21.5077 9.13049C21.6059 9.11517 21.7034 9.1196 21.8003 9.14378C21.8972 9.16796 21.9856 9.20929 22.0654 9.26778C22.1453 9.32628 22.2111 9.39839 22.2629 9.48411L22.3401 9.61167Z" fill="#4DABF7" stroke="#4DABF7" stroke-linecap="round" stroke-linejoin="round"/>
<path d="M45.0812 18.0509C46.0915 18.7989 47.1652 19.5629 48.3025 20.343C49.4397 21.1232 50.1497 21.5845 50.4326 21.7269C50.7154 21.8694 50.8452 22.0985 50.8219 22.4143C50.7986 22.73 50.6366 22.9376 50.3358 23.0371C50.0351 23.1365 49.7813 23.0663 49.5746 22.8264C49.3678 22.5865 49.3356 22.3251 49.478 22.0423C49.6203 21.7595 49.8495 21.6297 50.1654 21.6529C50.4813 21.6762 50.6888 21.8383 50.7881 22.1391C50.8873 22.44 50.817 22.6938 50.5772 22.9004C50.3375 23.1071 49.2507 22.8033 47.317 21.9889C45.3834 21.1746 44.3183 20.4645 44.1218 19.8584C43.9253 19.2523 43.8063 18.9037 43.7647 18.8125C43.7231 18.7214 43.7008 18.6255 43.6977 18.525C43.6947 18.4244 43.7107 18.3273 43.7458 18.2336C43.781 18.1399 43.833 18.0563 43.9018 17.9828C43.9707 17.9093 44.0507 17.852 44.142 17.811C44.2332 17.7699 44.329 17.7476 44.4295 17.744C44.53 17.7404 44.627 17.7564 44.7207 17.7921C44.8143 17.8277 44.8979 17.8797 44.9714 17.948L45.0812 18.0509Z" fill="#4DABF7" stroke="#4DABF7" stroke-linecap="round" stroke-linejoin="round"/>
<path d="M46.6738 16.9143C47.6191 16.9947 48.8453 17.5994 50.3524 18.7285C51.8594 19.8576 52.6282 20.5809 52.6589 20.8985C52.6897 21.2162 52.5641 21.45 52.2823 21.5999C52.0005 21.7499 51.7365 21.7234 51.4904 21.5204C51.2442 21.3173 51.1677 21.0632 51.2609 20.7581C51.3541 20.4529 51.5595 20.285 51.8773 20.2544C52.195 20.2238 52.4287 20.3494 52.5784 20.6311C52.728 20.9128 52.7015 21.1768 52.4986 21.4231C52.2958 21.6694 52.0418 21.7458 51.7366 21.6526C51.4314 21.5593 50.4704 21.1719 48.8536 20.4903C47.2368 19.8088 46.3239 19.2546 46.115 18.8277C45.906 18.4008 45.7665 18.1514 45.6963 18.0796C45.6262 18.0078 45.5725 17.9253 45.5352 17.8321C45.4979 17.7389 45.4798 17.6422 45.4809 17.5419C45.482 17.4417 45.5023 17.3453 45.5419 17.2529C45.5816 17.1605 45.6372 17.0793 45.7088 17.0095C45.7805 16.9396 45.863 16.8858 45.9563 16.8483C46.0497 16.8108 46.1464 16.7927 46.2466 16.794C46.3468 16.7954 46.443 16.8157 46.5354 16.8551L46.6738 16.9143Z" fill="#4DABF7" stroke="#4DABF7" stroke-linecap="round" stroke-linejoin="round"/>
<path d="M41.5883 14.5818C43.2642 16.2541 44.2082 17.1963 44.4204 17.4083C44.6326 17.6202 44.6814 17.8648 44.5667 18.1419C44.4521 18.419 44.2448 18.5577 43.9449 18.5579C43.6451 18.5582 43.4377 18.4198 43.3228 18.1427C43.2078 17.8656 43.2564 17.621 43.4684 17.4087C43.6805 17.1965 43.925 17.1478 44.2021 17.2625C44.4791 17.3773 44.6177 17.5846 44.6179 17.8843C44.6181 18.1841 44.4797 18.3915 44.2027 18.5066C43.9257 18.6217 43.2566 18.1916 42.1955 17.2163C41.1344 16.241 40.5728 15.7147 40.5106 15.6373C40.4484 15.5599 40.4034 15.4732 40.3755 15.3774C40.3476 15.2816 40.3392 15.1843 40.3502 15.0857C40.3612 14.987 40.3905 14.894 40.4383 14.8065C40.4861 14.719 40.5489 14.6443 40.6268 14.5822C40.7047 14.5201 40.7913 14.4751 40.8866 14.4472C40.9819 14.4193 41.0792 14.4108 41.1783 14.4219C41.2774 14.4329 41.3705 14.4623 41.4576 14.51L41.5883 14.5818Z" fill="#FFC078" stroke="#FFC078" stroke-linecap="round" stroke-linejoin="round"/>
<path d="M43.19 13.4044C45.0467 15.049 46.1166 15.9891 46.3999 16.2247C46.6832 16.4604 46.7702 16.7542 46.6608 17.1062C46.5515 17.4582 46.3134 17.651 45.9464 17.6846C45.5795 17.7182 45.3103 17.572 45.1387 17.246C44.9671 16.92 44.9992 16.6152 45.235 16.3317C45.4708 16.0482 45.7646 15.9612 46.1164 16.0707C46.4683 16.1802 46.661 16.4184 46.6947 16.7853C46.7284 17.1522 46.5822 17.4215 46.2559 17.5931C45.9297 17.7647 45.1156 17.24 43.8135 16.0187C42.5114 14.7975 41.8438 14.1396 41.8106 14.045C41.7775 13.9504 41.7638 13.8529 41.7697 13.7526C41.7755 13.6523 41.8002 13.557 41.8438 13.4667C41.8875 13.3765 41.9467 13.2979 42.0217 13.231C42.0966 13.1642 42.1814 13.1143 42.276 13.0812C42.3707 13.0482 42.4682 13.0345 42.5685 13.0403C42.6689 13.046 42.7641 13.0707 42.8543 13.1144C42.9444 13.1581 43.0229 13.2174 43.0899 13.2922L43.19 13.4044Z" fill="#FFC078" stroke="#FFC078" stroke-linecap="round" stroke-linejoin="round"/>
<path d="M30.8857 13.8609C32.626 15.2185 33.5947 16.0304 33.7916 16.2968C33.9885 16.5632 34.0016 16.8384 33.831 17.1223C33.6603 17.4062 33.4111 17.5236 33.0835 17.4745C32.7558 17.4253 32.552 17.24 32.4721 16.9185C32.3921 16.5971 32.4853 16.3379 32.7517 16.1409C33.0181 15.944 33.2932 15.9309 33.5771 16.1016C33.8609 16.2724 33.9783 16.5216 33.9291 16.8493C33.88 17.177 33.6947 17.3808 33.3732 17.4608C33.0518 17.5408 32.3576 17.1201 31.2908 16.1988C30.224 15.2774 29.6677 14.7726 29.6218 14.6842C29.5759 14.5958 29.5488 14.5021 29.5404 14.4029C29.532 14.3038 29.5427 14.2067 29.5727 14.1118C29.6027 14.0168 29.6498 13.9313 29.714 13.8553C29.7783 13.7793 29.8545 13.7183 29.9428 13.6725C30.031 13.6267 30.1248 13.5995 30.224 13.591C30.3233 13.5826 30.4203 13.5933 30.5151 13.6234C30.61 13.6534 30.6954 13.7006 30.7715 13.7648L30.8857 13.8609Z" fill="#40C057" stroke="#40C057" stroke-linecap="round" stroke-linejoin="round"/>
<path d="M31.6643 14.0385C33.8189 15.4794 35.0241 16.2661 35.2799 16.3986C35.5357 16.531 35.6513 16.7408 35.6268 17.028C35.6023 17.3152 35.4527 17.5024 35.1782 17.5895C34.9036 17.6765 34.6736 17.61 34.488 17.3897C34.3024 17.1694 34.2758 16.9313 34.4083 16.6755C34.5408 16.4197 34.7506 16.304 35.0377 16.3285C35.3249 16.353 35.5119 16.5026 35.5989 16.7772C35.6859 17.0519 35.6193 17.282 35.3992 17.4676C35.1792 17.6532 34.3139 17.2976 32.8035 16.4011C31.2931 15.5045 30.5126 15.0138 30.4622 14.9291C30.4117 14.8443 30.3793 14.7531 30.3648 14.6555C30.3504 14.5578 30.3553 14.4611 30.3795 14.3653C30.4038 14.2696 30.4453 14.1821 30.5041 14.103C30.5628 14.0239 30.6347 13.959 30.7196 13.9083C30.8045 13.8576 30.8957 13.8251 30.9933 13.8109C31.0909 13.7967 31.1875 13.8016 31.2833 13.8256C31.379 13.8495 31.4665 13.8911 31.5457 13.9502L31.6643 14.0385Z" fill="#40C057" stroke="#40C057" stroke-linecap="round" stroke-linejoin="round"/>
<path d="M32.0572 12.5548C35.1352 14.5994 36.7445 15.7785 36.8852 16.092C37.0259 16.4055 36.9784 16.6872 36.7427 16.9371C36.5069 17.1869 36.2285 17.2508 35.9074 17.1288C35.5863 17.0067 35.4208 16.7739 35.4107 16.4303C35.4007 16.0868 35.5524 15.8447 35.866 15.7041C36.1796 15.5635 36.4612 15.611 36.7109 15.8468C36.9607 16.0825 37.0245 16.361 36.9024 16.6822C36.7803 17.0034 36.5475 17.169 36.204 17.179C35.8605 17.1889 34.9272 16.6185 33.404 15.4677C31.8809 14.3169 31.0873 13.704 31.0234 13.629C30.9595 13.5541 30.9125 13.4698 30.8823 13.3764C30.8522 13.2829 30.841 13.1871 30.8487 13.0888C30.8565 12.9905 30.8828 12.8977 30.9278 12.8103C30.9727 12.723 31.0325 12.6473 31.1073 12.5833C31.1821 12.5194 31.2664 12.4723 31.36 12.4422C31.4536 12.4121 31.5495 12.4009 31.6475 12.4086C31.7456 12.4163 31.8384 12.4427 31.926 12.4876L32.0572 12.5548Z" fill="#40C057" stroke="#40C057" stroke-linecap="round" stroke-linejoin="round"/>
<path d="M34.3284 12.1924C36.9204 13.9922 38.2921 15.0546 38.4435 15.3795C38.595 15.7044 38.5495 15.999 38.3072 16.2634C38.0649 16.5277 37.7754 16.5985 37.4386 16.4757C37.1018 16.353 36.9257 16.1126 36.9101 15.7544C36.8946 15.3962 37.0493 15.1414 37.3743 14.99C37.6993 14.8387 37.9938 14.8841 38.258 15.1264C38.5222 15.3687 38.5929 15.6582 38.4702 15.9951C38.3475 16.3319 38.1071 16.5081 37.749 16.5237C37.3909 16.5393 36.5594 16.0182 35.2544 14.9605C33.9495 13.9027 33.2658 13.3335 33.2036 13.2529C33.1413 13.1722 33.0968 13.0826 33.0703 12.984C33.0437 12.8854 33.0369 12.7856 33.0499 12.6845C33.0629 12.5834 33.0949 12.4886 33.1458 12.4001C33.1968 12.3116 33.2626 12.2363 33.3431 12.1741C33.4237 12.1118 33.5133 12.0674 33.612 12.0407C33.7107 12.0141 33.8105 12.0073 33.9115 12.0203C34.0124 12.0334 34.1072 12.0654 34.1958 12.1163L34.3284 12.1924Z" fill="#40C057" stroke="#40C057" stroke-linecap="round" stroke-linejoin="round"/>
<path d="M25.3127 11.5633C25.8775 10.7287 27.079 10.2382 28.917 10.092C30.7551 9.94585 31.78 9.97717 31.9918 10.186C32.2036 10.3948 32.2538 10.6371 32.1422 10.9128C32.0307 11.1885 31.826 11.3275 31.5283 11.3299C31.2306 11.3322 31.0239 11.1963 30.9082 10.9222C30.7925 10.648 30.8389 10.405 31.0474 10.1932C31.256 9.98136 31.4982 9.93127 31.7742 10.0429C32.0503 10.1546 32.1892 10.3592 32.1911 10.6568C32.193 10.9545 32.0571 11.1612 31.7836 11.2771C31.51 11.3929 30.7539 11.5925 29.5154 11.8758C28.2769 12.159 27.4196 12.3794 26.9436 12.5369C26.4676 12.6943 26.1851 12.7946 26.096 12.8378C26.0069 12.881 25.9132 12.9055 25.8151 12.9112C25.7169 12.917 25.621 12.9038 25.5274 12.8716C25.4338 12.8394 25.3502 12.7904 25.2767 12.7248C25.2032 12.6592 25.1448 12.582 25.1014 12.4933C25.058 12.4047 25.0335 12.311 25.028 12.2124C25.0225 12.1138 25.0357 12.0178 25.0677 11.9245C25.0997 11.8313 25.1486 11.7478 25.2144 11.674L25.3127 11.5633Z" fill="#40C057" stroke="#40C057" stroke-linecap="round" stroke-linejoin="round"/>
<path d="M26.8149 12.5775C30.2789 11.3471 32.2003 10.7694 32.5791 10.8445C32.958 10.9196 33.1852 11.1465 33.2608 11.5253C33.3364 11.904 33.2137 12.2008 32.8927 12.4157C32.5717 12.6306 32.2506 12.6308 31.9294 12.4163C31.6081 12.2018 31.4851 11.9052 31.5601 11.5265C31.6352 11.1478 31.8621 10.9205 32.241 10.8447C32.6198 10.7689 32.9166 10.8916 33.1313 11.2129C33.346 11.5342 33.3462 11.8554 33.1318 12.1764C32.9175 12.4974 31.8525 12.8983 29.937 13.3793C28.0215 13.8602 27.0136 14.0988 26.9134 14.0951C26.8132 14.0914 26.7174 14.0689 26.626 14.0276C26.5346 13.9863 26.4547 13.9288 26.3864 13.8553C26.318 13.7818 26.2662 13.6981 26.2308 13.6044C26.1954 13.5106 26.1795 13.4135 26.1832 13.313C26.1868 13.2124 26.2094 13.1166 26.2507 13.0255C26.2921 12.9344 26.3495 12.8544 26.4231 12.7857C26.4966 12.7169 26.5802 12.6651 26.6739 12.6302L26.8149 12.5775Z" fill="#40C057" stroke="#40C057" stroke-linecap="round" stroke-linejoin="round"/>
<path d="M28.3303 13.2578C30.6276 13.1412 31.8781 13.1796 32.082 13.3731C32.2859 13.5666 32.3375 13.7945 32.2368 14.0569C32.1361 14.3192 31.9452 14.4542 31.6643 14.4617C31.3833 14.4693 31.1856 14.3445 31.0713 14.0876C30.9569 13.8306 30.9965 13.6003 31.1901 13.3965C31.3836 13.1928 31.6115 13.1412 31.8739 13.2418C32.1363 13.3423 32.2712 13.5331 32.2786 13.8143C32.2859 14.0955 32.1612 14.2932 31.9044 14.4074C31.6476 14.5216 31.0263 14.6128 30.0406 14.6812C29.0549 14.7495 28.5118 14.7813 28.4115 14.7766C28.3112 14.7719 28.2156 14.7483 28.1249 14.7058C28.0341 14.6633 27.9548 14.605 27.8871 14.5307C27.8194 14.4565 27.7685 14.3722 27.7346 14.278C27.7006 14.1837 27.6858 14.0864 27.6903 13.9861C27.6947 13.8858 27.7183 13.7902 27.7611 13.6994C27.8038 13.6086 27.8622 13.5294 27.9362 13.4616C28.0101 13.3939 28.0944 13.343 28.1889 13.3091L28.3303 13.2578Z" fill="#40C057" stroke="#40C057" stroke-linecap="round" stroke-linejoin="round"/>
<path d="M36.2579 9.28065C38.8322 11.7333 40.1688 13.0925 40.2674 13.3582C40.3661 13.6239 40.3115 13.8532 40.1038 14.046C39.8961 14.2388 39.6634 14.2762 39.4058 14.1581C39.1483 14.04 39.0247 13.8393 39.0353 13.556C39.0458 13.2727 39.184 13.0817 39.4497 12.9832C39.7155 12.8846 39.9447 12.9392 40.1374 13.1469C40.33 13.3546 40.3674 13.5873 40.2493 13.8449C40.1312 14.1025 39.9305 14.2261 39.6472 14.2155C39.3639 14.205 38.5075 13.5077 37.078 12.1236C35.6484 10.7395 34.9176 10.0004 34.8853 9.90613C34.8531 9.81187 34.8402 9.71514 34.8467 9.61592C34.8533 9.5167 34.8784 9.42238 34.9222 9.33297C34.966 9.24356 35.0253 9.16603 35.1002 9.10038C35.1751 9.03472 35.2596 8.9858 35.3537 8.95362C35.4478 8.92144 35.5446 8.90857 35.6439 8.91502C35.7432 8.92147 35.8376 8.94664 35.9269 8.99052C36.0163 9.0344 36.0938 9.09372 36.1594 9.16848L36.2579 9.28065Z" fill="#40C057" stroke="#40C057" stroke-linecap="round" stroke-linejoin="round"/>
<path d="M36.0483 9.21058C36.6231 10.0625 37.2184 10.8736 37.8344 11.6437C38.4503 12.4139 38.8642 12.822 39.0762 12.8681C39.2881 12.9141 39.4408 13.0721 39.5342 13.3421C39.6277 13.612 39.5674 13.8419 39.3535 14.0316C39.1396 14.2214 38.9042 14.2537 38.6473 14.1286C38.3904 14.0034 38.2705 13.7983 38.2876 13.5133C38.3047 13.2282 38.4483 13.0389 38.7185 12.9453C38.9887 12.8517 39.2185 12.912 39.4079 13.1261C39.5974 13.3402 39.593 13.5901 39.3949 13.8757C39.1968 14.1612 38.2983 13.7666 36.6993 12.6917C35.1003 11.6169 34.3392 10.825 34.4158 10.3159C34.4925 9.80691 34.5295 9.50204 34.5269 9.40132C34.5243 9.30061 34.5412 9.20283 34.5775 9.10799C34.6139 9.01314 34.6669 8.92923 34.7365 8.85623C34.8061 8.78324 34.8872 8.72605 34.9797 8.68465C35.0723 8.64325 35.1691 8.6214 35.2702 8.6191C35.3713 8.61679 35.4691 8.63367 35.5635 8.66973C35.6579 8.70579 35.7418 8.75877 35.8151 8.82868C35.8884 8.89859 35.9456 8.97968 35.9868 9.07194L36.0483 9.21058Z" fill="#40C057" stroke="#40C057" stroke-linecap="round" stroke-linejoin="round"/>
<path d="M39.1689 10.9015C40.7738 11.8785 41.6386 12.5231 41.7632 12.8354C41.8879 13.1476 41.8298 13.4211 41.5891 13.6558C41.3485 13.8904 41.0736 13.9415 40.7646 13.8088C40.4556 13.6762 40.3033 13.4418 40.3078 13.1056C40.3123 12.7694 40.4706 12.539 40.7827 12.4144C41.0948 12.2898 41.3682 12.3478 41.6029 12.5886C41.8377 12.8293 41.8886 13.1042 41.7558 13.4132C41.623 13.7222 41.3886 13.8745 41.0526 13.8701C40.7167 13.8657 40.1759 13.5812 39.4302 13.0166C38.6846 12.452 38.2768 12.1343 38.2069 12.0635C38.137 11.9926 38.0832 11.9112 38.0455 11.8191C38.0078 11.727 37.9892 11.6311 37.9898 11.5315C37.9904 11.4319 38.01 11.3363 38.0486 11.2447C38.0872 11.1531 38.1418 11.0723 38.2125 11.0021C38.2832 10.9319 38.3647 10.8781 38.4569 10.8407C38.5491 10.8032 38.645 10.7847 38.7444 10.785C38.8439 10.7853 38.9395 10.8049 39.0313 10.8438L39.1689 10.9015Z" fill="#40C057" stroke="#40C057" stroke-linecap="round" stroke-linejoin="round"/>
<path d="M14.6603 35.3863C14.9406 36.731 14.6672 38.146 13.8401 39.6312C13.0131 41.1165 12.5476 41.6073 12.4437 41.1037C12.3398 40.6002 12.4415 40.3499 12.7487 40.3529C13.0558 40.356 13.2667 40.4999 13.3812 40.7848C13.4957 41.0698 13.4434 41.3197 13.2242 41.5346C13.0051 41.7495 12.7542 41.7969 12.4715 41.6766C12.1889 41.5563 12.0492 41.3426 12.0525 41.0353C12.0558 40.7281 12.1997 40.5173 12.4844 40.4028C12.769 40.2884 12.9068 40.2302 12.8978 40.2281C12.8887 40.226 12.7451 39.6669 12.4671 38.5507C12.189 37.4345 12.2296 36.5835 12.589 35.9977C12.9483 35.4118 13.1461 35.0719 13.1824 34.9779C13.2186 34.884 13.2717 34.8001 13.3417 34.7265C13.4117 34.6528 13.4929 34.5957 13.5851 34.5552C13.6774 34.5148 13.7742 34.4931 13.8756 34.4901C13.977 34.4872 14.0748 34.5042 14.1689 34.5412C14.2631 34.5782 14.3469 34.6313 14.4203 34.7006C14.4937 34.7698 14.5508 34.8509 14.5916 34.944C14.6324 35.0371 14.6541 35.1339 14.6565 35.2345L14.6603 35.3863Z" fill="#40C057" stroke="#40C057" stroke-linecap="round" stroke-linejoin="round"/>
<path d="M16.7557 36.5433C16.8053 37.7019 16.5211 38.8881 15.9031 40.1018C15.285 41.3156 15.0144 41.9415 15.0913 41.9795C15.1681 42.0175 15.2728 42.199 15.4052 42.524C15.5375 42.8491 15.4789 43.135 15.2294 43.3818C14.9798 43.6287 14.6932 43.6839 14.3696 43.5477C14.046 43.4114 13.8853 43.1677 13.8875 42.8167C13.8896 42.4657 14.0533 42.2239 14.3784 42.0915C14.7035 41.9591 14.9894 42.0178 15.2361 42.2674C15.4827 42.5171 15.4008 42.8217 14.9904 43.1812C14.58 43.5406 14.3323 42.6465 14.2474 40.4988C14.1626 38.3511 14.3182 37.0656 14.7144 36.6424C15.1106 36.2191 15.335 35.9647 15.3876 35.879C15.4402 35.7933 15.5071 35.7211 15.5883 35.6625C15.6695 35.6039 15.7589 35.5628 15.8566 35.5392C15.9542 35.5155 16.0526 35.5118 16.1516 35.5279C16.2507 35.5441 16.343 35.5783 16.4285 35.6305C16.514 35.6827 16.5862 35.7497 16.645 35.8313C16.7039 35.9129 16.745 36.0023 16.7682 36.0995C16.7915 36.1968 16.7952 36.2951 16.7795 36.3946L16.7557 36.5433Z" fill="#40C057" stroke="#40C057" stroke-linecap="round" stroke-linejoin="round"/>
<path d="M18.045 37.3688C18.0791 38.5002 17.8258 39.9444 17.285 41.7016C16.7442 43.4588 16.3843 44.5114 16.2054 44.8595C16.0265 45.2076 15.7421 45.3656 15.3521 45.3334C14.9622 45.3013 14.7074 45.0989 14.5878 44.7264C14.4683 44.3539 14.5577 44.041 14.8561 43.7877C15.1546 43.5345 15.4778 43.4975 15.8259 43.6766C16.174 43.8558 16.332 44.1403 16.2998 44.53C16.2676 44.9197 16.0652 45.1745 15.6926 45.2944C15.32 45.4142 15.0072 45.3248 14.754 45.0261C14.5009 44.7274 14.5847 43.5404 15.0053 41.4651C15.426 39.3898 15.7948 38.1177 16.1117 37.6488C16.4287 37.18 16.61 36.9019 16.6555 36.8146C16.701 36.7273 16.7615 36.6517 16.8369 36.5878C16.9124 36.524 16.9972 36.4773 17.0914 36.4478C17.1855 36.4184 17.2817 36.4077 17.38 36.4157C17.4783 36.4238 17.5712 36.4508 17.6589 36.4967C17.7466 36.5426 17.8222 36.6031 17.8857 36.6782C17.9491 36.7532 17.9958 36.8381 18.0256 36.9326C18.0555 37.0272 18.0661 37.1235 18.0577 37.2214L18.045 37.3688Z" fill="#40C057" stroke="#40C057" stroke-linecap="round" stroke-linejoin="round"/>
<path d="M10.7487 31.2509C10.4537 33.3332 10.2108 34.5157 10.02 34.7985C9.82923 35.0813 9.56671 35.1887 9.23246 35.1207C8.89822 35.0527 8.6986 34.8512 8.63363 34.5164C8.56865 34.1816 8.67835 33.92 8.96271 33.7317C9.24707 33.5434 9.53068 33.5447 9.81354 33.7355C10.0964 33.9263 10.2038 34.1889 10.1356 34.5232C10.0674 34.8576 9.86595 35.0572 9.53118 35.1221C9.1964 35.187 8.93488 35.0773 8.74662 34.7929C8.55835 34.5085 8.60222 33.7688 8.87821 32.5738C9.15421 31.3788 9.31642 30.7378 9.36485 30.6508C9.41329 30.5639 9.4765 30.4895 9.55448 30.4277C9.63247 30.366 9.71934 30.3215 9.81509 30.2942C9.91085 30.2669 10.0082 30.259 10.107 30.2706C10.2059 30.2821 10.2988 30.3121 10.3857 30.3604C10.4726 30.4087 10.547 30.4719 10.6088 30.55C10.6706 30.6281 10.7151 30.7151 10.7423 30.8108C10.7694 30.9065 10.7773 31.0038 10.7659 31.1026L10.7487 31.2509Z" fill="#FFC078" stroke="#FFC078" stroke-linecap="round" stroke-linejoin="round"/>
<path d="M11.6174 31.9359C10.7678 34.6603 10.2132 36.135 9.95351 36.36C9.69382 36.585 9.41038 36.6206 9.10319 36.4668C8.79601 36.3129 8.65468 36.0647 8.67921 35.722C8.70374 35.3794 8.87899 35.1537 9.20497 35.0451C9.53095 34.9365 9.80646 35.0122 10.0315 35.272C10.2566 35.5318 10.2921 35.8153 10.138 36.1225C9.984 36.4297 9.73573 36.571 9.39323 36.5464C9.05073 36.5218 8.82518 36.3466 8.7166 36.0206C8.60801 35.6947 8.82468 34.8393 9.3666 33.4542C9.90852 32.0692 10.2064 31.3344 10.2603 31.2498C10.3142 31.1653 10.3822 31.0942 10.4644 31.0365C10.5465 30.9787 10.6367 30.9391 10.7347 30.9176C10.8327 30.8961 10.9311 30.8939 11.0298 30.9111C11.1285 30.9282 11.2202 30.9639 11.3049 31.0181C11.3896 31.0724 11.4607 31.1404 11.5182 31.2222C11.5758 31.304 11.6154 31.3941 11.6371 31.4925C11.6588 31.5909 11.661 31.6893 11.6436 31.7877L11.6174 31.9359Z" fill="#FFC078" stroke="#FFC078" stroke-linecap="round" stroke-linejoin="round"/>
<path d="M12.7414 33.5625C12.0183 36.1543 11.5569 37.57 11.3573 37.8096C11.1577 38.0492 10.9089 38.1226 10.6111 38.0299C10.3133 37.9371 10.1504 37.7354 10.1223 37.4247C10.0942 37.1141 10.2182 36.8863 10.4943 36.7413C10.7703 36.5964 11.0281 36.6238 11.2678 36.8235C11.5074 37.0233 11.5808 37.272 11.4878 37.5697C11.3949 37.8674 11.1931 38.0303 10.8826 38.0586C10.5721 38.0868 10.3444 37.9628 10.1994 37.6867C10.0545 37.4105 10.2055 36.5664 10.6522 35.1542C11.099 33.742 11.3481 32.994 11.3996 32.9101C11.4511 32.8262 11.5167 32.7554 11.5966 32.6977C11.6765 32.64 11.7642 32.5998 11.8599 32.577C11.9556 32.5542 12.052 32.5506 12.1493 32.5661C12.2465 32.5817 12.3371 32.6153 12.4209 32.6669C12.5047 32.7186 12.5755 32.7843 12.6332 32.8639C12.691 32.9436 12.7312 33.0314 12.7539 33.1272C12.7766 33.2231 12.7803 33.3196 12.7648 33.4168L12.7414 33.5625Z" fill="#FFC078" stroke="#FFC078" stroke-linecap="round" stroke-linejoin="round"/>
<path d="M13.1123 34.8965C12.5594 37.1857 12.1794 38.4288 11.9723 38.6257C11.7652 38.8226 11.5311 38.863 11.2699 38.7469C11.0088 38.6309 10.8818 38.43 10.8891 38.1442C10.8965 37.8585 11.0335 37.6643 11.3003 37.5618C11.567 37.4593 11.7987 37.5116 11.9954 37.7188C12.1921 37.9259 12.2325 38.1601 12.1165 38.4212C12.0005 38.6823 11.7997 38.8093 11.514 38.802C11.2283 38.7947 11.0341 38.6577 10.9316 38.391C10.8291 38.1243 10.922 37.404 11.2103 36.2302C11.4986 35.0564 11.6656 34.4254 11.7115 34.3371C11.7574 34.2488 11.8184 34.1726 11.8945 34.1086C11.9706 34.0446 12.0562 33.9976 12.1511 33.9674C12.2461 33.9373 12.3431 33.9266 12.4422 33.9353C12.5413 33.944 12.635 33.9712 12.7235 34.0171C12.8119 34.0629 12.8881 34.1239 12.952 34.2001C13.016 34.2763 13.063 34.3619 13.093 34.4568C13.123 34.5518 13.1337 34.6488 13.1251 34.7479L13.1123 34.8965Z" fill="#FFC078" stroke="#FFC078" stroke-linecap="round" stroke-linejoin="round"/>
<path d="M20.0449 21.2027C20.1153 22.2842 19.849 23.4824 19.2459 24.7972C18.6429 26.1121 18.3609 26.7772 18.4 26.7926C18.4391 26.808 18.5288 26.9368 18.6691 27.179C18.8094 27.4212 18.7944 27.6536 18.6242 27.8761C18.454 28.0987 18.2336 28.1737 17.963 28.1012C17.6925 28.0288 17.5388 27.8539 17.502 27.5767C17.4652 27.2994 17.568 27.0905 17.8104 26.9499C18.0528 26.8094 18.2851 26.8244 18.5073 26.9949C18.7295 27.1654 18.6853 27.4119 18.3747 27.7344C18.0641 28.0568 17.8438 27.1721 17.714 25.0801C17.5841 22.9882 17.6964 21.7371 18.0507 21.3269C18.405 20.9167 18.6071 20.6681 18.6569 20.5811C18.7068 20.4941 18.7714 20.4199 18.8508 20.3585C18.9302 20.297 19.0183 20.2532 19.1152 20.2269C19.2121 20.2006 19.3103 20.1939 19.4097 20.2066C19.5092 20.2193 19.6025 20.2506 19.6896 20.3005C19.7768 20.3504 19.851 20.4151 19.9122 20.4944C19.9735 20.5738 20.0173 20.6619 20.0437 20.7589C20.0702 20.8558 20.077 20.954 20.064 21.0534L20.0449 21.2027Z" fill="#FFC078" stroke="#FFC078" stroke-linecap="round" stroke-linejoin="round"/>
<path d="M22.0467 22.0593C22.0502 23.2261 21.8104 24.5775 21.3271 26.1135C20.8439 27.6494 20.4499 28.5818 20.1451 28.9106C19.8404 29.2393 19.4779 29.3258 19.0576 29.1699C18.6374 29.0141 18.4189 28.7122 18.4021 28.2644C18.3853 27.8165 18.5805 27.4991 18.9877 27.3121C19.3949 27.125 19.7629 27.1839 20.0916 27.4888C20.4203 27.7936 20.5067 28.1562 20.3507 28.5763C20.1948 28.9965 19.8929 29.2151 19.4451 29.232C18.9973 29.2489 18.6799 29.0537 18.493 28.6464C18.3062 28.2391 18.4366 27.1913 18.8844 25.5031C19.3322 23.8149 19.733 22.7388 20.0868 22.2749C20.4406 21.811 20.6419 21.5365 20.6906 21.4514C20.7393 21.3663 20.8025 21.2938 20.8802 21.2338C20.9579 21.1737 21.044 21.131 21.1385 21.1055C21.2331 21.0799 21.329 21.0733 21.4264 21.0857C21.5237 21.098 21.6149 21.1287 21.6999 21.1776C21.7849 21.2266 21.8574 21.2898 21.9174 21.3672C21.9774 21.4446 22.0202 21.5307 22.0458 21.6256C22.0714 21.7205 22.078 21.8164 22.0654 21.9135L22.0467 22.0593Z" fill="#FFC078" stroke="#FFC078" stroke-linecap="round" stroke-linejoin="round"/>
<path d="M22.9838 24.5063C21.7749 27.8066 21.0379 29.5602 20.7728 29.767C20.5076 29.9737 20.2289 29.9943 19.9366 29.8285C19.6442 29.6628 19.5186 29.4131 19.5597 29.0794C19.6008 28.7457 19.7835 28.534 20.1077 28.4445C20.4318 28.3549 20.6972 28.4427 20.9039 28.7078C21.1105 28.973 21.1309 29.2518 20.9652 29.5442C20.7994 29.8367 20.5497 29.9623 20.216 29.921C19.8823 29.8797 19.6707 29.697 19.5812 29.373C19.4917 29.049 19.8019 28.0514 20.5118 26.3802C21.2217 24.7089 21.6058 23.8324 21.664 23.7507C21.7222 23.6689 21.7938 23.6014 21.8789 23.5482C21.9639 23.495 22.0559 23.4601 22.155 23.4434C22.2541 23.4267 22.3524 23.4296 22.4501 23.4522C22.5477 23.4748 22.6374 23.5152 22.7192 23.5734C22.801 23.6317 22.8684 23.7033 22.9216 23.7883C22.9748 23.8733 23.0097 23.9654 23.0264 24.0645C23.0431 24.1635 23.0401 24.2619 23.0175 24.3596L22.9838 24.5063Z" fill="#FFC078" stroke="#FFC078" stroke-linecap="round" stroke-linejoin="round"/>
<path d="M25.0317 26.3569C24.4757 30.1113 24.0475 32.1513 23.7472 32.4769C23.4469 32.8025 23.0889 32.8889 22.6731 32.736C22.2573 32.5831 22.0405 32.2854 22.0228 31.8428C22.005 31.4002 22.1971 31.0859 22.5992 30.9001C23.0012 30.7142 23.365 30.7714 23.6906 31.0717C24.0161 31.3721 24.1024 31.7301 23.9495 32.1459C23.7965 32.5617 23.4987 32.7785 23.0562 32.7963C22.6136 32.8141 22.2994 32.622 22.1136 32.2199C21.9277 31.8178 22.1239 30.6649 22.7022 28.7612C23.2804 26.8574 23.5932 25.8617 23.6405 25.7741C23.6878 25.6865 23.7501 25.6114 23.8274 25.5486C23.9046 25.4858 23.991 25.4403 24.0863 25.4119C24.1817 25.3834 24.2789 25.3744 24.3779 25.3847C24.477 25.395 24.5702 25.4238 24.6577 25.471C24.7452 25.5183 24.8204 25.5806 24.8831 25.6579C24.9459 25.7351 24.9914 25.8214 25.0198 25.9168C25.0482 26.0122 25.0573 26.1094 25.0471 26.2085L25.0317 26.3569Z" fill="#F76707" stroke="#F76707" stroke-linecap="round" stroke-linejoin="round"/>
<path d="M27.2391 26.7917C27.2209 28.086 27.0188 29.3297 26.6331 30.5226C26.2474 31.7156 26.0274 32.4693 25.9733 32.7838C25.9191 33.0983 25.7364 33.2906 25.425 33.3609C25.1137 33.4312 24.8661 33.3359 24.6822 33.0752C24.4983 32.8144 24.4915 32.5491 24.6618 32.2794C24.8322 32.0097 25.0746 31.9019 25.3892 31.9561C25.7037 32.0103 25.896 32.1931 25.9662 32.5045C26.0363 32.8159 25.941 33.0636 25.6804 33.2475C25.4197 33.4313 25.1545 33.4381 24.8848 33.2677C24.615 33.0973 24.5 32.1426 24.5399 30.4034C24.5797 28.6642 24.802 27.5422 25.2069 27.0373C25.6117 26.5325 25.8395 26.2378 25.8903 26.1532C25.941 26.0686 26.006 25.9971 26.0851 25.9387C26.1643 25.8803 26.2516 25.8391 26.3471 25.8152C26.4426 25.7912 26.5391 25.7866 26.6366 25.8013C26.7341 25.816 26.8249 25.8487 26.9092 25.8993C26.9934 25.95 27.0649 26.015 27.1236 26.0942C27.1824 26.1735 27.2235 26.2608 27.2471 26.3563C27.2706 26.4518 27.2752 26.5483 27.261 26.6457L27.2391 26.7917Z" fill="#F76707" stroke="#F76707" stroke-linecap="round" stroke-linejoin="round"/>
<path d="M28.647 29.5845C28.099 32.0531 27.7404 33.3996 27.5711 33.6239C27.4018 33.8482 27.1811 33.925 26.9088 33.8544C26.6366 33.7838 26.4812 33.6093 26.4425 33.3309C26.4038 33.0525 26.5056 32.8421 26.7478 32.6997C26.99 32.5572 27.2233 32.5707 27.4478 32.7401C27.6722 32.9094 27.749 33.1302 27.6781 33.4023C27.6073 33.6745 27.4327 33.8299 27.1545 33.8687C26.8763 33.9074 26.6659 33.8057 26.5234 33.5634C26.3808 33.3211 26.4518 32.5269 26.7364 31.1809C27.021 29.8348 27.1861 29.1171 27.2318 29.0278C27.2775 28.9385 27.3386 28.8614 27.4152 28.7964C27.4918 28.7315 27.5777 28.6836 27.673 28.6529C27.7684 28.6221 27.8662 28.6108 27.9664 28.619C28.0667 28.6271 28.1613 28.654 28.2504 28.6998C28.3394 28.7456 28.4165 28.8068 28.4817 28.8832C28.5469 28.9597 28.5947 29.0457 28.6253 29.1413C28.6559 29.2369 28.6671 29.3346 28.6591 29.4345L28.647 29.5845Z" fill="#F76707" stroke="#F76707" stroke-linecap="round" stroke-linejoin="round"/>
<path d="M12.9167 24.6648C13.0737 25.7585 12.9111 26.6009 12.429 27.192C11.947 27.7832 11.6701 28.073 11.5984 28.0616C11.5266 28.0501 11.6064 28.1242 11.8377 28.2839C12.0691 28.4437 12.1552 28.6609 12.096 28.9357C12.0368 29.2105 11.8691 29.3733 11.5927 29.4239C11.3164 29.4746 11.1019 29.3818 10.9492 29.1456C10.7965 28.9094 10.8001 28.6757 10.96 28.4445C11.1199 28.2133 11.3372 28.1272 11.6119 28.1862C11.8866 28.2453 11.8954 28.4835 11.6382 28.9011C11.3811 29.3186 11.1003 28.8436 10.7959 27.4761C10.4915 26.1086 10.5275 25.2226 10.9039 24.8181C11.2804 24.4136 11.4922 24.1681 11.5393 24.0814C11.5864 23.9948 11.6485 23.9205 11.7255 23.8586C11.8026 23.7967 11.8883 23.7518 11.9828 23.7239C12.0773 23.6961 12.1738 23.6874 12.2721 23.698C12.3705 23.7086 12.4628 23.7376 12.5492 23.7848C12.6356 23.8321 12.7099 23.8942 12.772 23.9711C12.8342 24.048 12.8791 24.1338 12.9067 24.2284C12.9343 24.323 12.9429 24.4195 12.9325 24.5177L12.9167 24.6648Z" fill="#4DABF7" stroke="#4DABF7" stroke-linecap="round" stroke-linejoin="round"/>
<path d="M14.4035 25.7983C14.2718 28.9808 14.0774 30.7901 13.8202 31.2261C13.5631 31.662 13.184 31.8447 12.683 31.774C12.182 31.7034 11.8682 31.423 11.7417 30.9328C11.6152 30.4426 11.7541 30.0454 12.1586 29.7411C12.5631 29.4368 12.9832 29.4132 13.419 29.6704C13.8548 29.9275 14.0374 30.3066 13.9667 30.8078C13.896 31.309 13.6155 31.6228 13.1252 31.7492C12.6349 31.8756 12.2378 31.7366 11.9338 31.3322C11.6299 30.9277 11.7183 29.8506 12.199 28.1008C12.6798 26.351 12.9399 25.4308 12.9795 25.3402C13.0191 25.2496 13.0743 25.1701 13.145 25.1016C13.2158 25.0332 13.2972 24.9808 13.3894 24.9446C13.4816 24.9083 13.5768 24.8911 13.6751 24.8929C13.7735 24.8948 13.8681 24.9153 13.9589 24.9546C14.0498 24.9939 14.1294 25.0491 14.1976 25.1203C14.2658 25.1915 14.3181 25.2729 14.3545 25.3645C14.3909 25.4561 14.4081 25.5514 14.4061 25.6504L14.4035 25.7983Z" fill="#4DABF7" stroke="#4DABF7" stroke-linecap="round" stroke-linejoin="round"/>
<path d="M16.2121 26.3791C16.1167 27.4483 15.9417 28.7206 15.6871 30.196C15.4325 31.6713 15.2066 32.5647 15.0092 32.876C14.8119 33.1874 14.5318 33.3114 14.1688 33.2482C13.8058 33.185 13.584 32.9736 13.5033 32.614C13.4226 32.2545 13.533 31.9687 13.8345 31.7566C14.136 31.5445 14.4423 31.5371 14.7534 31.7344C15.0645 31.9318 15.1885 32.212 15.1255 32.5751C15.0624 32.9382 14.851 33.16 14.4912 33.2405C14.1315 33.3211 13.8457 33.2107 13.6339 32.9093C13.4221 32.608 13.425 31.6044 13.6426 29.8987C13.8602 28.1929 14.0991 27.1052 14.3591 26.6357C14.6191 26.1661 14.7725 25.8874 14.8195 25.7996C14.8665 25.7118 14.9286 25.6365 15.0058 25.5737C15.0831 25.511 15.1693 25.4652 15.2645 25.4363C15.3597 25.4075 15.4569 25.3982 15.556 25.4085C15.6552 25.4188 15.7485 25.4474 15.836 25.4942C15.9236 25.5409 15.9988 25.6031 16.0618 25.6806C16.1248 25.7582 16.1706 25.8444 16.1992 25.9392C16.2279 26.0341 16.2371 26.1312 16.227 26.2307L16.2121 26.3791Z" fill="#4DABF7" stroke="#4DABF7" stroke-linecap="round" stroke-linejoin="round"/>
</svg>
